<?xml version="1.0" encoding="UTF-8" standalone="no"?>
<!DOCTYPE svg PUBLIC "-//W3C//DTD SVG 1.1//EN"
 "http://www.w3.org/Graphics/SVG/1.1/DTD/svg11.dtd">
<!-- Generated by graphviz version 2.43.0 (0)
 -->
<!-- Title: snakemake_dag Pages: 1 -->
<svg width="1149pt" height="712pt"
 viewBox="0.00 0.00 1148.50 712.00" xmlns="http://www.w3.org/2000/svg" xmlns:xlink="http://www.w3.org/1999/xlink">
<g id="graph0" class="graph" transform="scale(1 1) rotate(0) translate(4 708)">
<title>snakemake_dag</title>
<polygon fill="white" stroke="transparent" points="-4,4 -4,-708 1144.5,-708 1144.5,4 -4,4"/>
<!-- 0 -->
<g id="node1" class="node">
<title>0</title>
<path fill="none" stroke="#59d856" stroke-width="2" d="M696,-36C696,-36 578,-36 578,-36 572,-36 566,-30 566,-24 566,-24 566,-12 566,-12 566,-6 572,0 578,0 578,0 696,0 696,0 702,0 708,-6 708,-12 708,-12 708,-24 708,-24 708,-30 702,-36 696,-36"/>
<text text-anchor="middle" x="637" y="-15.5" font-family="sans" font-size="10.00">evaluate_ensemble_done</text>
</g>
<!-- 1 -->
<g id="node2" class="node">
<title>1</title>
<path fill="none" stroke="#d8b456" stroke-width="2" d="M696,-108C696,-108 578,-108 578,-108 572,-108 566,-102 566,-96 566,-96 566,-84 566,-84 566,-78 572,-72 578,-72 578,-72 696,-72 696,-72 702,-72 708,-78 708,-84 708,-84 708,-96 708,-96 708,-102 702,-108 696,-108"/>
<text text-anchor="middle" x="637" y="-93" font-family="sans" font-size="10.00">evaluate</text>
<text text-anchor="middle" x="637" y="-82" font-family="sans" font-size="10.00">model: teacher&#45;ensemble</text>
</g>
<!-- 1&#45;&gt;0 -->
<g id="edge1" class="edge">
<title>1&#45;&gt;0</title>
<path fill="none" stroke="grey" stroke-width="2" d="M637,-71.7C637,-63.98 637,-54.71 637,-46.11"/>
<polygon fill="grey" stroke="grey" stroke-width="2" points="640.5,-46.1 637,-36.1 633.5,-46.1 640.5,-46.1"/>
</g>
<!-- 2 -->
<g id="node3" class="node">
<title>2</title>
<path fill="none" stroke="#d85e56" stroke-width="2" d="M812,-403.5C812,-403.5 696,-403.5 696,-403.5 690,-403.5 684,-397.5 684,-391.5 684,-391.5 684,-379.5 684,-379.5 684,-373.5 690,-367.5 696,-367.5 696,-367.5 812,-367.5 812,-367.5 818,-367.5 824,-373.5 824,-379.5 824,-379.5 824,-391.5 824,-391.5 824,-397.5 818,-403.5 812,-403.5"/>
<text text-anchor="middle" x="754" y="-388.5" font-family="sans" font-size="10.00">marian</text>
<text text-anchor="middle" x="754" y="-377.5" font-family="sans" font-size="10.00">marian_type: marian&#45;dev</text>
</g>
<!-- 2&#45;&gt;1 -->
<g id="edge2" class="edge">
<title>2&#45;&gt;1</title>
<path fill="none" stroke="grey" stroke-width="2" d="M763.31,-367.06C768.46,-356.4 774.35,-342.3 777,-329 793.15,-247.84 806.7,-209.4 756,-144 745.28,-130.18 730.19,-119.87 714.33,-112.22"/>
<polygon fill="grey" stroke="grey" stroke-width="2" points="715.49,-108.9 704.93,-108.01 712.63,-115.29 715.49,-108.9"/>
</g>
<!-- 4 -->
<g id="node5" class="node">
<title>4</title>
<path fill="none" stroke="#56d882" stroke-width="2" d="M491,-182.5C491,-182.5 417,-182.5 417,-182.5 411,-182.5 405,-176.5 405,-170.5 405,-170.5 405,-158.5 405,-158.5 405,-152.5 411,-146.5 417,-146.5 417,-146.5 491,-146.5 491,-146.5 497,-146.5 503,-152.5 503,-158.5 503,-158.5 503,-170.5 503,-170.5 503,-176.5 497,-182.5 491,-182.5"/>
<text text-anchor="middle" x="454" y="-162" font-family="sans" font-size="10.00">finetune_teacher</text>
</g>
<!-- 2&#45;&gt;4 -->
<g id="edge9" class="edge">
<title>2&#45;&gt;4</title>
<path fill="none" stroke="grey" stroke-width="2" d="M745.23,-367.39C727.35,-334.2 683.47,-260.85 626,-221 584.81,-192.44 564.84,-200.38 512.77,-185.08"/>
<polygon fill="grey" stroke="grey" stroke-width="2" points="513.61,-181.67 503.03,-182.05 511.54,-188.36 513.61,-181.67"/>
</g>
<!-- 9 -->
<g id="node10" class="node">
<title>9</title>
<path fill="none" stroke="#d89c56" stroke-width="2" d="M443.5,-257C443.5,-257 386.5,-257 386.5,-257 380.5,-257 374.5,-251 374.5,-245 374.5,-245 374.5,-233 374.5,-233 374.5,-227 380.5,-221 386.5,-221 386.5,-221 443.5,-221 443.5,-221 449.5,-221 455.5,-227 455.5,-233 455.5,-233 455.5,-245 455.5,-245 455.5,-251 449.5,-257 443.5,-257"/>
<text text-anchor="middle" x="415" y="-242" font-family="sans" font-size="10.00">train_teacher</text>
<text text-anchor="middle" x="415" y="-231" font-family="sans" font-size="10.00">ens: 0</text>
</g>
<!-- 2&#45;&gt;9 -->
<g id="edge16" class="edge">
<title>2&#45;&gt;9</title>
<path fill="none" stroke="grey" stroke-width="2" d="M686.53,-367.41C639.77,-355.17 581.95,-339.12 559,-329 518.06,-310.94 474.88,-282.88 446.61,-263.11"/>
<polygon fill="grey" stroke="grey" stroke-width="2" points="448.52,-260.17 438.33,-257.26 444.48,-265.89 448.52,-260.17"/>
</g>
<!-- 27 -->
<g id="node28" class="node">
<title>27</title>
<path fill="none" stroke="#d88556" stroke-width="2" d="M654,-329C654,-329 604,-329 604,-329 598,-329 592,-323 592,-317 592,-317 592,-305 592,-305 592,-299 598,-293 604,-293 604,-293 654,-293 654,-293 660,-293 666,-299 666,-305 666,-305 666,-317 666,-317 666,-323 660,-329 654,-329"/>
<text text-anchor="middle" x="629" y="-308.5" font-family="sans" font-size="10.00">train_vocab</text>
</g>
<!-- 2&#45;&gt;27 -->
<g id="edge44" class="edge">
<title>2&#45;&gt;27</title>
<path fill="none" stroke="grey" stroke-width="2" d="M724.38,-367.32C707.25,-357.39 685.53,-344.79 667.14,-334.12"/>
<polygon fill="grey" stroke="grey" stroke-width="2" points="668.82,-331.05 658.41,-329.06 665.3,-337.1 668.82,-331.05"/>
</g>
<!-- 28 -->
<g id="node29" class="node">
<title>28</title>
<path fill="none" stroke="#56d882" stroke-width="2" d="M735,-182.5C735,-182.5 661,-182.5 661,-182.5 655,-182.5 649,-176.5 649,-170.5 649,-170.5 649,-158.5 649,-158.5 649,-152.5 655,-146.5 661,-146.5 661,-146.5 735,-146.5 735,-146.5 741,-146.5 747,-152.5 747,-158.5 747,-158.5 747,-170.5 747,-170.5 747,-176.5 741,-182.5 735,-182.5"/>
<text text-anchor="middle" x="698" y="-162" font-family="sans" font-size="10.00">finetune_teacher</text>
</g>
<!-- 2&#45;&gt;28 -->
<g id="edge49" class="edge">
<title>2&#45;&gt;28</title>
<path fill="none" stroke="grey" stroke-width="2" d="M757.42,-367.46C762.74,-336.81 770.44,-270.92 750,-221 745.19,-209.26 736.67,-198.51 727.89,-189.67"/>
<polygon fill="grey" stroke="grey" stroke-width="2" points="730.21,-187.04 720.54,-182.71 725.39,-192.12 730.21,-187.04"/>
</g>
<!-- 29 -->
<g id="node30" class="node">
<title>29</title>
<path fill="none" stroke="#d89c56" stroke-width="2" d="M581.5,-257C581.5,-257 524.5,-257 524.5,-257 518.5,-257 512.5,-251 512.5,-245 512.5,-245 512.5,-233 512.5,-233 512.5,-227 518.5,-221 524.5,-221 524.5,-221 581.5,-221 581.5,-221 587.5,-221 593.5,-227 593.5,-233 593.5,-233 593.5,-245 593.5,-245 593.5,-251 587.5,-257 581.5,-257"/>
<text text-anchor="middle" x="553" y="-242" font-family="sans" font-size="10.00">train_teacher</text>
<text text-anchor="middle" x="553" y="-231" font-family="sans" font-size="10.00">ens: 1</text>
</g>
<!-- 2&#45;&gt;29 -->
<g id="edge53" class="edge">
<title>2&#45;&gt;29</title>
<path fill="none" stroke="grey" stroke-width="2" d="M692.3,-367.4C646.7,-354.28 591.18,-337.09 583,-329 566.47,-312.65 559.04,-286.9 555.71,-267.3"/>
<polygon fill="grey" stroke="grey" stroke-width="2" points="559.14,-266.54 554.25,-257.14 552.21,-267.53 559.14,-266.54"/>
</g>
<!-- 3 -->
<g id="node4" class="node">
<title>3</title>
<path fill="none" stroke="#ced856" stroke-width="2" d="M619,-185C619,-185 533,-185 533,-185 527,-185 521,-179 521,-173 521,-173 521,-156 521,-156 521,-150 527,-144 533,-144 533,-144 619,-144 619,-144 625,-144 631,-150 631,-156 631,-156 631,-173 631,-173 631,-179 625,-185 619,-185"/>
<text text-anchor="middle" x="576" y="-173" font-family="sans" font-size="10.00">download_corpus</text>
<text text-anchor="middle" x="576" y="-162" font-family="sans" font-size="10.00">dataset: flores_dev</text>
<text text-anchor="middle" x="576" y="-151" font-family="sans" font-size="10.00">kind: eval</text>
</g>
<!-- 3&#45;&gt;1 -->
<g id="edge3" class="edge">
<title>3&#45;&gt;1</title>
<path fill="none" stroke="grey" stroke-width="2" d="M592.67,-143.69C599.8,-135.21 608.21,-125.22 615.78,-116.23"/>
<polygon fill="grey" stroke="grey" stroke-width="2" points="618.67,-118.22 622.43,-108.32 613.31,-113.72 618.67,-118.22"/>
</g>
<!-- 4&#45;&gt;1 -->
<g id="edge4" class="edge">
<title>4&#45;&gt;1</title>
<path fill="none" stroke="grey" stroke-width="2" d="M497.37,-146.32C523.46,-135.98 556.86,-122.75 584.45,-111.82"/>
<polygon fill="grey" stroke="grey" stroke-width="2" points="585.94,-115 593.94,-108.06 583.36,-108.49 585.94,-115"/>
</g>
<!-- 5 -->
<g id="node6" class="node">
<title>5</title>
<path fill="none" stroke="#5663d8" stroke-width="2" d="M320,-329C320,-329 258,-329 258,-329 252,-329 246,-323 246,-317 246,-317 246,-305 246,-305 246,-299 252,-293 258,-293 258,-293 320,-293 320,-293 326,-293 332,-299 332,-305 332,-305 332,-317 332,-317 332,-323 326,-329 320,-329"/>
<text text-anchor="middle" x="289" y="-308.5" font-family="sans" font-size="10.00">merge_devset</text>
</g>
<!-- 5&#45;&gt;4 -->
<g id="edge6" class="edge">
<title>5&#45;&gt;4</title>
<path fill="none" stroke="grey" stroke-width="2" d="M292.34,-292.79C296.97,-273.11 307.13,-241.04 327,-221 345.61,-202.23 371.64,-189.35 395.29,-180.76"/>
<polygon fill="grey" stroke="grey" stroke-width="2" points="396.59,-184.01 404.9,-177.45 394.31,-177.39 396.59,-184.01"/>
</g>
<!-- 5&#45;&gt;9 -->
<g id="edge14" class="edge">
<title>5&#45;&gt;9</title>
<path fill="none" stroke="grey" stroke-width="2" d="M319.82,-292.88C336.45,-283.64 357.16,-272.13 375.02,-262.21"/>
<polygon fill="grey" stroke="grey" stroke-width="2" points="377.02,-265.11 384.06,-257.19 373.62,-258.99 377.02,-265.11"/>
</g>
<!-- 5&#45;&gt;28 -->
<g id="edge46" class="edge">
<title>5&#45;&gt;28</title>
<path fill="none" stroke="grey" stroke-width="2" d="M301.44,-292.65C318.57,-269.28 349.11,-229.62 365,-221 470.49,-163.77 517.41,-210.18 639.38,-184.8"/>
<polygon fill="grey" stroke="grey" stroke-width="2" points="640.45,-188.15 649.46,-182.58 638.94,-181.32 640.45,-188.15"/>
</g>
<!-- 5&#45;&gt;29 -->
<g id="edge51" class="edge">
<title>5&#45;&gt;29</title>
<path fill="none" stroke="grey" stroke-width="2" d="M332.06,-295.66C335.08,-294.74 338.08,-293.84 341,-293 395.68,-277.25 459.05,-261.76 502.17,-251.64"/>
<polygon fill="grey" stroke="grey" stroke-width="2" points="503.19,-254.99 512.13,-249.31 501.59,-248.18 503.19,-254.99"/>
</g>
<!-- 6 -->
<g id="node7" class="node">
<title>6</title>
<path fill="none" stroke="#ced856" stroke-width="2" d="M98,-406C98,-406 12,-406 12,-406 6,-406 0,-400 0,-394 0,-394 0,-377 0,-377 0,-371 6,-365 12,-365 12,-365 98,-365 98,-365 104,-365 110,-371 110,-377 110,-377 110,-394 110,-394 110,-400 104,-406 98,-406"/>
<text text-anchor="middle" x="55" y="-394" font-family="sans" font-size="10.00">download_corpus</text>
<text text-anchor="middle" x="55" y="-383" font-family="sans" font-size="10.00">dataset: flores_dev</text>
<text text-anchor="middle" x="55" y="-372" font-family="sans" font-size="10.00">kind: devset</text>
</g>
<!-- 6&#45;&gt;5 -->
<g id="edge11" class="edge">
<title>6&#45;&gt;5</title>
<path fill="none" stroke="grey" stroke-width="2" d="M110.16,-367.41C148.24,-355.61 198.58,-340.01 236.15,-328.37"/>
<polygon fill="grey" stroke="grey" stroke-width="2" points="237.38,-331.66 245.9,-325.35 235.31,-324.97 237.38,-331.66"/>
</g>
<!-- 7 -->
<g id="node8" class="node">
<title>7</title>
<path fill="none" stroke="#ced856" stroke-width="2" d="M300,-406C300,-406 178,-406 178,-406 172,-406 166,-400 166,-394 166,-394 166,-377 166,-377 166,-371 172,-365 178,-365 178,-365 300,-365 300,-365 306,-365 312,-371 312,-377 312,-377 312,-394 312,-394 312,-400 306,-406 300,-406"/>
<text text-anchor="middle" x="239" y="-394" font-family="sans" font-size="10.00">download_corpus</text>
<text text-anchor="middle" x="239" y="-383" font-family="sans" font-size="10.00">dataset: sacrebleu_wmt19</text>
<text text-anchor="middle" x="239" y="-372" font-family="sans" font-size="10.00">kind: devset</text>
</g>
<!-- 7&#45;&gt;5 -->
<g id="edge12" class="edge">
<title>7&#45;&gt;5</title>
<path fill="none" stroke="grey" stroke-width="2" d="M252.66,-364.69C258.39,-356.39 265.12,-346.63 271.22,-337.78"/>
<polygon fill="grey" stroke="grey" stroke-width="2" points="274.26,-339.54 277.06,-329.32 268.5,-335.56 274.26,-339.54"/>
</g>
<!-- 8 -->
<g id="node9" class="node">
<title>8</title>
<path fill="none" stroke="#b6d856" stroke-width="2" d="M379,-624.5C379,-624.5 289,-624.5 289,-624.5 283,-624.5 277,-618.5 277,-612.5 277,-612.5 277,-600.5 277,-600.5 277,-594.5 283,-588.5 289,-588.5 289,-588.5 379,-588.5 379,-588.5 385,-588.5 391,-594.5 391,-600.5 391,-600.5 391,-612.5 391,-612.5 391,-618.5 385,-624.5 379,-624.5"/>
<text text-anchor="middle" x="334" y="-604" font-family="sans" font-size="10.00">compile_preprocess</text>
</g>
<!-- 8&#45;&gt;5 -->
<g id="edge13" class="edge">
<title>8&#45;&gt;5</title>
<path fill="none" stroke="grey" stroke-width="2" d="M310.36,-588.47C269.73,-557.56 188.06,-487.81 157,-406 150.53,-388.96 146.79,-380.1 157,-365 174.63,-338.92 207.43,-325.67 235.92,-318.94"/>
<polygon fill="grey" stroke="grey" stroke-width="2" points="236.75,-322.35 245.79,-316.82 235.28,-315.5 236.75,-322.35"/>
</g>
<!-- 10 -->
<g id="node11" class="node">
<title>10</title>
<path fill="none" stroke="#97d856" stroke-width="2" d="M447.5,-329C447.5,-329 362.5,-329 362.5,-329 356.5,-329 350.5,-323 350.5,-317 350.5,-317 350.5,-305 350.5,-305 350.5,-299 356.5,-293 362.5,-293 362.5,-293 447.5,-293 447.5,-293 453.5,-293 459.5,-299 459.5,-305 459.5,-305 459.5,-317 459.5,-317 459.5,-323 453.5,-329 447.5,-329"/>
<text text-anchor="middle" x="405" y="-308.5" font-family="sans" font-size="10.00">merge_augmented</text>
</g>
<!-- 8&#45;&gt;10 -->
<g id="edge20" class="edge">
<title>8&#45;&gt;10</title>
<path fill="none" stroke="grey" stroke-width="2" d="M332.36,-588.3C329.2,-547.56 325.26,-442.8 359,-365 363.48,-354.67 370.73,-344.88 378.15,-336.6"/>
<polygon fill="grey" stroke="grey" stroke-width="2" points="380.88,-338.81 385.25,-329.15 375.81,-333.98 380.88,-338.81"/>
</g>
<!-- 11 -->
<g id="node12" class="node">
<title>11</title>
<path fill="none" stroke="#88d856" stroke-width="2" d="M654,-403.5C654,-403.5 592,-403.5 592,-403.5 586,-403.5 580,-397.5 580,-391.5 580,-391.5 580,-379.5 580,-379.5 580,-373.5 586,-367.5 592,-367.5 592,-367.5 654,-367.5 654,-367.5 660,-367.5 666,-373.5 666,-379.5 666,-379.5 666,-391.5 666,-391.5 666,-397.5 660,-403.5 654,-403.5"/>
<text text-anchor="middle" x="623" y="-383" font-family="sans" font-size="10.00">merge_corpus</text>
</g>
<!-- 8&#45;&gt;11 -->
<g id="edge25" class="edge">
<title>8&#45;&gt;11</title>
<path fill="none" stroke="grey" stroke-width="2" d="M388.79,-588.44C432.15,-574.66 486.87,-556.52 496,-550 547.95,-512.89 588.95,-448.57 609.19,-412.66"/>
<polygon fill="grey" stroke="grey" stroke-width="2" points="612.33,-414.2 614.11,-403.75 606.21,-410.81 612.33,-414.2"/>
</g>
<!-- 23 -->
<g id="node24" class="node">
<title>23</title>
<path fill="none" stroke="#9fd856" stroke-width="2" d="M451.5,-478C451.5,-478 386.5,-478 386.5,-478 380.5,-478 374.5,-472 374.5,-466 374.5,-466 374.5,-454 374.5,-454 374.5,-448 380.5,-442 386.5,-442 386.5,-442 451.5,-442 451.5,-442 457.5,-442 463.5,-448 463.5,-454 463.5,-454 463.5,-466 463.5,-466 463.5,-472 457.5,-478 451.5,-478"/>
<text text-anchor="middle" x="419" y="-457.5" font-family="sans" font-size="10.00">split_mono_trg</text>
</g>
<!-- 8&#45;&gt;23 -->
<g id="edge40" class="edge">
<title>8&#45;&gt;23</title>
<path fill="none" stroke="grey" stroke-width="2" d="M344.08,-588.36C358.85,-563.26 386.45,-516.33 403.72,-486.98"/>
<polygon fill="grey" stroke="grey" stroke-width="2" points="406.88,-488.52 408.93,-478.12 400.84,-484.97 406.88,-488.52"/>
</g>
<!-- 24 -->
<g id="node25" class="node">
<title>24</title>
<path fill="none" stroke="#56d892" stroke-width="2" d="M475.5,-550C475.5,-550 418.5,-550 418.5,-550 412.5,-550 406.5,-544 406.5,-538 406.5,-538 406.5,-526 406.5,-526 406.5,-520 412.5,-514 418.5,-514 418.5,-514 475.5,-514 475.5,-514 481.5,-514 487.5,-520 487.5,-526 487.5,-526 487.5,-538 487.5,-538 487.5,-544 481.5,-550 475.5,-550"/>
<text text-anchor="middle" x="447" y="-529.5" font-family="sans" font-size="10.00">merge_mono</text>
</g>
<!-- 8&#45;&gt;24 -->
<g id="edge42" class="edge">
<title>8&#45;&gt;24</title>
<path fill="none" stroke="grey" stroke-width="2" d="M360.78,-588.32C375.98,-578.57 395.19,-566.24 411.62,-555.7"/>
<polygon fill="grey" stroke="grey" stroke-width="2" points="413.89,-558.4 420.41,-550.06 410.11,-552.51 413.89,-558.4"/>
</g>
<!-- 9&#45;&gt;4 -->
<g id="edge7" class="edge">
<title>9&#45;&gt;4</title>
<path fill="none" stroke="grey" stroke-width="2" d="M424.24,-220.82C428.95,-212.06 434.78,-201.23 440.03,-191.47"/>
<polygon fill="grey" stroke="grey" stroke-width="2" points="443.17,-193.02 444.82,-182.56 437,-189.71 443.17,-193.02"/>
</g>
<!-- 10&#45;&gt;9 -->
<g id="edge15" class="edge">
<title>10&#45;&gt;9</title>
<path fill="none" stroke="grey" stroke-width="2" d="M407.47,-292.7C408.57,-284.98 409.9,-275.71 411.13,-267.11"/>
<polygon fill="grey" stroke="grey" stroke-width="2" points="414.61,-267.5 412.56,-257.1 407.68,-266.51 414.61,-267.5"/>
</g>
<!-- 10&#45;&gt;29 -->
<g id="edge52" class="edge">
<title>10&#45;&gt;29</title>
<path fill="none" stroke="grey" stroke-width="2" d="M441.2,-292.88C461.26,-283.39 486.37,-271.51 507.71,-261.42"/>
<polygon fill="grey" stroke="grey" stroke-width="2" points="509.37,-264.51 516.91,-257.07 506.38,-258.18 509.37,-264.51"/>
</g>
<!-- 11&#45;&gt;4 -->
<g id="edge8" class="edge">
<title>11&#45;&gt;4</title>
<path fill="none" stroke="grey" stroke-width="2" d="M601.31,-367.48C588.45,-356.97 572.15,-342.88 559,-329 531.11,-299.58 525.09,-290.99 503,-257 489.2,-235.77 475.79,-210.28 466.5,-191.6"/>
<polygon fill="grey" stroke="grey" stroke-width="2" points="469.58,-189.95 462.03,-182.52 463.3,-193.03 469.58,-189.95"/>
</g>
<!-- 11&#45;&gt;10 -->
<g id="edge18" class="edge">
<title>11&#45;&gt;10</title>
<path fill="none" stroke="grey" stroke-width="2" d="M579.93,-370.18C547.35,-359.34 502.19,-344.32 465.91,-332.26"/>
<polygon fill="grey" stroke="grey" stroke-width="2" points="467.01,-328.93 456.42,-329.1 464.8,-335.58 467.01,-328.93"/>
</g>
<!-- 11&#45;&gt;27 -->
<g id="edge45" class="edge">
<title>11&#45;&gt;27</title>
<path fill="none" stroke="grey" stroke-width="2" d="M624.42,-367.32C625.12,-358.92 625.97,-348.62 626.75,-339.19"/>
<polygon fill="grey" stroke="grey" stroke-width="2" points="630.25,-339.31 627.59,-329.06 623.28,-338.74 630.25,-339.31"/>
</g>
<!-- 11&#45;&gt;28 -->
<g id="edge48" class="edge">
<title>11&#45;&gt;28</title>
<path fill="none" stroke="grey" stroke-width="2" d="M644.32,-367.47C655.31,-357.47 667.88,-343.89 675,-329 696.21,-284.67 699.33,-226.38 699.07,-192.72"/>
<polygon fill="grey" stroke="grey" stroke-width="2" points="702.57,-192.64 698.89,-182.7 695.57,-192.76 702.57,-192.64"/>
</g>
<!-- 12 -->
<g id="node13" class="node">
<title>12</title>
<path fill="none" stroke="#56d8d8" stroke-width="2" d="M957,-478C957,-478 919,-478 919,-478 913,-478 907,-472 907,-466 907,-466 907,-454 907,-454 907,-448 913,-442 919,-442 919,-442 957,-442 957,-442 963,-442 969,-448 969,-454 969,-454 969,-466 969,-466 969,-472 963,-478 957,-478"/>
<text text-anchor="middle" x="938" y="-457.5" font-family="sans" font-size="10.00">bicleaner</text>
</g>
<!-- 12&#45;&gt;11 -->
<g id="edge22" class="edge">
<title>12&#45;&gt;11</title>
<path fill="none" stroke="grey" stroke-width="2" d="M906.84,-453.37C850.58,-443.1 733.27,-421.2 676.17,-406.05"/>
<polygon fill="grey" stroke="grey" stroke-width="2" points="676.81,-402.6 666.24,-403.31 674.94,-409.34 676.81,-402.6"/>
</g>
<!-- 13 -->
<g id="node14" class="node">
<title>13</title>
<path fill="none" stroke="#68d856" stroke-width="2" d="M977,-624.5C977,-624.5 947,-624.5 947,-624.5 941,-624.5 935,-618.5 935,-612.5 935,-612.5 935,-600.5 935,-600.5 935,-594.5 941,-588.5 947,-588.5 947,-588.5 977,-588.5 977,-588.5 983,-588.5 989,-594.5 989,-600.5 989,-600.5 989,-612.5 989,-612.5 989,-618.5 983,-624.5 977,-624.5"/>
<text text-anchor="middle" x="962" y="-604" font-family="sans" font-size="10.00">kenlm</text>
</g>
<!-- 13&#45;&gt;12 -->
<g id="edge26" class="edge">
<title>13&#45;&gt;12</title>
<path fill="none" stroke="grey" stroke-width="2" d="M967.08,-588.3C971.76,-569.66 977.02,-539.19 970,-514 967.33,-504.42 962.41,-494.84 957.22,-486.51"/>
<polygon fill="grey" stroke="grey" stroke-width="2" points="960.02,-484.41 951.56,-478.03 954.2,-488.29 960.02,-484.41"/>
</g>
<!-- 16 -->
<g id="node17" class="node">
<title>16</title>
<path fill="none" stroke="#569ad8" stroke-width="2" d="M916,-550C916,-550 850,-550 850,-550 844,-550 838,-544 838,-538 838,-538 838,-526 838,-526 838,-520 844,-514 850,-514 850,-514 916,-514 916,-514 922,-514 928,-520 928,-526 928,-526 928,-538 928,-538 928,-544 922,-550 916,-550"/>
<text text-anchor="middle" x="883" y="-529.5" font-family="sans" font-size="10.00">bicleaner_pack</text>
</g>
<!-- 13&#45;&gt;16 -->
<g id="edge30" class="edge">
<title>13&#45;&gt;16</title>
<path fill="none" stroke="grey" stroke-width="2" d="M943.28,-588.32C933.05,-578.93 920.21,-567.15 909.02,-556.88"/>
<polygon fill="grey" stroke="grey" stroke-width="2" points="911.32,-554.24 901.59,-550.06 906.59,-559.4 911.32,-554.24"/>
</g>
<!-- 17 -->
<g id="node18" class="node">
<title>17</title>
<path fill="none" stroke="#56d8d8" stroke-width="2" d="M819,-478C819,-478 781,-478 781,-478 775,-478 769,-472 769,-466 769,-466 769,-454 769,-454 769,-448 775,-442 781,-442 781,-442 819,-442 819,-442 825,-442 831,-448 831,-454 831,-454 831,-466 831,-466 831,-472 825,-478 819,-478"/>
<text text-anchor="middle" x="800" y="-457.5" font-family="sans" font-size="10.00">bicleaner</text>
</g>
<!-- 13&#45;&gt;17 -->
<g id="edge31" class="edge">
<title>13&#45;&gt;17</title>
<path fill="none" stroke="grey" stroke-width="2" d="M961.78,-588.5C960.63,-568.31 955.76,-534.78 937,-514 912.28,-486.61 871.76,-473.26 841.18,-466.82"/>
<polygon fill="grey" stroke="grey" stroke-width="2" points="841.72,-463.35 831.23,-464.89 840.38,-470.23 841.72,-463.35"/>
</g>
<!-- 20 -->
<g id="node21" class="node">
<title>20</title>
<path fill="none" stroke="#56d8d8" stroke-width="2" d="M671,-478C671,-478 633,-478 633,-478 627,-478 621,-472 621,-466 621,-466 621,-454 621,-454 621,-448 627,-442 633,-442 633,-442 671,-442 671,-442 677,-442 683,-448 683,-454 683,-454 683,-466 683,-466 683,-472 677,-478 671,-478"/>
<text text-anchor="middle" x="652" y="-457.5" font-family="sans" font-size="10.00">bicleaner</text>
</g>
<!-- 13&#45;&gt;20 -->
<g id="edge35" class="edge">
<title>13&#45;&gt;20</title>
<path fill="none" stroke="grey" stroke-width="2" d="M934.68,-590.19C931.78,-588.72 928.85,-587.29 926,-586 884.12,-567 868.04,-574.3 829,-550 809.25,-537.7 810.69,-526.38 791,-514 760.39,-494.75 721.69,-480.71 692.9,-471.93"/>
<polygon fill="grey" stroke="grey" stroke-width="2" points="693.75,-468.53 683.16,-469.04 691.76,-475.24 693.75,-468.53"/>
</g>
<!-- 14 -->
<g id="node15" class="node">
<title>14</title>
<path fill="none" stroke="#d8cb56" stroke-width="2" d="M1098,-550C1098,-550 1042,-550 1042,-550 1036,-550 1030,-544 1030,-538 1030,-538 1030,-526 1030,-526 1030,-520 1036,-514 1042,-514 1042,-514 1098,-514 1098,-514 1104,-514 1110,-520 1110,-526 1110,-526 1110,-538 1110,-538 1110,-544 1104,-550 1098,-550"/>
<text text-anchor="middle" x="1070" y="-529.5" font-family="sans" font-size="10.00">clean_corpus</text>
</g>
<!-- 14&#45;&gt;12 -->
<g id="edge27" class="edge">
<title>14&#45;&gt;12</title>
<path fill="none" stroke="grey" stroke-width="2" d="M1037.71,-513.88C1019.74,-504.35 997.21,-492.4 978.11,-482.27"/>
<polygon fill="grey" stroke="grey" stroke-width="2" points="979.52,-479.06 969.05,-477.47 976.24,-485.24 979.52,-479.06"/>
</g>
<!-- 15 -->
<g id="node16" class="node">
<title>15</title>
<path fill="none" stroke="#ced856" stroke-width="2" d="M1128.5,-627C1128.5,-627 1019.5,-627 1019.5,-627 1013.5,-627 1007.5,-621 1007.5,-615 1007.5,-615 1007.5,-598 1007.5,-598 1007.5,-592 1013.5,-586 1019.5,-586 1019.5,-586 1128.5,-586 1128.5,-586 1134.5,-586 1140.5,-592 1140.5,-598 1140.5,-598 1140.5,-615 1140.5,-615 1140.5,-621 1134.5,-627 1128.5,-627"/>
<text text-anchor="middle" x="1074" y="-615" font-family="sans" font-size="10.00">download_corpus</text>
<text text-anchor="middle" x="1074" y="-604" font-family="sans" font-size="10.00">dataset: opus_ada83/v1</text>
<text text-anchor="middle" x="1074" y="-593" font-family="sans" font-size="10.00">kind: corpus</text>
</g>
<!-- 15&#45;&gt;14 -->
<g id="edge29" class="edge">
<title>15&#45;&gt;14</title>
<path fill="none" stroke="grey" stroke-width="2" d="M1072.91,-585.69C1072.48,-577.91 1071.98,-568.84 1071.51,-560.45"/>
<polygon fill="grey" stroke="grey" stroke-width="2" points="1075,-560.11 1070.96,-550.32 1068.01,-560.5 1075,-560.11"/>
</g>
<!-- 16&#45;&gt;12 -->
<g id="edge28" class="edge">
<title>16&#45;&gt;12</title>
<path fill="none" stroke="grey" stroke-width="2" d="M896.6,-513.7C903.12,-505.39 911.07,-495.28 918.25,-486.14"/>
<polygon fill="grey" stroke="grey" stroke-width="2" points="921.13,-488.13 924.56,-478.1 915.63,-483.81 921.13,-488.13"/>
</g>
<!-- 16&#45;&gt;17 -->
<g id="edge33" class="edge">
<title>16&#45;&gt;17</title>
<path fill="none" stroke="grey" stroke-width="2" d="M862.48,-513.7C852.13,-504.97 839.41,-494.24 828.16,-484.75"/>
<polygon fill="grey" stroke="grey" stroke-width="2" points="830.18,-481.88 820.28,-478.1 825.67,-487.23 830.18,-481.88"/>
</g>
<!-- 16&#45;&gt;20 -->
<g id="edge37" class="edge">
<title>16&#45;&gt;20</title>
<path fill="none" stroke="grey" stroke-width="2" d="M837.91,-517.34C795.82,-504.58 733.56,-485.71 692.88,-473.39"/>
<polygon fill="grey" stroke="grey" stroke-width="2" points="693.87,-470.03 683.28,-470.48 691.84,-476.73 693.87,-470.03"/>
</g>
<!-- 17&#45;&gt;11 -->
<g id="edge23" class="edge">
<title>17&#45;&gt;11</title>
<path fill="none" stroke="grey" stroke-width="2" d="M768.76,-446.21C742.61,-435.49 704.78,-420 674.2,-407.47"/>
<polygon fill="grey" stroke="grey" stroke-width="2" points="675.14,-404.07 664.56,-403.52 672.49,-410.55 675.14,-404.07"/>
</g>
<!-- 18 -->
<g id="node19" class="node">
<title>18</title>
<path fill="none" stroke="#d8cb56" stroke-width="2" d="M770,-550C770,-550 714,-550 714,-550 708,-550 702,-544 702,-538 702,-538 702,-526 702,-526 702,-520 708,-514 714,-514 714,-514 770,-514 770,-514 776,-514 782,-520 782,-526 782,-526 782,-538 782,-538 782,-544 776,-550 770,-550"/>
<text text-anchor="middle" x="742" y="-529.5" font-family="sans" font-size="10.00">clean_corpus</text>
</g>
<!-- 18&#45;&gt;17 -->
<g id="edge32" class="edge">
<title>18&#45;&gt;17</title>
<path fill="none" stroke="grey" stroke-width="2" d="M756.34,-513.7C763.29,-505.3 771.77,-495.07 779.4,-485.86"/>
<polygon fill="grey" stroke="grey" stroke-width="2" points="782.14,-488.04 785.83,-478.1 776.75,-483.57 782.14,-488.04"/>
</g>
<!-- 19 -->
<g id="node20" class="node">
<title>19</title>
<path fill="none" stroke="#ced856" stroke-width="2" d="M905,-627C905,-627 789,-627 789,-627 783,-627 777,-621 777,-615 777,-615 777,-598 777,-598 777,-592 783,-586 789,-586 789,-586 905,-586 905,-586 911,-586 917,-592 917,-598 917,-598 917,-615 917,-615 917,-621 911,-627 905,-627"/>
<text text-anchor="middle" x="847" y="-615" font-family="sans" font-size="10.00">download_corpus</text>
<text text-anchor="middle" x="847" y="-604" font-family="sans" font-size="10.00">dataset: opus_GNOME/v1</text>
<text text-anchor="middle" x="847" y="-593" font-family="sans" font-size="10.00">kind: corpus</text>
</g>
<!-- 19&#45;&gt;18 -->
<g id="edge34" class="edge">
<title>19&#45;&gt;18</title>
<path fill="none" stroke="grey" stroke-width="2" d="M818.59,-585.88C805.21,-576.64 789.16,-565.57 775.23,-555.94"/>
<polygon fill="grey" stroke="grey" stroke-width="2" points="777.08,-552.97 766.86,-550.17 773.1,-558.73 777.08,-552.97"/>
</g>
<!-- 20&#45;&gt;11 -->
<g id="edge24" class="edge">
<title>20&#45;&gt;11</title>
<path fill="none" stroke="grey" stroke-width="2" d="M645.13,-441.82C641.7,-433.24 637.47,-422.67 633.63,-413.08"/>
<polygon fill="grey" stroke="grey" stroke-width="2" points="636.79,-411.54 629.82,-403.56 630.29,-414.14 636.79,-411.54"/>
</g>
<!-- 21 -->
<g id="node22" class="node">
<title>21</title>
<path fill="none" stroke="#d8cb56" stroke-width="2" d="M663,-550C663,-550 607,-550 607,-550 601,-550 595,-544 595,-538 595,-538 595,-526 595,-526 595,-520 601,-514 607,-514 607,-514 663,-514 663,-514 669,-514 675,-520 675,-526 675,-526 675,-538 675,-538 675,-544 669,-550 663,-550"/>
<text text-anchor="middle" x="635" y="-529.5" font-family="sans" font-size="10.00">clean_corpus</text>
</g>
<!-- 21&#45;&gt;20 -->
<g id="edge36" class="edge">
<title>21&#45;&gt;20</title>
<path fill="none" stroke="grey" stroke-width="2" d="M639.2,-513.7C641.1,-505.9 643.38,-496.51 645.48,-487.83"/>
<polygon fill="grey" stroke="grey" stroke-width="2" points="648.89,-488.65 647.85,-478.1 642.08,-487 648.89,-488.65"/>
</g>
<!-- 22 -->
<g id="node23" class="node">
<title>22</title>
<path fill="none" stroke="#ced856" stroke-width="2" d="M747,-627C747,-627 515,-627 515,-627 509,-627 503,-621 503,-615 503,-615 503,-598 503,-598 503,-592 509,-586 515,-586 515,-586 747,-586 747,-586 753,-586 759,-592 759,-598 759,-598 759,-615 759,-615 759,-621 753,-627 747,-627"/>
<text text-anchor="middle" x="631" y="-615" font-family="sans" font-size="10.00">download_corpus</text>
<text text-anchor="middle" x="631" y="-604" font-family="sans" font-size="10.00">dataset: mtdata_Neulab&#45;tedtalks_train&#45;1&#45;eng&#45;rus</text>
<text text-anchor="middle" x="631" y="-593" font-family="sans" font-size="10.00">kind: corpus</text>
</g>
<!-- 22&#45;&gt;21 -->
<g id="edge38" class="edge">
<title>22&#45;&gt;21</title>
<path fill="none" stroke="grey" stroke-width="2" d="M632.09,-585.69C632.52,-577.91 633.02,-568.84 633.49,-560.45"/>
<polygon fill="grey" stroke="grey" stroke-width="2" points="636.99,-560.5 634.04,-550.32 630,-560.11 636.99,-560.5"/>
</g>
<!-- 30 -->
<g id="node31" class="node">
<title>30</title>
<path fill="none" stroke="#567bd8" stroke-width="2" d="M457.5,-403.5C457.5,-403.5 380.5,-403.5 380.5,-403.5 374.5,-403.5 368.5,-397.5 368.5,-391.5 368.5,-391.5 368.5,-379.5 368.5,-379.5 368.5,-373.5 374.5,-367.5 380.5,-367.5 380.5,-367.5 457.5,-367.5 457.5,-367.5 463.5,-367.5 469.5,-373.5 469.5,-379.5 469.5,-379.5 469.5,-391.5 469.5,-391.5 469.5,-397.5 463.5,-403.5 457.5,-403.5"/>
<text text-anchor="middle" x="419" y="-383" font-family="sans" font-size="10.00">collect_mono_trg</text>
</g>
<!-- 23&#45;&gt;30 -->
<g id="edge55" class="edge">
<title>23&#45;&gt;30</title>
<path fill="none" stroke="grey" stroke-width="2" d="M419,-441.82C419,-433.42 419,-423.12 419,-413.69"/>
<polygon fill="grey" stroke="grey" stroke-width="2" points="422.5,-413.56 419,-403.56 415.5,-413.56 422.5,-413.56"/>
</g>
<!-- 24&#45;&gt;10 -->
<g id="edge19" class="edge">
<title>24&#45;&gt;10</title>
<path fill="none" stroke="grey" stroke-width="2" d="M456.9,-513.98C473.66,-482.74 503.43,-414.89 478,-365 471.77,-352.77 461.24,-342.7 450.1,-334.75"/>
<polygon fill="grey" stroke="grey" stroke-width="2" points="451.79,-331.67 441.51,-329.08 447.93,-337.51 451.79,-331.67"/>
</g>
<!-- 24&#45;&gt;23 -->
<g id="edge39" class="edge">
<title>24&#45;&gt;23</title>
<path fill="none" stroke="grey" stroke-width="2" d="M440.08,-513.7C436.93,-505.81 433.12,-496.3 429.62,-487.55"/>
<polygon fill="grey" stroke="grey" stroke-width="2" points="432.81,-486.09 425.84,-478.1 426.31,-488.69 432.81,-486.09"/>
</g>
<!-- 25 -->
<g id="node26" class="node">
<title>25</title>
<path fill="none" stroke="#d8a456" stroke-width="2" d="M473,-624.5C473,-624.5 421,-624.5 421,-624.5 415,-624.5 409,-618.5 409,-612.5 409,-612.5 409,-600.5 409,-600.5 409,-594.5 415,-588.5 421,-588.5 421,-588.5 473,-588.5 473,-588.5 479,-588.5 485,-594.5 485,-600.5 485,-600.5 485,-612.5 485,-612.5 485,-618.5 479,-624.5 473,-624.5"/>
<text text-anchor="middle" x="447" y="-604" font-family="sans" font-size="10.00">clean_mono</text>
</g>
<!-- 25&#45;&gt;24 -->
<g id="edge41" class="edge">
<title>25&#45;&gt;24</title>
<path fill="none" stroke="grey" stroke-width="2" d="M447,-588.32C447,-579.92 447,-569.62 447,-560.19"/>
<polygon fill="grey" stroke="grey" stroke-width="2" points="450.5,-560.06 447,-550.06 443.5,-560.06 450.5,-560.06"/>
</g>
<!-- 26 -->
<g id="node27" class="node">
<title>26</title>
<path fill="none" stroke="#56b1d8" stroke-width="2" d="M521.5,-704C521.5,-704 372.5,-704 372.5,-704 366.5,-704 360.5,-698 360.5,-692 360.5,-692 360.5,-675 360.5,-675 360.5,-669 366.5,-663 372.5,-663 372.5,-663 521.5,-663 521.5,-663 527.5,-663 533.5,-669 533.5,-675 533.5,-675 533.5,-692 533.5,-692 533.5,-698 527.5,-704 521.5,-704"/>
<text text-anchor="middle" x="447" y="-692" font-family="sans" font-size="10.00">download_mono</text>
<text text-anchor="middle" x="447" y="-681" font-family="sans" font-size="10.00">dataset: news&#45;crawl_news.2020</text>
<text text-anchor="middle" x="447" y="-670" font-family="sans" font-size="10.00">lang: en</text>
</g>
<!-- 26&#45;&gt;25 -->
<g id="edge43" class="edge">
<title>26&#45;&gt;25</title>
<path fill="none" stroke="grey" stroke-width="2" d="M447,-662.79C447,-654.31 447,-644.24 447,-635.04"/>
<polygon fill="grey" stroke="grey" stroke-width="2" points="450.5,-634.78 447,-624.78 443.5,-634.78 450.5,-634.78"/>
</g>
<!-- 27&#45;&gt;4 -->
<g id="edge10" class="edge">
<title>27&#45;&gt;4</title>
<path fill="none" stroke="grey" stroke-width="2" d="M628.2,-292.69C626.38,-272.93 620.56,-240.79 602,-221 598.61,-217.39 551.94,-200.19 511.91,-185.88"/>
<polygon fill="grey" stroke="grey" stroke-width="2" points="513.03,-182.56 502.43,-182.5 510.68,-189.16 513.03,-182.56"/>
</g>
<!-- 27&#45;&gt;9 -->
<g id="edge17" class="edge">
<title>27&#45;&gt;9</title>
<path fill="none" stroke="grey" stroke-width="2" d="M591.72,-297.81C556.73,-286.36 504.11,-269.15 465.38,-256.48"/>
<polygon fill="grey" stroke="grey" stroke-width="2" points="466.45,-253.15 455.86,-253.36 464.27,-259.8 466.45,-253.15"/>
</g>
<!-- 27&#45;&gt;28 -->
<g id="edge50" class="edge">
<title>27&#45;&gt;28</title>
<path fill="none" stroke="grey" stroke-width="2" d="M637.19,-292.86C649.12,-267.87 671.39,-221.24 685.41,-191.86"/>
<polygon fill="grey" stroke="grey" stroke-width="2" points="688.67,-193.15 689.82,-182.62 682.36,-190.14 688.67,-193.15"/>
</g>
<!-- 27&#45;&gt;29 -->
<g id="edge54" class="edge">
<title>27&#45;&gt;29</title>
<path fill="none" stroke="grey" stroke-width="2" d="M610.21,-292.7C600.83,-284.05 589.32,-273.45 579.09,-264.03"/>
<polygon fill="grey" stroke="grey" stroke-width="2" points="581.3,-261.3 571.57,-257.1 576.55,-266.45 581.3,-261.3"/>
</g>
<!-- 28&#45;&gt;1 -->
<g id="edge5" class="edge">
<title>28&#45;&gt;1</title>
<path fill="none" stroke="grey" stroke-width="2" d="M683.54,-146.32C675.87,-137.2 666.3,-125.83 657.84,-115.77"/>
<polygon fill="grey" stroke="grey" stroke-width="2" points="660.47,-113.46 651.35,-108.06 655.11,-117.96 660.47,-113.46"/>
</g>
<!-- 29&#45;&gt;28 -->
<g id="edge47" class="edge">
<title>29&#45;&gt;28</title>
<path fill="none" stroke="grey" stroke-width="2" d="M587.36,-220.82C607.59,-210.71 633.35,-197.83 654.92,-187.04"/>
<polygon fill="grey" stroke="grey" stroke-width="2" points="656.5,-190.16 663.88,-182.56 653.37,-183.9 656.5,-190.16"/>
</g>
<!-- 30&#45;&gt;10 -->
<g id="edge21" class="edge">
<title>30&#45;&gt;10</title>
<path fill="none" stroke="grey" stroke-width="2" d="M415.68,-367.32C414.04,-358.83 412.03,-348.39 410.19,-338.88"/>
<polygon fill="grey" stroke="grey" stroke-width="2" points="413.63,-338.21 408.29,-329.06 406.75,-339.54 413.63,-338.21"/>
</g>
</g>
</svg>
