<?xml version="1.0" encoding="UTF-8" standalone="no"?>
<!DOCTYPE svg PUBLIC "-//W3C//DTD SVG 1.1//EN"
 "http://www.w3.org/Graphics/SVG/1.1/DTD/svg11.dtd">
<!-- Generated by graphviz version 2.43.0 (0)
 -->
<!-- Title: snakemake_dag Pages: 1 -->
<svg width="1116pt" height="851pt"
 viewBox="0.00 0.00 1116.00 851.00" xmlns="http://www.w3.org/2000/svg" xmlns:xlink="http://www.w3.org/1999/xlink">
<g id="graph0" class="graph" transform="scale(1 1) rotate(0) translate(4 847)">
<title>snakemake_dag</title>
<polygon fill="white" stroke="transparent" points="-4,4 -4,-847 1112,-847 1112,4 -4,4"/>
<!-- 0 -->
<g id="node1" class="node">
<title>0</title>
<path fill="none" stroke="#56d8b1" stroke-width="2" d="M763,-36C763,-36 689,-36 689,-36 683,-36 677,-30 677,-24 677,-24 677,-12 677,-12 677,-6 683,0 689,0 689,0 763,0 763,0 769,0 775,-6 775,-12 775,-12 775,-24 775,-24 775,-30 769,-36 763,-36"/>
<text text-anchor="middle" x="726" y="-15.5" font-family="sans" font-size="10.00">finetune_student</text>
</g>
<!-- 1 -->
<g id="node2" class="node">
<title>1</title>
<path fill="none" stroke="#566bd8" stroke-width="2" d="M288,-468C288,-468 226,-468 226,-468 220,-468 214,-462 214,-456 214,-456 214,-444 214,-444 214,-438 220,-432 226,-432 226,-432 288,-432 288,-432 294,-432 300,-438 300,-444 300,-444 300,-456 300,-456 300,-462 294,-468 288,-468"/>
<text text-anchor="middle" x="257" y="-447.5" font-family="sans" font-size="10.00">merge_devset</text>
</g>
<!-- 1&#45;&gt;0 -->
<g id="edge1" class="edge">
<title>1&#45;&gt;0</title>
<path fill="none" stroke="grey" stroke-width="2" d="M277.88,-431.63C305.02,-406.97 349,-358.99 349,-307 349,-307 349,-307 349,-161 349,-93.92 560.65,-47.64 666.78,-28.65"/>
<polygon fill="grey" stroke="grey" stroke-width="2" points="667.47,-32.09 676.71,-26.9 666.26,-25.19 667.47,-32.09"/>
</g>
<!-- 26 -->
<g id="node27" class="node">
<title>26</title>
<path fill="none" stroke="#5663d8" stroke-width="2" d="M658,-396C658,-396 590,-396 590,-396 584,-396 578,-390 578,-384 578,-384 578,-372 578,-372 578,-366 584,-360 590,-360 590,-360 658,-360 658,-360 664,-360 670,-366 670,-372 670,-372 670,-384 670,-384 670,-390 664,-396 658,-396"/>
<text text-anchor="middle" x="624" y="-375.5" font-family="sans" font-size="10.00">train_backward</text>
</g>
<!-- 1&#45;&gt;26 -->
<g id="edge44" class="edge">
<title>1&#45;&gt;26</title>
<path fill="none" stroke="grey" stroke-width="2" d="M300.25,-434.22C303.19,-433.41 306.13,-432.66 309,-432 419.56,-406.49 453.28,-420.49 568.06,-395.99"/>
<polygon fill="grey" stroke="grey" stroke-width="2" points="568.91,-399.39 577.93,-393.83 567.42,-392.55 568.91,-399.39"/>
</g>
<!-- 31 -->
<g id="node32" class="node">
<title>31</title>
<path fill="none" stroke="#d89c56" stroke-width="2" d="M792.5,-108C792.5,-108 735.5,-108 735.5,-108 729.5,-108 723.5,-102 723.5,-96 723.5,-96 723.5,-84 723.5,-84 723.5,-78 729.5,-72 735.5,-72 735.5,-72 792.5,-72 792.5,-72 798.5,-72 804.5,-78 804.5,-84 804.5,-84 804.5,-96 804.5,-96 804.5,-102 798.5,-108 792.5,-108"/>
<text text-anchor="middle" x="764" y="-87.5" font-family="sans" font-size="10.00">train_student</text>
</g>
<!-- 1&#45;&gt;31 -->
<g id="edge55" class="edge">
<title>1&#45;&gt;31</title>
<path fill="none" stroke="grey" stroke-width="2" d="M295.46,-431.9C316,-422.24 341.43,-409.43 363,-396 511.51,-303.52 672.75,-169.36 736.17,-115.11"/>
<polygon fill="grey" stroke="grey" stroke-width="2" points="738.8,-117.46 744.11,-108.3 734.24,-112.15 738.8,-117.46"/>
</g>
<!-- 2 -->
<g id="node3" class="node">
<title>2</title>
<path fill="none" stroke="#56d8c9" stroke-width="2" d="M98,-545C98,-545 12,-545 12,-545 6,-545 0,-539 0,-533 0,-533 0,-516 0,-516 0,-510 6,-504 12,-504 12,-504 98,-504 98,-504 104,-504 110,-510 110,-516 110,-516 110,-533 110,-533 110,-539 104,-545 98,-545"/>
<text text-anchor="middle" x="55" y="-533" font-family="sans" font-size="10.00">download_corpus</text>
<text text-anchor="middle" x="55" y="-522" font-family="sans" font-size="10.00">dataset: flores_dev</text>
<text text-anchor="middle" x="55" y="-511" font-family="sans" font-size="10.00">kind: devset</text>
</g>
<!-- 2&#45;&gt;1 -->
<g id="edge7" class="edge">
<title>2&#45;&gt;1</title>
<path fill="none" stroke="grey" stroke-width="2" d="M109.4,-503.98C138.79,-493.43 174.94,-480.45 204.1,-469.99"/>
<polygon fill="grey" stroke="grey" stroke-width="2" points="205.47,-473.21 213.7,-466.54 203.11,-466.62 205.47,-473.21"/>
</g>
<!-- 3 -->
<g id="node4" class="node">
<title>3</title>
<path fill="none" stroke="#56d8c9" stroke-width="2" d="M262,-545C262,-545 140,-545 140,-545 134,-545 128,-539 128,-533 128,-533 128,-516 128,-516 128,-510 134,-504 140,-504 140,-504 262,-504 262,-504 268,-504 274,-510 274,-516 274,-516 274,-533 274,-533 274,-539 268,-545 262,-545"/>
<text text-anchor="middle" x="201" y="-533" font-family="sans" font-size="10.00">download_corpus</text>
<text text-anchor="middle" x="201" y="-522" font-family="sans" font-size="10.00">dataset: sacrebleu_wmt19</text>
<text text-anchor="middle" x="201" y="-511" font-family="sans" font-size="10.00">kind: devset</text>
</g>
<!-- 3&#45;&gt;1 -->
<g id="edge8" class="edge">
<title>3&#45;&gt;1</title>
<path fill="none" stroke="grey" stroke-width="2" d="M216.3,-503.69C222.78,-495.3 230.41,-485.42 237.3,-476.5"/>
<polygon fill="grey" stroke="grey" stroke-width="2" points="240.28,-478.37 243.62,-468.32 234.74,-474.09 240.28,-478.37"/>
</g>
<!-- 4 -->
<g id="node5" class="node">
<title>4</title>
<path fill="none" stroke="#567bd8" stroke-width="2" d="M436,-689C436,-689 346,-689 346,-689 340,-689 334,-683 334,-677 334,-677 334,-665 334,-665 334,-659 340,-653 346,-653 346,-653 436,-653 436,-653 442,-653 448,-659 448,-665 448,-665 448,-677 448,-677 448,-683 442,-689 436,-689"/>
<text text-anchor="middle" x="391" y="-668.5" font-family="sans" font-size="10.00">compile_preprocess</text>
</g>
<!-- 4&#45;&gt;1 -->
<g id="edge9" class="edge">
<title>4&#45;&gt;1</title>
<path fill="none" stroke="grey" stroke-width="2" d="M380.49,-652.82C357.05,-614.52 300.43,-521.97 272.75,-476.75"/>
<polygon fill="grey" stroke="grey" stroke-width="2" points="275.67,-474.81 267.47,-468.1 269.7,-478.46 275.67,-474.81"/>
</g>
<!-- 7 -->
<g id="node8" class="node">
<title>7</title>
<path fill="none" stroke="#68d856" stroke-width="2" d="M547.5,-396C547.5,-396 468.5,-396 468.5,-396 462.5,-396 456.5,-390 456.5,-384 456.5,-384 456.5,-372 456.5,-372 456.5,-366 462.5,-360 468.5,-360 468.5,-360 547.5,-360 547.5,-360 553.5,-360 559.5,-366 559.5,-372 559.5,-372 559.5,-384 559.5,-384 559.5,-390 553.5,-396 547.5,-396"/>
<text text-anchor="middle" x="508" y="-375.5" font-family="sans" font-size="10.00">merge_translated</text>
</g>
<!-- 4&#45;&gt;7 -->
<g id="edge14" class="edge">
<title>4&#45;&gt;7</title>
<path fill="none" stroke="grey" stroke-width="2" d="M397.97,-652.67C417.64,-603.74 473.7,-464.31 497.31,-405.59"/>
<polygon fill="grey" stroke="grey" stroke-width="2" points="500.58,-406.82 501.07,-396.24 494.09,-404.21 500.58,-406.82"/>
</g>
<!-- 8 -->
<g id="node9" class="node">
<title>8</title>
<path fill="none" stroke="#56d0d8" stroke-width="2" d="M640,-617C640,-617 578,-617 578,-617 572,-617 566,-611 566,-605 566,-605 566,-593 566,-593 566,-587 572,-581 578,-581 578,-581 640,-581 640,-581 646,-581 652,-587 652,-593 652,-593 652,-605 652,-605 652,-611 646,-617 640,-617"/>
<text text-anchor="middle" x="609" y="-596.5" font-family="sans" font-size="10.00">merge_corpus</text>
</g>
<!-- 4&#45;&gt;8 -->
<g id="edge20" class="edge">
<title>4&#45;&gt;8</title>
<path fill="none" stroke="grey" stroke-width="2" d="M444.05,-652.97C478.12,-642.03 522.19,-627.87 556.21,-616.95"/>
<polygon fill="grey" stroke="grey" stroke-width="2" points="557.52,-620.21 565.97,-613.82 555.38,-613.54 557.52,-620.21"/>
</g>
<!-- 20 -->
<g id="node21" class="node">
<title>20</title>
<path fill="none" stroke="#afd856" stroke-width="2" d="M532.5,-617C532.5,-617 475.5,-617 475.5,-617 469.5,-617 463.5,-611 463.5,-605 463.5,-605 463.5,-593 463.5,-593 463.5,-587 469.5,-581 475.5,-581 475.5,-581 532.5,-581 532.5,-581 538.5,-581 544.5,-587 544.5,-593 544.5,-593 544.5,-605 544.5,-605 544.5,-611 538.5,-617 532.5,-617"/>
<text text-anchor="middle" x="504" y="-596.5" font-family="sans" font-size="10.00">merge_mono</text>
</g>
<!-- 4&#45;&gt;20 -->
<g id="edge35" class="edge">
<title>4&#45;&gt;20</title>
<path fill="none" stroke="grey" stroke-width="2" d="M418.64,-652.88C433.42,-643.72 451.79,-632.34 467.7,-622.48"/>
<polygon fill="grey" stroke="grey" stroke-width="2" points="469.59,-625.43 476.25,-617.19 465.91,-619.48 469.59,-625.43"/>
</g>
<!-- 24 -->
<g id="node25" class="node">
<title>24</title>
<path fill="none" stroke="#d6d856" stroke-width="2" d="M408,-542.5C408,-542.5 342,-542.5 342,-542.5 336,-542.5 330,-536.5 330,-530.5 330,-530.5 330,-518.5 330,-518.5 330,-512.5 336,-506.5 342,-506.5 342,-506.5 408,-506.5 408,-506.5 414,-506.5 420,-512.5 420,-518.5 420,-518.5 420,-530.5 420,-530.5 420,-536.5 414,-542.5 408,-542.5"/>
<text text-anchor="middle" x="375" y="-522" font-family="sans" font-size="10.00">split_mono_src</text>
</g>
<!-- 4&#45;&gt;24 -->
<g id="edge39" class="edge">
<title>4&#45;&gt;24</title>
<path fill="none" stroke="grey" stroke-width="2" d="M389.1,-652.86C386.36,-628.09 381.26,-582.05 378,-552.63"/>
<polygon fill="grey" stroke="grey" stroke-width="2" points="381.48,-552.18 376.9,-542.62 374.52,-552.95 381.48,-552.18"/>
</g>
<!-- 5 -->
<g id="node6" class="node">
<title>5</title>
<path fill="none" stroke="#d87d56" stroke-width="2" d="M936,-542.5C936,-542.5 820,-542.5 820,-542.5 814,-542.5 808,-536.5 808,-530.5 808,-530.5 808,-518.5 808,-518.5 808,-512.5 814,-506.5 820,-506.5 820,-506.5 936,-506.5 936,-506.5 942,-506.5 948,-512.5 948,-518.5 948,-518.5 948,-530.5 948,-530.5 948,-536.5 942,-542.5 936,-542.5"/>
<text text-anchor="middle" x="878" y="-527.5" font-family="sans" font-size="10.00">marian</text>
<text text-anchor="middle" x="878" y="-516.5" font-family="sans" font-size="10.00">marian_type: marian&#45;dev</text>
</g>
<!-- 5&#45;&gt;0 -->
<g id="edge2" class="edge">
<title>5&#45;&gt;0</title>
<path fill="none" stroke="grey" stroke-width="2" d="M948.26,-510.26C1015.9,-492.97 1108,-455.39 1108,-379 1108,-379 1108,-379 1108,-161 1108,-92.97 892.46,-47.02 785.19,-28.37"/>
<polygon fill="grey" stroke="grey" stroke-width="2" points="785.61,-24.89 775.16,-26.65 784.42,-31.78 785.61,-24.89"/>
</g>
<!-- 25 -->
<g id="node26" class="node">
<title>25</title>
<path fill="none" stroke="#d86e56" stroke-width="2" d="M741,-324C741,-324 711,-324 711,-324 705,-324 699,-318 699,-312 699,-312 699,-300 699,-300 699,-294 705,-288 711,-288 711,-288 741,-288 741,-288 747,-288 753,-294 753,-300 753,-300 753,-312 753,-312 753,-318 747,-324 741,-324"/>
<text text-anchor="middle" x="726" y="-303.5" font-family="sans" font-size="10.00">score</text>
</g>
<!-- 5&#45;&gt;25 -->
<g id="edge40" class="edge">
<title>5&#45;&gt;25</title>
<path fill="none" stroke="grey" stroke-width="2" d="M866.24,-506.24C853.64,-487.81 833.03,-457.75 815,-432 790.81,-397.45 762.5,-357.82 744.41,-332.61"/>
<polygon fill="grey" stroke="grey" stroke-width="2" points="747.14,-330.41 738.47,-324.33 741.46,-334.49 747.14,-330.41"/>
</g>
<!-- 5&#45;&gt;26 -->
<g id="edge46" class="edge">
<title>5&#45;&gt;26</title>
<path fill="none" stroke="grey" stroke-width="2" d="M812.9,-506.39C784.19,-497.31 750.74,-484.55 723,-468 714.83,-463.12 676.18,-427.67 649.66,-403.01"/>
<polygon fill="grey" stroke="grey" stroke-width="2" points="651.9,-400.32 642.2,-396.06 647.13,-405.44 651.9,-400.32"/>
</g>
<!-- 27 -->
<g id="node28" class="node">
<title>27</title>
<path fill="none" stroke="#c6d856" stroke-width="2" d="M794,-468C794,-468 744,-468 744,-468 738,-468 732,-462 732,-456 732,-456 732,-444 732,-444 732,-438 738,-432 744,-432 744,-432 794,-432 794,-432 800,-432 806,-438 806,-444 806,-444 806,-456 806,-456 806,-462 800,-468 794,-468"/>
<text text-anchor="middle" x="769" y="-447.5" font-family="sans" font-size="10.00">train_vocab</text>
</g>
<!-- 5&#45;&gt;27 -->
<g id="edge48" class="edge">
<title>5&#45;&gt;27</title>
<path fill="none" stroke="grey" stroke-width="2" d="M852.17,-506.32C837.51,-496.57 818.98,-484.24 803.13,-473.7"/>
<polygon fill="grey" stroke="grey" stroke-width="2" points="804.91,-470.68 794.65,-468.06 801.03,-476.51 804.91,-470.68"/>
</g>
<!-- 28 -->
<g id="node29" class="node">
<title>28</title>
<path fill="none" stroke="#d85656" stroke-width="2" d="M908.5,-180C908.5,-180 861.5,-180 861.5,-180 855.5,-180 849.5,-174 849.5,-168 849.5,-168 849.5,-156 849.5,-156 849.5,-150 855.5,-144 861.5,-144 861.5,-144 908.5,-144 908.5,-144 914.5,-144 920.5,-150 920.5,-156 920.5,-156 920.5,-168 920.5,-168 920.5,-174 914.5,-180 908.5,-180"/>
<text text-anchor="middle" x="885" y="-159.5" font-family="sans" font-size="10.00">alignments</text>
</g>
<!-- 5&#45;&gt;28 -->
<g id="edge50" class="edge">
<title>5&#45;&gt;28</title>
<path fill="none" stroke="grey" stroke-width="2" d="M937.44,-506.41C993.82,-486.13 1070,-446.27 1070,-379 1070,-379 1070,-379 1070,-305 1070,-264.55 1078.15,-245.98 1051,-216 1020.46,-182.29 968.53,-169.89 930.87,-165.4"/>
<polygon fill="grey" stroke="grey" stroke-width="2" points="930.97,-161.9 920.66,-164.34 930.24,-168.86 930.97,-161.9"/>
</g>
<!-- 5&#45;&gt;31 -->
<g id="edge56" class="edge">
<title>5&#45;&gt;31</title>
<path fill="none" stroke="grey" stroke-width="2" d="M873.52,-506.48C859.45,-453.06 814.93,-284 778,-144 775.78,-135.59 773.36,-126.43 771.17,-118.12"/>
<polygon fill="grey" stroke="grey" stroke-width="2" points="774.48,-116.96 768.54,-108.19 767.71,-118.75 774.48,-116.96"/>
</g>
<!-- 6 -->
<g id="node7" class="node">
<title>6</title>
<path fill="none" stroke="#568ad8" stroke-width="2" d="M742,-252C742,-252 710,-252 710,-252 704,-252 698,-246 698,-240 698,-240 698,-228 698,-228 698,-222 704,-216 710,-216 710,-216 742,-216 742,-216 748,-216 754,-222 754,-228 754,-228 754,-240 754,-240 754,-246 748,-252 742,-252"/>
<text text-anchor="middle" x="726" y="-231.5" font-family="sans" font-size="10.00">ce_filter</text>
</g>
<!-- 6&#45;&gt;0 -->
<g id="edge3" class="edge">
<title>6&#45;&gt;0</title>
<path fill="none" stroke="grey" stroke-width="2" d="M722.87,-215.57C717.98,-186 709.65,-124.12 715,-72 715.88,-63.46 717.53,-54.26 719.29,-45.96"/>
<polygon fill="grey" stroke="grey" stroke-width="2" points="722.74,-46.57 721.54,-36.05 715.92,-45.03 722.74,-46.57"/>
</g>
<!-- 6&#45;&gt;28 -->
<g id="edge51" class="edge">
<title>6&#45;&gt;28</title>
<path fill="none" stroke="grey" stroke-width="2" d="M754.06,-220.65C777.83,-210.18 812.34,-194.99 839.97,-182.83"/>
<polygon fill="grey" stroke="grey" stroke-width="2" points="841.68,-185.9 849.42,-178.66 838.86,-179.49 841.68,-185.9"/>
</g>
<!-- 6&#45;&gt;31 -->
<g id="edge57" class="edge">
<title>6&#45;&gt;31</title>
<path fill="none" stroke="grey" stroke-width="2" d="M730.58,-215.87C737.09,-191.56 749.06,-146.82 756.77,-118.01"/>
<polygon fill="grey" stroke="grey" stroke-width="2" points="760.2,-118.75 759.4,-108.19 753.43,-116.94 760.2,-118.75"/>
</g>
<!-- 7&#45;&gt;6 -->
<g id="edge10" class="edge">
<title>7&#45;&gt;6</title>
<path fill="none" stroke="grey" stroke-width="2" d="M534.3,-359.87C573.5,-334.34 647.32,-286.25 691.03,-257.78"/>
<polygon fill="grey" stroke="grey" stroke-width="2" points="693.14,-260.58 699.61,-252.19 689.32,-254.71 693.14,-260.58"/>
</g>
<!-- 7&#45;&gt;25 -->
<g id="edge43" class="edge">
<title>7&#45;&gt;25</title>
<path fill="none" stroke="grey" stroke-width="2" d="M559.67,-362.16C603.17,-349.55 661.88,-332.23 685,-324 686.41,-323.5 687.83,-322.98 689.27,-322.44"/>
<polygon fill="grey" stroke="grey" stroke-width="2" points="690.75,-325.62 698.8,-318.73 688.22,-319.1 690.75,-325.62"/>
</g>
<!-- 8&#45;&gt;7 -->
<g id="edge12" class="edge">
<title>8&#45;&gt;7</title>
<path fill="none" stroke="grey" stroke-width="2" d="M584.43,-580.89C572.71,-571.54 559.44,-559.02 551,-545 524.53,-501.04 514.21,-441.03 510.3,-406.51"/>
<polygon fill="grey" stroke="grey" stroke-width="2" points="513.75,-405.84 509.24,-396.25 506.78,-406.56 513.75,-405.84"/>
</g>
<!-- 23 -->
<g id="node24" class="node">
<title>23</title>
<path fill="none" stroke="#d8b456" stroke-width="2" d="M622.5,-542.5C622.5,-542.5 571.5,-542.5 571.5,-542.5 565.5,-542.5 559.5,-536.5 559.5,-530.5 559.5,-530.5 559.5,-518.5 559.5,-518.5 559.5,-512.5 565.5,-506.5 571.5,-506.5 571.5,-506.5 622.5,-506.5 622.5,-506.5 628.5,-506.5 634.5,-512.5 634.5,-518.5 634.5,-518.5 634.5,-530.5 634.5,-530.5 634.5,-536.5 628.5,-542.5 622.5,-542.5"/>
<text text-anchor="middle" x="597" y="-522" font-family="sans" font-size="10.00">split_corpus</text>
</g>
<!-- 8&#45;&gt;23 -->
<g id="edge37" class="edge">
<title>8&#45;&gt;23</title>
<path fill="none" stroke="grey" stroke-width="2" d="M606.16,-580.82C604.77,-572.42 603.06,-562.12 601.5,-552.69"/>
<polygon fill="grey" stroke="grey" stroke-width="2" points="604.91,-551.85 599.82,-542.56 598,-553 604.91,-551.85"/>
</g>
<!-- 8&#45;&gt;26 -->
<g id="edge45" class="edge">
<title>8&#45;&gt;26</title>
<path fill="none" stroke="grey" stroke-width="2" d="M623.98,-580.64C631.47,-570.86 639.81,-558.02 644,-545 659.39,-497.17 657.21,-481.19 647,-432 645.12,-422.96 641.63,-413.58 637.91,-405.26"/>
<polygon fill="grey" stroke="grey" stroke-width="2" points="641,-403.6 633.54,-396.07 634.68,-406.61 641,-403.6"/>
</g>
<!-- 8&#45;&gt;27 -->
<g id="edge49" class="edge">
<title>8&#45;&gt;27</title>
<path fill="none" stroke="grey" stroke-width="2" d="M634.13,-580.84C648.09,-570.92 665.52,-557.88 680,-545 704.65,-523.08 730.29,-495.39 747.68,-475.76"/>
<polygon fill="grey" stroke="grey" stroke-width="2" points="750.41,-477.96 754.38,-468.14 745.15,-473.34 750.41,-477.96"/>
</g>
<!-- 9 -->
<g id="node10" class="node">
<title>9</title>
<path fill="none" stroke="#8fd856" stroke-width="2" d="M617,-689C617,-689 579,-689 579,-689 573,-689 567,-683 567,-677 567,-677 567,-665 567,-665 567,-659 573,-653 579,-653 579,-653 617,-653 617,-653 623,-653 629,-659 629,-665 629,-665 629,-677 629,-677 629,-683 623,-689 617,-689"/>
<text text-anchor="middle" x="598" y="-668.5" font-family="sans" font-size="10.00">bicleaner</text>
</g>
<!-- 9&#45;&gt;8 -->
<g id="edge17" class="edge">
<title>9&#45;&gt;8</title>
<path fill="none" stroke="grey" stroke-width="2" d="M600.72,-652.7C601.93,-644.98 603.39,-635.71 604.74,-627.11"/>
<polygon fill="grey" stroke="grey" stroke-width="2" points="608.22,-627.53 606.31,-617.1 601.3,-626.44 608.22,-627.53"/>
</g>
<!-- 10 -->
<g id="node11" class="node">
<title>10</title>
<path fill="none" stroke="#56b9d8" stroke-width="2" d="M655,-840.5C655,-840.5 625,-840.5 625,-840.5 619,-840.5 613,-834.5 613,-828.5 613,-828.5 613,-816.5 613,-816.5 613,-810.5 619,-804.5 625,-804.5 625,-804.5 655,-804.5 655,-804.5 661,-804.5 667,-810.5 667,-816.5 667,-816.5 667,-828.5 667,-828.5 667,-834.5 661,-840.5 655,-840.5"/>
<text text-anchor="middle" x="640" y="-820" font-family="sans" font-size="10.00">kenlm</text>
</g>
<!-- 10&#45;&gt;9 -->
<g id="edge21" class="edge">
<title>10&#45;&gt;9</title>
<path fill="none" stroke="grey" stroke-width="2" d="M624.08,-804.47C615.52,-794.17 605.77,-780.3 601,-766 593.79,-744.41 593.54,-718.46 594.81,-699.3"/>
<polygon fill="grey" stroke="grey" stroke-width="2" points="598.32,-699.41 595.67,-689.15 591.34,-698.82 598.32,-699.41"/>
</g>
<!-- 13 -->
<g id="node14" class="node">
<title>13</title>
<path fill="none" stroke="#59d856" stroke-width="2" d="M688,-763.5C688,-763.5 622,-763.5 622,-763.5 616,-763.5 610,-757.5 610,-751.5 610,-751.5 610,-739.5 610,-739.5 610,-733.5 616,-727.5 622,-727.5 622,-727.5 688,-727.5 688,-727.5 694,-727.5 700,-733.5 700,-739.5 700,-739.5 700,-751.5 700,-751.5 700,-757.5 694,-763.5 688,-763.5"/>
<text text-anchor="middle" x="655" y="-743" font-family="sans" font-size="10.00">bicleaner_pack</text>
</g>
<!-- 10&#45;&gt;13 -->
<g id="edge25" class="edge">
<title>10&#45;&gt;13</title>
<path fill="none" stroke="grey" stroke-width="2" d="M643.4,-804.48C645.23,-795.34 647.53,-783.86 649.59,-773.53"/>
<polygon fill="grey" stroke="grey" stroke-width="2" points="653.03,-774.2 651.56,-763.71 646.16,-772.83 653.03,-774.2"/>
</g>
<!-- 14 -->
<g id="node15" class="node">
<title>14</title>
<path fill="none" stroke="#8fd856" stroke-width="2" d="M854,-689C854,-689 816,-689 816,-689 810,-689 804,-683 804,-677 804,-677 804,-665 804,-665 804,-659 810,-653 816,-653 816,-653 854,-653 854,-653 860,-653 866,-659 866,-665 866,-665 866,-677 866,-677 866,-683 860,-689 854,-689"/>
<text text-anchor="middle" x="835" y="-668.5" font-family="sans" font-size="10.00">bicleaner</text>
</g>
<!-- 10&#45;&gt;14 -->
<g id="edge26" class="edge">
<title>10&#45;&gt;14</title>
<path fill="none" stroke="grey" stroke-width="2" d="M667.14,-805.76C670.08,-804.37 673.07,-803.08 676,-802 748.06,-775.44 796.68,-825.69 845,-766 860.08,-747.36 854.7,-719.38 847.29,-698.8"/>
<polygon fill="grey" stroke="grey" stroke-width="2" points="850.49,-697.38 843.57,-689.36 843.98,-699.94 850.49,-697.38"/>
</g>
<!-- 17 -->
<g id="node18" class="node">
<title>17</title>
<path fill="none" stroke="#8fd856" stroke-width="2" d="M730,-689C730,-689 692,-689 692,-689 686,-689 680,-683 680,-677 680,-677 680,-665 680,-665 680,-659 686,-653 692,-653 692,-653 730,-653 730,-653 736,-653 742,-659 742,-665 742,-665 742,-677 742,-677 742,-683 736,-689 730,-689"/>
<text text-anchor="middle" x="711" y="-668.5" font-family="sans" font-size="10.00">bicleaner</text>
</g>
<!-- 10&#45;&gt;17 -->
<g id="edge30" class="edge">
<title>10&#45;&gt;17</title>
<path fill="none" stroke="grey" stroke-width="2" d="M667.28,-807.43C682.52,-797.96 700.18,-783.93 709,-766 719.16,-745.36 718.74,-718.97 716.31,-699.4"/>
<polygon fill="grey" stroke="grey" stroke-width="2" points="719.74,-698.69 714.81,-689.32 712.82,-699.72 719.74,-698.69"/>
</g>
<!-- 11 -->
<g id="node12" class="node">
<title>11</title>
<path fill="none" stroke="#56a9d8" stroke-width="2" d="M542,-763.5C542,-763.5 486,-763.5 486,-763.5 480,-763.5 474,-757.5 474,-751.5 474,-751.5 474,-739.5 474,-739.5 474,-733.5 480,-727.5 486,-727.5 486,-727.5 542,-727.5 542,-727.5 548,-727.5 554,-733.5 554,-739.5 554,-739.5 554,-751.5 554,-751.5 554,-757.5 548,-763.5 542,-763.5"/>
<text text-anchor="middle" x="514" y="-743" font-family="sans" font-size="10.00">clean_corpus</text>
</g>
<!-- 11&#45;&gt;9 -->
<g id="edge22" class="edge">
<title>11&#45;&gt;9</title>
<path fill="none" stroke="grey" stroke-width="2" d="M533.91,-727.32C544.79,-717.93 558.43,-706.15 570.33,-695.88"/>
<polygon fill="grey" stroke="grey" stroke-width="2" points="572.95,-698.24 578.24,-689.06 568.38,-692.94 572.95,-698.24"/>
</g>
<!-- 12 -->
<g id="node13" class="node">
<title>12</title>
<path fill="none" stroke="#56d8c9" stroke-width="2" d="M568.5,-843C568.5,-843 459.5,-843 459.5,-843 453.5,-843 447.5,-837 447.5,-831 447.5,-831 447.5,-814 447.5,-814 447.5,-808 453.5,-802 459.5,-802 459.5,-802 568.5,-802 568.5,-802 574.5,-802 580.5,-808 580.5,-814 580.5,-814 580.5,-831 580.5,-831 580.5,-837 574.5,-843 568.5,-843"/>
<text text-anchor="middle" x="514" y="-831" font-family="sans" font-size="10.00">download_corpus</text>
<text text-anchor="middle" x="514" y="-820" font-family="sans" font-size="10.00">dataset: opus_ada83/v1</text>
<text text-anchor="middle" x="514" y="-809" font-family="sans" font-size="10.00">kind: corpus</text>
</g>
<!-- 12&#45;&gt;11 -->
<g id="edge24" class="edge">
<title>12&#45;&gt;11</title>
<path fill="none" stroke="grey" stroke-width="2" d="M514,-801.79C514,-793.31 514,-783.24 514,-774.04"/>
<polygon fill="grey" stroke="grey" stroke-width="2" points="517.5,-773.78 514,-763.78 510.5,-773.78 517.5,-773.78"/>
</g>
<!-- 13&#45;&gt;9 -->
<g id="edge23" class="edge">
<title>13&#45;&gt;9</title>
<path fill="none" stroke="grey" stroke-width="2" d="M641.49,-727.32C634.39,-718.29 625.56,-707.05 617.71,-697.07"/>
<polygon fill="grey" stroke="grey" stroke-width="2" points="620.34,-694.76 611.41,-689.06 614.84,-699.08 620.34,-694.76"/>
</g>
<!-- 13&#45;&gt;14 -->
<g id="edge28" class="edge">
<title>13&#45;&gt;14</title>
<path fill="none" stroke="grey" stroke-width="2" d="M697.66,-727.32C726.99,-715.51 765.69,-699.92 794.54,-688.3"/>
<polygon fill="grey" stroke="grey" stroke-width="2" points="795.94,-691.5 803.91,-684.52 793.33,-685.01 795.94,-691.5"/>
</g>
<!-- 13&#45;&gt;17 -->
<g id="edge32" class="edge">
<title>13&#45;&gt;17</title>
<path fill="none" stroke="grey" stroke-width="2" d="M668.27,-727.32C675.25,-718.29 683.92,-707.05 691.63,-697.07"/>
<polygon fill="grey" stroke="grey" stroke-width="2" points="694.48,-699.11 697.82,-689.06 688.94,-694.83 694.48,-699.11"/>
</g>
<!-- 14&#45;&gt;8 -->
<g id="edge18" class="edge">
<title>14&#45;&gt;8</title>
<path fill="none" stroke="grey" stroke-width="2" d="M803.58,-660.27C766.93,-648.92 705.77,-629.97 661.8,-616.35"/>
<polygon fill="grey" stroke="grey" stroke-width="2" points="662.72,-612.98 652.13,-613.36 660.65,-619.66 662.72,-612.98"/>
</g>
<!-- 15 -->
<g id="node16" class="node">
<title>15</title>
<path fill="none" stroke="#56a9d8" stroke-width="2" d="M1008,-763.5C1008,-763.5 952,-763.5 952,-763.5 946,-763.5 940,-757.5 940,-751.5 940,-751.5 940,-739.5 940,-739.5 940,-733.5 946,-727.5 952,-727.5 952,-727.5 1008,-727.5 1008,-727.5 1014,-727.5 1020,-733.5 1020,-739.5 1020,-739.5 1020,-751.5 1020,-751.5 1020,-757.5 1014,-763.5 1008,-763.5"/>
<text text-anchor="middle" x="980" y="-743" font-family="sans" font-size="10.00">clean_corpus</text>
</g>
<!-- 15&#45;&gt;14 -->
<g id="edge27" class="edge">
<title>15&#45;&gt;14</title>
<path fill="none" stroke="grey" stroke-width="2" d="M945.64,-727.32C924.53,-716.77 897.4,-703.2 875.29,-692.14"/>
<polygon fill="grey" stroke="grey" stroke-width="2" points="876.66,-688.92 866.15,-687.58 873.53,-695.18 876.66,-688.92"/>
</g>
<!-- 16 -->
<g id="node17" class="node">
<title>16</title>
<path fill="none" stroke="#56d8c9" stroke-width="2" d="M1087,-843C1087,-843 971,-843 971,-843 965,-843 959,-837 959,-831 959,-831 959,-814 959,-814 959,-808 965,-802 971,-802 971,-802 1087,-802 1087,-802 1093,-802 1099,-808 1099,-814 1099,-814 1099,-831 1099,-831 1099,-837 1093,-843 1087,-843"/>
<text text-anchor="middle" x="1029" y="-831" font-family="sans" font-size="10.00">download_corpus</text>
<text text-anchor="middle" x="1029" y="-820" font-family="sans" font-size="10.00">dataset: opus_GNOME/v1</text>
<text text-anchor="middle" x="1029" y="-809" font-family="sans" font-size="10.00">kind: corpus</text>
</g>
<!-- 16&#45;&gt;15 -->
<g id="edge29" class="edge">
<title>16&#45;&gt;15</title>
<path fill="none" stroke="grey" stroke-width="2" d="M1016.13,-801.79C1010.22,-792.76 1003.14,-781.92 996.82,-772.25"/>
<polygon fill="grey" stroke="grey" stroke-width="2" points="999.69,-770.23 991.29,-763.78 993.83,-774.06 999.69,-770.23"/>
</g>
<!-- 17&#45;&gt;8 -->
<g id="edge19" class="edge">
<title>17&#45;&gt;8</title>
<path fill="none" stroke="grey" stroke-width="2" d="M686.05,-652.88C672.96,-643.89 656.74,-632.76 642.56,-623.03"/>
<polygon fill="grey" stroke="grey" stroke-width="2" points="644.27,-619.96 634.05,-617.19 640.31,-625.73 644.27,-619.96"/>
</g>
<!-- 18 -->
<g id="node19" class="node">
<title>18</title>
<path fill="none" stroke="#56a9d8" stroke-width="2" d="M824,-763.5C824,-763.5 768,-763.5 768,-763.5 762,-763.5 756,-757.5 756,-751.5 756,-751.5 756,-739.5 756,-739.5 756,-733.5 762,-727.5 768,-727.5 768,-727.5 824,-727.5 824,-727.5 830,-727.5 836,-733.5 836,-739.5 836,-739.5 836,-751.5 836,-751.5 836,-757.5 830,-763.5 824,-763.5"/>
<text text-anchor="middle" x="796" y="-743" font-family="sans" font-size="10.00">clean_corpus</text>
</g>
<!-- 18&#45;&gt;17 -->
<g id="edge31" class="edge">
<title>18&#45;&gt;17</title>
<path fill="none" stroke="grey" stroke-width="2" d="M775.86,-727.32C764.74,-717.84 750.77,-705.93 738.65,-695.58"/>
<polygon fill="grey" stroke="grey" stroke-width="2" points="740.88,-692.88 731,-689.06 736.34,-698.21 740.88,-692.88"/>
</g>
<!-- 19 -->
<g id="node20" class="node">
<title>19</title>
<path fill="none" stroke="#56d8c9" stroke-width="2" d="M929,-843C929,-843 697,-843 697,-843 691,-843 685,-837 685,-831 685,-831 685,-814 685,-814 685,-808 691,-802 697,-802 697,-802 929,-802 929,-802 935,-802 941,-808 941,-814 941,-814 941,-831 941,-831 941,-837 935,-843 929,-843"/>
<text text-anchor="middle" x="813" y="-831" font-family="sans" font-size="10.00">download_corpus</text>
<text text-anchor="middle" x="813" y="-820" font-family="sans" font-size="10.00">dataset: mtdata_Neulab&#45;tedtalks_train&#45;1&#45;eng&#45;rus</text>
<text text-anchor="middle" x="813" y="-809" font-family="sans" font-size="10.00">kind: corpus</text>
</g>
<!-- 19&#45;&gt;18 -->
<g id="edge33" class="edge">
<title>19&#45;&gt;18</title>
<path fill="none" stroke="grey" stroke-width="2" d="M808.53,-801.79C806.59,-793.22 804.28,-783.02 802.17,-773.74"/>
<polygon fill="grey" stroke="grey" stroke-width="2" points="805.54,-772.76 799.92,-763.78 798.71,-774.3 805.54,-772.76"/>
</g>
<!-- 20&#45;&gt;7 -->
<g id="edge13" class="edge">
<title>20&#45;&gt;7</title>
<path fill="none" stroke="grey" stroke-width="2" d="M504.31,-580.82C505.01,-542.92 506.67,-451.9 507.5,-406.18"/>
<polygon fill="grey" stroke="grey" stroke-width="2" points="511,-406.17 507.69,-396.1 504.01,-406.04 511,-406.17"/>
</g>
<!-- 20&#45;&gt;24 -->
<g id="edge38" class="edge">
<title>20&#45;&gt;24</title>
<path fill="none" stroke="grey" stroke-width="2" d="M473.43,-580.82C455.68,-570.84 433.13,-558.17 414.1,-547.47"/>
<polygon fill="grey" stroke="grey" stroke-width="2" points="415.78,-544.41 405.35,-542.56 412.35,-550.51 415.78,-544.41"/>
</g>
<!-- 21 -->
<g id="node22" class="node">
<title>21</title>
<path fill="none" stroke="#56d882" stroke-width="2" d="M530,-689C530,-689 478,-689 478,-689 472,-689 466,-683 466,-677 466,-677 466,-665 466,-665 466,-659 472,-653 478,-653 478,-653 530,-653 530,-653 536,-653 542,-659 542,-665 542,-665 542,-677 542,-677 542,-683 536,-689 530,-689"/>
<text text-anchor="middle" x="504" y="-668.5" font-family="sans" font-size="10.00">clean_mono</text>
</g>
<!-- 21&#45;&gt;20 -->
<g id="edge34" class="edge">
<title>21&#45;&gt;20</title>
<path fill="none" stroke="grey" stroke-width="2" d="M504,-652.7C504,-644.98 504,-635.71 504,-627.11"/>
<polygon fill="grey" stroke="grey" stroke-width="2" points="507.5,-627.1 504,-617.1 500.5,-627.1 507.5,-627.1"/>
</g>
<!-- 22 -->
<g id="node23" class="node">
<title>22</title>
<path fill="none" stroke="#56c1d8" stroke-width="2" d="M443.5,-766C443.5,-766 294.5,-766 294.5,-766 288.5,-766 282.5,-760 282.5,-754 282.5,-754 282.5,-737 282.5,-737 282.5,-731 288.5,-725 294.5,-725 294.5,-725 443.5,-725 443.5,-725 449.5,-725 455.5,-731 455.5,-737 455.5,-737 455.5,-754 455.5,-754 455.5,-760 449.5,-766 443.5,-766"/>
<text text-anchor="middle" x="369" y="-754" font-family="sans" font-size="10.00">download_mono</text>
<text text-anchor="middle" x="369" y="-743" font-family="sans" font-size="10.00">dataset: news&#45;crawl_news.2020</text>
<text text-anchor="middle" x="369" y="-732" font-family="sans" font-size="10.00">lang: ru</text>
</g>
<!-- 22&#45;&gt;21 -->
<g id="edge36" class="edge">
<title>22&#45;&gt;21</title>
<path fill="none" stroke="grey" stroke-width="2" d="M405.53,-724.88C423.3,-715.34 444.73,-703.83 463.05,-693.99"/>
<polygon fill="grey" stroke="grey" stroke-width="2" points="464.88,-696.98 472.03,-689.17 461.57,-690.81 464.88,-696.98"/>
</g>
<!-- 32 -->
<g id="node33" class="node">
<title>32</title>
<path fill="none" stroke="#d88556" stroke-width="2" d="M626,-468C626,-468 564,-468 564,-468 558,-468 552,-462 552,-456 552,-456 552,-444 552,-444 552,-438 558,-432 564,-432 564,-432 626,-432 626,-432 632,-432 638,-438 638,-444 638,-444 638,-456 638,-456 638,-462 632,-468 626,-468"/>
<text text-anchor="middle" x="595" y="-447.5" font-family="sans" font-size="10.00">collect_corpus</text>
</g>
<!-- 23&#45;&gt;32 -->
<g id="edge60" class="edge">
<title>23&#45;&gt;32</title>
<path fill="none" stroke="grey" stroke-width="2" d="M596.53,-506.32C596.29,-497.92 596.01,-487.62 595.75,-478.19"/>
<polygon fill="grey" stroke="grey" stroke-width="2" points="599.25,-477.96 595.47,-468.06 592.25,-478.15 599.25,-477.96"/>
</g>
<!-- 33 -->
<g id="node34" class="node">
<title>33</title>
<path fill="none" stroke="#56d86b" stroke-width="2" d="M407.5,-468C407.5,-468 330.5,-468 330.5,-468 324.5,-468 318.5,-462 318.5,-456 318.5,-456 318.5,-444 318.5,-444 318.5,-438 324.5,-432 330.5,-432 330.5,-432 407.5,-432 407.5,-432 413.5,-432 419.5,-438 419.5,-444 419.5,-444 419.5,-456 419.5,-456 419.5,-462 413.5,-468 407.5,-468"/>
<text text-anchor="middle" x="369" y="-447.5" font-family="sans" font-size="10.00">collect_mono_src</text>
</g>
<!-- 24&#45;&gt;33 -->
<g id="edge61" class="edge">
<title>24&#45;&gt;33</title>
<path fill="none" stroke="grey" stroke-width="2" d="M373.58,-506.32C372.88,-497.92 372.03,-487.62 371.25,-478.19"/>
<polygon fill="grey" stroke="grey" stroke-width="2" points="374.72,-477.74 370.41,-468.06 367.75,-478.31 374.72,-477.74"/>
</g>
<!-- 25&#45;&gt;6 -->
<g id="edge11" class="edge">
<title>25&#45;&gt;6</title>
<path fill="none" stroke="grey" stroke-width="2" d="M726,-287.7C726,-279.98 726,-270.71 726,-262.11"/>
<polygon fill="grey" stroke="grey" stroke-width="2" points="729.5,-262.1 726,-252.1 722.5,-262.1 729.5,-262.1"/>
</g>
<!-- 26&#45;&gt;25 -->
<g id="edge41" class="edge">
<title>26&#45;&gt;25</title>
<path fill="none" stroke="grey" stroke-width="2" d="M648.95,-359.88C662.04,-350.89 678.26,-339.76 692.44,-330.03"/>
<polygon fill="grey" stroke="grey" stroke-width="2" points="694.69,-332.73 700.95,-324.19 690.73,-326.96 694.69,-332.73"/>
</g>
<!-- 27&#45;&gt;0 -->
<g id="edge6" class="edge">
<title>27&#45;&gt;0</title>
<path fill="none" stroke="grey" stroke-width="2" d="M753.79,-431.92C734.64,-409.18 702.72,-366.82 690,-324 660.4,-224.36 696.75,-99.62 715.78,-45.77"/>
<polygon fill="grey" stroke="grey" stroke-width="2" points="719.11,-46.87 719.22,-36.27 712.53,-44.48 719.11,-46.87"/>
</g>
<!-- 27&#45;&gt;25 -->
<g id="edge42" class="edge">
<title>27&#45;&gt;25</title>
<path fill="none" stroke="grey" stroke-width="2" d="M763.81,-431.87C756.45,-407.56 742.9,-362.82 734.18,-334.01"/>
<polygon fill="grey" stroke="grey" stroke-width="2" points="737.45,-332.75 731.21,-324.19 730.75,-334.77 737.45,-332.75"/>
</g>
<!-- 27&#45;&gt;26 -->
<g id="edge47" class="edge">
<title>27&#45;&gt;26</title>
<path fill="none" stroke="grey" stroke-width="2" d="M733.53,-431.88C713.88,-422.39 689.28,-410.51 668.37,-400.42"/>
<polygon fill="grey" stroke="grey" stroke-width="2" points="669.88,-397.26 659.36,-396.07 666.84,-403.57 669.88,-397.26"/>
</g>
<!-- 27&#45;&gt;28 -->
<g id="edge52" class="edge">
<title>27&#45;&gt;28</title>
<path fill="none" stroke="grey" stroke-width="2" d="M793.17,-431.83C804.69,-422.47 817.73,-409.95 826,-396 846.75,-360.99 870.13,-244.06 880.09,-190.37"/>
<polygon fill="grey" stroke="grey" stroke-width="2" points="883.59,-190.69 881.95,-180.22 876.7,-189.43 883.59,-190.69"/>
</g>
<!-- 27&#45;&gt;31 -->
<g id="edge59" class="edge">
<title>27&#45;&gt;31</title>
<path fill="none" stroke="grey" stroke-width="2" d="M768.76,-431.73C767.96,-374.19 765.36,-188.66 764.38,-118.35"/>
<polygon fill="grey" stroke="grey" stroke-width="2" points="767.88,-118.04 764.24,-108.09 760.88,-118.14 767.88,-118.04"/>
</g>
<!-- 28&#45;&gt;0 -->
<g id="edge4" class="edge">
<title>28&#45;&gt;0</title>
<path fill="none" stroke="grey" stroke-width="2" d="M873.99,-143.75C861.2,-124.63 838.67,-93.63 814,-72 800.67,-60.32 784.43,-49.72 769.55,-41.12"/>
<polygon fill="grey" stroke="grey" stroke-width="2" points="770.93,-37.88 760.49,-36.04 767.5,-43.98 770.93,-37.88"/>
</g>
<!-- 28&#45;&gt;31 -->
<g id="edge58" class="edge">
<title>28&#45;&gt;31</title>
<path fill="none" stroke="grey" stroke-width="2" d="M855.4,-143.88C839.43,-134.64 819.54,-123.13 802.39,-113.21"/>
<polygon fill="grey" stroke="grey" stroke-width="2" points="804.12,-110.17 793.71,-108.19 800.62,-116.23 804.12,-110.17"/>
</g>
<!-- 29 -->
<g id="node30" class="node">
<title>29</title>
<path fill="none" stroke="#d8d356" stroke-width="2" d="M940.5,-252C940.5,-252 899.5,-252 899.5,-252 893.5,-252 887.5,-246 887.5,-240 887.5,-240 887.5,-228 887.5,-228 887.5,-222 893.5,-216 899.5,-216 899.5,-216 940.5,-216 940.5,-216 946.5,-216 952.5,-222 952.5,-228 952.5,-228 952.5,-240 952.5,-240 952.5,-246 946.5,-252 940.5,-252"/>
<text text-anchor="middle" x="920" y="-231.5" font-family="sans" font-size="10.00">fast_align</text>
</g>
<!-- 29&#45;&gt;28 -->
<g id="edge53" class="edge">
<title>29&#45;&gt;28</title>
<path fill="none" stroke="grey" stroke-width="2" d="M911.35,-215.7C907.36,-207.73 902.55,-198.1 898.13,-189.26"/>
<polygon fill="grey" stroke="grey" stroke-width="2" points="901.15,-187.48 893.55,-180.1 894.89,-190.61 901.15,-187.48"/>
</g>
<!-- 30 -->
<g id="node31" class="node">
<title>30</title>
<path fill="none" stroke="#56d8d8" stroke-width="2" d="M1029.5,-252C1029.5,-252 982.5,-252 982.5,-252 976.5,-252 970.5,-246 970.5,-240 970.5,-240 970.5,-228 970.5,-228 970.5,-222 976.5,-216 982.5,-216 982.5,-216 1029.5,-216 1029.5,-216 1035.5,-216 1041.5,-222 1041.5,-228 1041.5,-228 1041.5,-240 1041.5,-240 1041.5,-246 1035.5,-252 1029.5,-252"/>
<text text-anchor="middle" x="1006" y="-231.5" font-family="sans" font-size="10.00">extract_lex</text>
</g>
<!-- 30&#45;&gt;28 -->
<g id="edge54" class="edge">
<title>30&#45;&gt;28</title>
<path fill="none" stroke="grey" stroke-width="2" d="M976.4,-215.88C960.43,-206.64 940.54,-195.13 923.39,-185.21"/>
<polygon fill="grey" stroke="grey" stroke-width="2" points="925.12,-182.17 914.71,-180.19 921.62,-188.23 925.12,-182.17"/>
</g>
<!-- 31&#45;&gt;0 -->
<g id="edge5" class="edge">
<title>31&#45;&gt;0</title>
<path fill="none" stroke="grey" stroke-width="2" d="M754.61,-71.7C750.24,-63.64 744.94,-53.89 740.1,-44.98"/>
<polygon fill="grey" stroke="grey" stroke-width="2" points="743.13,-43.22 735.29,-36.1 736.98,-46.56 743.13,-43.22"/>
</g>
<!-- 32&#45;&gt;7 -->
<g id="edge15" class="edge">
<title>32&#45;&gt;7</title>
<path fill="none" stroke="grey" stroke-width="2" d="M573.49,-431.7C562.54,-422.88 549.05,-412.03 537.18,-402.47"/>
<polygon fill="grey" stroke="grey" stroke-width="2" points="539.24,-399.65 529.26,-396.1 534.86,-405.1 539.24,-399.65"/>
</g>
<!-- 33&#45;&gt;7 -->
<g id="edge16" class="edge">
<title>33&#45;&gt;7</title>
<path fill="none" stroke="grey" stroke-width="2" d="M403,-431.88C421.6,-422.51 444.83,-410.81 464.71,-400.8"/>
<polygon fill="grey" stroke="grey" stroke-width="2" points="466.51,-403.81 473.87,-396.19 463.36,-397.56 466.51,-403.81"/>
</g>
</g>
</svg>
