<?xml version="1.0" encoding="UTF-8" standalone="no"?>
<!DOCTYPE svg PUBLIC "-//W3C//DTD SVG 1.1//EN"
 "http://www.w3.org/Graphics/SVG/1.1/DTD/svg11.dtd">
<!-- Generated by graphviz version 2.43.0 (0)
 -->
<!-- Title: snakemake_dag Pages: 1 -->
<svg width="1193pt" height="635pt"
 viewBox="0.00 0.00 1192.50 635.00" xmlns="http://www.w3.org/2000/svg" xmlns:xlink="http://www.w3.org/1999/xlink">
<g id="graph0" class="graph" transform="scale(1 1) rotate(0) translate(4 631)">
<title>snakemake_dag</title>
<polygon fill="white" stroke="transparent" points="-4,4 -4,-631 1188.5,-631 1188.5,4 -4,4"/>
<!-- 0 -->
<g id="node1" class="node">
<title>0</title>
<path fill="none" stroke="#d8cb56" stroke-width="2" d="M655.5,-36C655.5,-36 551.5,-36 551.5,-36 545.5,-36 539.5,-30 539.5,-24 539.5,-24 539.5,-12 539.5,-12 539.5,-6 545.5,0 551.5,0 551.5,0 655.5,0 655.5,0 661.5,0 667.5,-6 667.5,-12 667.5,-12 667.5,-24 667.5,-24 667.5,-30 661.5,-36 655.5,-36"/>
<text text-anchor="middle" x="603.5" y="-15.5" font-family="sans" font-size="10.00">finetune_teacher_done</text>
</g>
<!-- 1 -->
<g id="node2" class="node">
<title>1</title>
<path fill="none" stroke="#d8c356" stroke-width="2" d="M582.5,-108C582.5,-108 508.5,-108 508.5,-108 502.5,-108 496.5,-102 496.5,-96 496.5,-96 496.5,-84 496.5,-84 496.5,-78 502.5,-72 508.5,-72 508.5,-72 582.5,-72 582.5,-72 588.5,-72 594.5,-78 594.5,-84 594.5,-84 594.5,-96 594.5,-96 594.5,-102 588.5,-108 582.5,-108"/>
<text text-anchor="middle" x="545.5" y="-87.5" font-family="sans" font-size="10.00">finetune_teacher</text>
</g>
<!-- 1&#45;&gt;0 -->
<g id="edge1" class="edge">
<title>1&#45;&gt;0</title>
<path fill="none" stroke="grey" stroke-width="2" d="M559.84,-71.7C566.79,-63.3 575.27,-53.07 582.9,-43.86"/>
<polygon fill="grey" stroke="grey" stroke-width="2" points="585.64,-46.04 589.33,-36.1 580.25,-41.57 585.64,-46.04"/>
</g>
<!-- 2 -->
<g id="node3" class="node">
<title>2</title>
<path fill="none" stroke="#d88556" stroke-width="2" d="M913.5,-252C913.5,-252 851.5,-252 851.5,-252 845.5,-252 839.5,-246 839.5,-240 839.5,-240 839.5,-228 839.5,-228 839.5,-222 845.5,-216 851.5,-216 851.5,-216 913.5,-216 913.5,-216 919.5,-216 925.5,-222 925.5,-228 925.5,-228 925.5,-240 925.5,-240 925.5,-246 919.5,-252 913.5,-252"/>
<text text-anchor="middle" x="882.5" y="-231.5" font-family="sans" font-size="10.00">merge_devset</text>
</g>
<!-- 2&#45;&gt;1 -->
<g id="edge3" class="edge">
<title>2&#45;&gt;1</title>
<path fill="none" stroke="grey" stroke-width="2" d="M873.42,-215.84C861.59,-195.28 838.9,-161.42 809.5,-144 735.19,-99.95 703.03,-125.8 618.5,-108 613.89,-107.03 609.12,-105.99 604.33,-104.93"/>
<polygon fill="grey" stroke="grey" stroke-width="2" points="605.05,-101.5 594.52,-102.72 603.51,-108.33 605.05,-101.5"/>
</g>
<!-- 6 -->
<g id="node7" class="node">
<title>6</title>
<path fill="none" stroke="#d89556" stroke-width="2" d="M651,-180C651,-180 594,-180 594,-180 588,-180 582,-174 582,-168 582,-168 582,-156 582,-156 582,-150 588,-144 594,-144 594,-144 651,-144 651,-144 657,-144 663,-150 663,-156 663,-156 663,-168 663,-168 663,-174 657,-180 651,-180"/>
<text text-anchor="middle" x="622.5" y="-165" font-family="sans" font-size="10.00">train_teacher</text>
<text text-anchor="middle" x="622.5" y="-154" font-family="sans" font-size="10.00">ens: 0</text>
</g>
<!-- 2&#45;&gt;6 -->
<g id="edge11" class="edge">
<title>2&#45;&gt;6</title>
<path fill="none" stroke="grey" stroke-width="2" d="M839.47,-218.96C836.1,-217.93 832.75,-216.94 829.5,-216 776.37,-200.69 714.94,-185.24 672.88,-175.01"/>
<polygon fill="grey" stroke="grey" stroke-width="2" points="673.69,-171.6 663.15,-172.65 672.04,-178.41 673.69,-171.6"/>
</g>
<!-- 26 -->
<g id="node27" class="node">
<title>26</title>
<path fill="none" stroke="#d8c356" stroke-width="2" d="M713.5,-108C713.5,-108 639.5,-108 639.5,-108 633.5,-108 627.5,-102 627.5,-96 627.5,-96 627.5,-84 627.5,-84 627.5,-78 633.5,-72 639.5,-72 639.5,-72 713.5,-72 713.5,-72 719.5,-72 725.5,-78 725.5,-84 725.5,-84 725.5,-96 725.5,-96 725.5,-102 719.5,-108 713.5,-108"/>
<text text-anchor="middle" x="676.5" y="-87.5" font-family="sans" font-size="10.00">finetune_teacher</text>
</g>
<!-- 2&#45;&gt;26 -->
<g id="edge43" class="edge">
<title>2&#45;&gt;26</title>
<path fill="none" stroke="grey" stroke-width="2" d="M880.89,-215.78C878.11,-195.79 870.6,-163.13 850.5,-144 819.66,-114.65 773.04,-101.51 735.82,-95.65"/>
<polygon fill="grey" stroke="grey" stroke-width="2" points="735.99,-92.14 725.59,-94.19 734.99,-99.07 735.99,-92.14"/>
</g>
<!-- 27 -->
<g id="node28" class="node">
<title>27</title>
<path fill="none" stroke="#d89556" stroke-width="2" d="M789,-180C789,-180 732,-180 732,-180 726,-180 720,-174 720,-168 720,-168 720,-156 720,-156 720,-150 726,-144 732,-144 732,-144 789,-144 789,-144 795,-144 801,-150 801,-156 801,-156 801,-168 801,-168 801,-174 795,-180 789,-180"/>
<text text-anchor="middle" x="760.5" y="-165" font-family="sans" font-size="10.00">train_teacher</text>
<text text-anchor="middle" x="760.5" y="-154" font-family="sans" font-size="10.00">ens: 1</text>
</g>
<!-- 2&#45;&gt;27 -->
<g id="edge48" class="edge">
<title>2&#45;&gt;27</title>
<path fill="none" stroke="grey" stroke-width="2" d="M852.66,-215.88C836.56,-206.64 816.5,-195.13 799.21,-185.21"/>
<polygon fill="grey" stroke="grey" stroke-width="2" points="800.87,-182.13 790.46,-180.19 797.39,-188.2 800.87,-182.13"/>
</g>
<!-- 3 -->
<g id="node4" class="node">
<title>3</title>
<path fill="none" stroke="#d6d856" stroke-width="2" d="M1008.5,-329C1008.5,-329 922.5,-329 922.5,-329 916.5,-329 910.5,-323 910.5,-317 910.5,-317 910.5,-300 910.5,-300 910.5,-294 916.5,-288 922.5,-288 922.5,-288 1008.5,-288 1008.5,-288 1014.5,-288 1020.5,-294 1020.5,-300 1020.5,-300 1020.5,-317 1020.5,-317 1020.5,-323 1014.5,-329 1008.5,-329"/>
<text text-anchor="middle" x="965.5" y="-317" font-family="sans" font-size="10.00">download_corpus</text>
<text text-anchor="middle" x="965.5" y="-306" font-family="sans" font-size="10.00">dataset: flores_dev</text>
<text text-anchor="middle" x="965.5" y="-295" font-family="sans" font-size="10.00">kind: devset</text>
</g>
<!-- 3&#45;&gt;2 -->
<g id="edge8" class="edge">
<title>3&#45;&gt;2</title>
<path fill="none" stroke="grey" stroke-width="2" d="M942.82,-287.69C932.65,-278.8 920.56,-268.24 909.88,-258.92"/>
<polygon fill="grey" stroke="grey" stroke-width="2" points="911.89,-256.02 902.05,-252.08 907.28,-261.29 911.89,-256.02"/>
</g>
<!-- 4 -->
<g id="node5" class="node">
<title>4</title>
<path fill="none" stroke="#d6d856" stroke-width="2" d="M1172.5,-329C1172.5,-329 1050.5,-329 1050.5,-329 1044.5,-329 1038.5,-323 1038.5,-317 1038.5,-317 1038.5,-300 1038.5,-300 1038.5,-294 1044.5,-288 1050.5,-288 1050.5,-288 1172.5,-288 1172.5,-288 1178.5,-288 1184.5,-294 1184.5,-300 1184.5,-300 1184.5,-317 1184.5,-317 1184.5,-323 1178.5,-329 1172.5,-329"/>
<text text-anchor="middle" x="1111.5" y="-317" font-family="sans" font-size="10.00">download_corpus</text>
<text text-anchor="middle" x="1111.5" y="-306" font-family="sans" font-size="10.00">dataset: sacrebleu_wmt19</text>
<text text-anchor="middle" x="1111.5" y="-295" font-family="sans" font-size="10.00">kind: devset</text>
</g>
<!-- 4&#45;&gt;2 -->
<g id="edge9" class="edge">
<title>4&#45;&gt;2</title>
<path fill="none" stroke="grey" stroke-width="2" d="M1049.83,-287.98C1014.14,-276.68 969.68,-262.6 935.56,-251.8"/>
<polygon fill="grey" stroke="grey" stroke-width="2" points="936.37,-248.38 925.78,-248.7 934.26,-255.06 936.37,-248.38"/>
</g>
<!-- 5 -->
<g id="node6" class="node">
<title>5</title>
<path fill="none" stroke="#567bd8" stroke-width="2" d="M773.5,-547.5C773.5,-547.5 683.5,-547.5 683.5,-547.5 677.5,-547.5 671.5,-541.5 671.5,-535.5 671.5,-535.5 671.5,-523.5 671.5,-523.5 671.5,-517.5 677.5,-511.5 683.5,-511.5 683.5,-511.5 773.5,-511.5 773.5,-511.5 779.5,-511.5 785.5,-517.5 785.5,-523.5 785.5,-523.5 785.5,-535.5 785.5,-535.5 785.5,-541.5 779.5,-547.5 773.5,-547.5"/>
<text text-anchor="middle" x="728.5" y="-527" font-family="sans" font-size="10.00">compile_preprocess</text>
</g>
<!-- 5&#45;&gt;2 -->
<g id="edge10" class="edge">
<title>5&#45;&gt;2</title>
<path fill="none" stroke="grey" stroke-width="2" d="M782.57,-511.42C813.44,-500.53 847.89,-486.06 857.5,-473 904.21,-409.54 895.43,-309.48 887.75,-261.88"/>
<polygon fill="grey" stroke="grey" stroke-width="2" points="891.19,-261.28 886.04,-252.02 884.3,-262.47 891.19,-261.28"/>
</g>
<!-- 7 -->
<g id="node8" class="node">
<title>7</title>
<path fill="none" stroke="#566bd8" stroke-width="2" d="M809,-252C809,-252 724,-252 724,-252 718,-252 712,-246 712,-240 712,-240 712,-228 712,-228 712,-222 718,-216 724,-216 724,-216 809,-216 809,-216 815,-216 821,-222 821,-228 821,-228 821,-240 821,-240 821,-246 815,-252 809,-252"/>
<text text-anchor="middle" x="766.5" y="-231.5" font-family="sans" font-size="10.00">merge_augmented</text>
</g>
<!-- 5&#45;&gt;7 -->
<g id="edge17" class="edge">
<title>5&#45;&gt;7</title>
<path fill="none" stroke="grey" stroke-width="2" d="M721.17,-511.2C704.99,-470.26 670.35,-365.09 705.5,-288 710.73,-276.53 719.8,-266.58 729.37,-258.5"/>
<polygon fill="grey" stroke="grey" stroke-width="2" points="731.75,-261.09 737.46,-252.16 727.43,-255.58 731.75,-261.09"/>
</g>
<!-- 8 -->
<g id="node9" class="node">
<title>8</title>
<path fill="none" stroke="#56d8b1" stroke-width="2" d="M479.5,-326.5C479.5,-326.5 417.5,-326.5 417.5,-326.5 411.5,-326.5 405.5,-320.5 405.5,-314.5 405.5,-314.5 405.5,-302.5 405.5,-302.5 405.5,-296.5 411.5,-290.5 417.5,-290.5 417.5,-290.5 479.5,-290.5 479.5,-290.5 485.5,-290.5 491.5,-296.5 491.5,-302.5 491.5,-302.5 491.5,-314.5 491.5,-314.5 491.5,-320.5 485.5,-326.5 479.5,-326.5"/>
<text text-anchor="middle" x="448.5" y="-306" font-family="sans" font-size="10.00">merge_corpus</text>
</g>
<!-- 5&#45;&gt;8 -->
<g id="edge22" class="edge">
<title>5&#45;&gt;8</title>
<path fill="none" stroke="grey" stroke-width="2" d="M711.25,-511.24C691.98,-492.27 659.53,-461.28 629.5,-437 580.8,-397.63 520.77,-356.72 483.56,-332.19"/>
<polygon fill="grey" stroke="grey" stroke-width="2" points="485.35,-329.18 475.07,-326.61 481.51,-335.03 485.35,-329.18"/>
</g>
<!-- 20 -->
<g id="node21" class="node">
<title>20</title>
<path fill="none" stroke="#a7d856" stroke-width="2" d="M798,-401C798,-401 733,-401 733,-401 727,-401 721,-395 721,-389 721,-389 721,-377 721,-377 721,-371 727,-365 733,-365 733,-365 798,-365 798,-365 804,-365 810,-371 810,-377 810,-377 810,-389 810,-389 810,-395 804,-401 798,-401"/>
<text text-anchor="middle" x="765.5" y="-380.5" font-family="sans" font-size="10.00">split_mono_trg</text>
</g>
<!-- 5&#45;&gt;20 -->
<g id="edge37" class="edge">
<title>5&#45;&gt;20</title>
<path fill="none" stroke="grey" stroke-width="2" d="M732.89,-511.36C739.23,-486.59 751.02,-440.55 758.55,-411.13"/>
<polygon fill="grey" stroke="grey" stroke-width="2" points="762.03,-411.68 761.12,-401.12 755.24,-409.94 762.03,-411.68"/>
</g>
<!-- 21 -->
<g id="node22" class="node">
<title>21</title>
<path fill="none" stroke="#56a9d8" stroke-width="2" d="M837,-473C837,-473 780,-473 780,-473 774,-473 768,-467 768,-461 768,-461 768,-449 768,-449 768,-443 774,-437 780,-437 780,-437 837,-437 837,-437 843,-437 849,-443 849,-449 849,-449 849,-461 849,-461 849,-467 843,-473 837,-473"/>
<text text-anchor="middle" x="808.5" y="-452.5" font-family="sans" font-size="10.00">merge_mono</text>
</g>
<!-- 5&#45;&gt;21 -->
<g id="edge39" class="edge">
<title>5&#45;&gt;21</title>
<path fill="none" stroke="grey" stroke-width="2" d="M747.46,-511.32C757.82,-501.93 770.82,-490.15 782.15,-479.88"/>
<polygon fill="grey" stroke="grey" stroke-width="2" points="784.62,-482.37 789.68,-473.06 779.92,-477.18 784.62,-482.37"/>
</g>
<!-- 6&#45;&gt;1 -->
<g id="edge4" class="edge">
<title>6&#45;&gt;1</title>
<path fill="none" stroke="grey" stroke-width="2" d="M603.47,-143.7C593.96,-135.05 582.29,-124.45 571.93,-115.03"/>
<polygon fill="grey" stroke="grey" stroke-width="2" points="574.07,-112.24 564.31,-108.1 569.36,-117.42 574.07,-112.24"/>
</g>
<!-- 7&#45;&gt;6 -->
<g id="edge12" class="edge">
<title>7&#45;&gt;6</title>
<path fill="none" stroke="grey" stroke-width="2" d="M731.27,-215.88C711.92,-206.47 687.73,-194.71 667.07,-184.67"/>
<polygon fill="grey" stroke="grey" stroke-width="2" points="668.39,-181.41 657.86,-180.19 665.33,-187.71 668.39,-181.41"/>
</g>
<!-- 7&#45;&gt;27 -->
<g id="edge49" class="edge">
<title>7&#45;&gt;27</title>
<path fill="none" stroke="grey" stroke-width="2" d="M765.02,-215.7C764.36,-207.98 763.56,-198.71 762.82,-190.11"/>
<polygon fill="grey" stroke="grey" stroke-width="2" points="766.31,-189.77 761.97,-180.1 759.33,-190.37 766.31,-189.77"/>
</g>
<!-- 8&#45;&gt;1 -->
<g id="edge5" class="edge">
<title>8&#45;&gt;1</title>
<path fill="none" stroke="grey" stroke-width="2" d="M439.15,-290.35C423.27,-258.67 395.53,-189.99 425.5,-144 439.21,-122.96 463.36,-110.21 486.43,-102.52"/>
<polygon fill="grey" stroke="grey" stroke-width="2" points="487.68,-105.8 496.21,-99.52 485.63,-99.1 487.68,-105.8"/>
</g>
<!-- 8&#45;&gt;7 -->
<g id="edge15" class="edge">
<title>8&#45;&gt;7</title>
<path fill="none" stroke="grey" stroke-width="2" d="M491.65,-293.08C497.62,-291.27 503.69,-289.52 509.5,-288 574.36,-271 649.6,-256.02 701.83,-246.37"/>
<polygon fill="grey" stroke="grey" stroke-width="2" points="702.76,-249.76 711.96,-244.51 701.5,-242.87 702.76,-249.76"/>
</g>
<!-- 25 -->
<g id="node26" class="node">
<title>25</title>
<path fill="none" stroke="#59d856" stroke-width="2" d="M567.5,-252C567.5,-252 517.5,-252 517.5,-252 511.5,-252 505.5,-246 505.5,-240 505.5,-240 505.5,-228 505.5,-228 505.5,-222 511.5,-216 517.5,-216 517.5,-216 567.5,-216 567.5,-216 573.5,-216 579.5,-222 579.5,-228 579.5,-228 579.5,-240 579.5,-240 579.5,-246 573.5,-252 567.5,-252"/>
<text text-anchor="middle" x="542.5" y="-231.5" font-family="sans" font-size="10.00">train_vocab</text>
</g>
<!-- 8&#45;&gt;25 -->
<g id="edge42" class="edge">
<title>8&#45;&gt;25</title>
<path fill="none" stroke="grey" stroke-width="2" d="M470.78,-290.32C483.19,-280.75 498.81,-268.7 512.3,-258.29"/>
<polygon fill="grey" stroke="grey" stroke-width="2" points="514.6,-260.94 520.38,-252.06 510.33,-255.39 514.6,-260.94"/>
</g>
<!-- 8&#45;&gt;26 -->
<g id="edge45" class="edge">
<title>8&#45;&gt;26</title>
<path fill="none" stroke="grey" stroke-width="2" d="M454.45,-290.41C466.84,-257.26 498.6,-183.98 549.5,-144 569.56,-128.25 594.97,-116.42 617.78,-107.97"/>
<polygon fill="grey" stroke="grey" stroke-width="2" points="619.13,-111.21 627.38,-104.56 616.79,-104.62 619.13,-111.21"/>
</g>
<!-- 9 -->
<g id="node10" class="node">
<title>9</title>
<path fill="none" stroke="#d8b456" stroke-width="2" d="M294.5,-401C294.5,-401 256.5,-401 256.5,-401 250.5,-401 244.5,-395 244.5,-389 244.5,-389 244.5,-377 244.5,-377 244.5,-371 250.5,-365 256.5,-365 256.5,-365 294.5,-365 294.5,-365 300.5,-365 306.5,-371 306.5,-377 306.5,-377 306.5,-389 306.5,-389 306.5,-395 300.5,-401 294.5,-401"/>
<text text-anchor="middle" x="275.5" y="-380.5" font-family="sans" font-size="10.00">bicleaner</text>
</g>
<!-- 9&#45;&gt;8 -->
<g id="edge19" class="edge">
<title>9&#45;&gt;8</title>
<path fill="none" stroke="grey" stroke-width="2" d="M306.83,-368.87C332.31,-358.19 368.75,-342.92 398.29,-330.54"/>
<polygon fill="grey" stroke="grey" stroke-width="2" points="399.75,-333.73 407.62,-326.63 397.04,-327.27 399.75,-333.73"/>
</g>
<!-- 10 -->
<g id="node11" class="node">
<title>10</title>
<path fill="none" stroke="#70d856" stroke-width="2" d="M467.5,-547.5C467.5,-547.5 437.5,-547.5 437.5,-547.5 431.5,-547.5 425.5,-541.5 425.5,-535.5 425.5,-535.5 425.5,-523.5 425.5,-523.5 425.5,-517.5 431.5,-511.5 437.5,-511.5 437.5,-511.5 467.5,-511.5 467.5,-511.5 473.5,-511.5 479.5,-517.5 479.5,-523.5 479.5,-523.5 479.5,-535.5 479.5,-535.5 479.5,-541.5 473.5,-547.5 467.5,-547.5"/>
<text text-anchor="middle" x="452.5" y="-527" font-family="sans" font-size="10.00">kenlm</text>
</g>
<!-- 10&#45;&gt;9 -->
<g id="edge23" class="edge">
<title>10&#45;&gt;9</title>
<path fill="none" stroke="grey" stroke-width="2" d="M425.36,-512.76C422.42,-511.37 419.43,-510.09 416.5,-509 345.29,-482.65 297.2,-532.08 249.5,-473 234.92,-454.94 245.01,-429 256.6,-409.78"/>
<polygon fill="grey" stroke="grey" stroke-width="2" points="259.65,-411.51 262.13,-401.21 253.77,-407.71 259.65,-411.51"/>
</g>
<!-- 13 -->
<g id="node14" class="node">
<title>13</title>
<path fill="none" stroke="#56b1d8" stroke-width="2" d="M472.5,-473C472.5,-473 406.5,-473 406.5,-473 400.5,-473 394.5,-467 394.5,-461 394.5,-461 394.5,-449 394.5,-449 394.5,-443 400.5,-437 406.5,-437 406.5,-437 472.5,-437 472.5,-437 478.5,-437 484.5,-443 484.5,-449 484.5,-449 484.5,-461 484.5,-461 484.5,-467 478.5,-473 472.5,-473"/>
<text text-anchor="middle" x="439.5" y="-452.5" font-family="sans" font-size="10.00">bicleaner_pack</text>
</g>
<!-- 10&#45;&gt;13 -->
<g id="edge27" class="edge">
<title>10&#45;&gt;13</title>
<path fill="none" stroke="grey" stroke-width="2" d="M449.42,-511.32C447.91,-502.92 446.07,-492.62 444.37,-483.19"/>
<polygon fill="grey" stroke="grey" stroke-width="2" points="447.77,-482.28 442.56,-473.06 440.88,-483.52 447.77,-482.28"/>
</g>
<!-- 14 -->
<g id="node15" class="node">
<title>14</title>
<path fill="none" stroke="#d8b456" stroke-width="2" d="M499.5,-401C499.5,-401 461.5,-401 461.5,-401 455.5,-401 449.5,-395 449.5,-389 449.5,-389 449.5,-377 449.5,-377 449.5,-371 455.5,-365 461.5,-365 461.5,-365 499.5,-365 499.5,-365 505.5,-365 511.5,-371 511.5,-377 511.5,-377 511.5,-389 511.5,-389 511.5,-395 505.5,-401 499.5,-401"/>
<text text-anchor="middle" x="480.5" y="-380.5" font-family="sans" font-size="10.00">bicleaner</text>
</g>
<!-- 10&#45;&gt;14 -->
<g id="edge28" class="edge">
<title>10&#45;&gt;14</title>
<path fill="none" stroke="grey" stroke-width="2" d="M469.83,-511.19C478.77,-501.01 488.78,-487.34 493.5,-473 500.19,-452.7 496,-428.66 490.67,-410.68"/>
<polygon fill="grey" stroke="grey" stroke-width="2" points="493.98,-409.55 487.55,-401.13 487.32,-411.72 493.98,-409.55"/>
</g>
<!-- 17 -->
<g id="node18" class="node">
<title>17</title>
<path fill="none" stroke="#d8b456" stroke-width="2" d="M402.5,-401C402.5,-401 364.5,-401 364.5,-401 358.5,-401 352.5,-395 352.5,-389 352.5,-389 352.5,-377 352.5,-377 352.5,-371 358.5,-365 364.5,-365 364.5,-365 402.5,-365 402.5,-365 408.5,-365 414.5,-371 414.5,-377 414.5,-377 414.5,-389 414.5,-389 414.5,-395 408.5,-401 402.5,-401"/>
<text text-anchor="middle" x="383.5" y="-380.5" font-family="sans" font-size="10.00">bicleaner</text>
</g>
<!-- 10&#45;&gt;17 -->
<g id="edge32" class="edge">
<title>10&#45;&gt;17</title>
<path fill="none" stroke="grey" stroke-width="2" d="M425.32,-513.8C410.67,-504.28 393.92,-490.4 385.5,-473 376.21,-453.81 376.35,-429.46 378.46,-411.09"/>
<polygon fill="grey" stroke="grey" stroke-width="2" points="381.94,-411.43 379.87,-401.04 375.01,-410.46 381.94,-411.43"/>
</g>
<!-- 11 -->
<g id="node12" class="node">
<title>11</title>
<path fill="none" stroke="#78d856" stroke-width="2" d="M142.5,-473C142.5,-473 86.5,-473 86.5,-473 80.5,-473 74.5,-467 74.5,-461 74.5,-461 74.5,-449 74.5,-449 74.5,-443 80.5,-437 86.5,-437 86.5,-437 142.5,-437 142.5,-437 148.5,-437 154.5,-443 154.5,-449 154.5,-449 154.5,-461 154.5,-461 154.5,-467 148.5,-473 142.5,-473"/>
<text text-anchor="middle" x="114.5" y="-452.5" font-family="sans" font-size="10.00">clean_corpus</text>
</g>
<!-- 11&#45;&gt;9 -->
<g id="edge24" class="edge">
<title>11&#45;&gt;9</title>
<path fill="none" stroke="grey" stroke-width="2" d="M153.89,-436.88C178.46,-426.19 210.02,-412.47 234.83,-401.68"/>
<polygon fill="grey" stroke="grey" stroke-width="2" points="236.55,-404.75 244.32,-397.56 233.75,-398.33 236.55,-404.75"/>
</g>
<!-- 12 -->
<g id="node13" class="node">
<title>12</title>
<path fill="none" stroke="#d6d856" stroke-width="2" d="M121,-550C121,-550 12,-550 12,-550 6,-550 0,-544 0,-538 0,-538 0,-521 0,-521 0,-515 6,-509 12,-509 12,-509 121,-509 121,-509 127,-509 133,-515 133,-521 133,-521 133,-538 133,-538 133,-544 127,-550 121,-550"/>
<text text-anchor="middle" x="66.5" y="-538" font-family="sans" font-size="10.00">download_corpus</text>
<text text-anchor="middle" x="66.5" y="-527" font-family="sans" font-size="10.00">dataset: opus_ada83/v1</text>
<text text-anchor="middle" x="66.5" y="-516" font-family="sans" font-size="10.00">kind: corpus</text>
</g>
<!-- 12&#45;&gt;11 -->
<g id="edge26" class="edge">
<title>12&#45;&gt;11</title>
<path fill="none" stroke="grey" stroke-width="2" d="M79.62,-508.69C85.11,-500.39 91.57,-490.63 97.43,-481.78"/>
<polygon fill="grey" stroke="grey" stroke-width="2" points="100.43,-483.59 103.03,-473.32 94.59,-479.73 100.43,-483.59"/>
</g>
<!-- 13&#45;&gt;9 -->
<g id="edge25" class="edge">
<title>13&#45;&gt;9</title>
<path fill="none" stroke="grey" stroke-width="2" d="M399.38,-436.88C374.07,-426.07 341.48,-412.16 316.09,-401.32"/>
<polygon fill="grey" stroke="grey" stroke-width="2" points="317.31,-398.04 306.73,-397.33 314.56,-404.48 317.31,-398.04"/>
</g>
<!-- 13&#45;&gt;14 -->
<g id="edge30" class="edge">
<title>13&#45;&gt;14</title>
<path fill="none" stroke="grey" stroke-width="2" d="M449.63,-436.7C454.35,-428.64 460.06,-418.89 465.28,-409.98"/>
<polygon fill="grey" stroke="grey" stroke-width="2" points="468.45,-411.5 470.48,-401.1 462.41,-407.96 468.45,-411.5"/>
</g>
<!-- 13&#45;&gt;17 -->
<g id="edge34" class="edge">
<title>13&#45;&gt;17</title>
<path fill="none" stroke="grey" stroke-width="2" d="M425.66,-436.7C419.01,-428.39 410.92,-418.28 403.61,-409.14"/>
<polygon fill="grey" stroke="grey" stroke-width="2" points="406.16,-406.73 397.18,-401.1 400.7,-411.1 406.16,-406.73"/>
</g>
<!-- 14&#45;&gt;8 -->
<g id="edge20" class="edge">
<title>14&#45;&gt;8</title>
<path fill="none" stroke="grey" stroke-width="2" d="M472.92,-364.82C469.09,-356.15 464.37,-345.45 460.1,-335.78"/>
<polygon fill="grey" stroke="grey" stroke-width="2" points="463.27,-334.29 456.03,-326.56 456.87,-337.12 463.27,-334.29"/>
</g>
<!-- 15 -->
<g id="node16" class="node">
<title>15</title>
<path fill="none" stroke="#78d856" stroke-width="2" d="M608.5,-473C608.5,-473 552.5,-473 552.5,-473 546.5,-473 540.5,-467 540.5,-461 540.5,-461 540.5,-449 540.5,-449 540.5,-443 546.5,-437 552.5,-437 552.5,-437 608.5,-437 608.5,-437 614.5,-437 620.5,-443 620.5,-449 620.5,-449 620.5,-461 620.5,-461 620.5,-467 614.5,-473 608.5,-473"/>
<text text-anchor="middle" x="580.5" y="-452.5" font-family="sans" font-size="10.00">clean_corpus</text>
</g>
<!-- 15&#45;&gt;14 -->
<g id="edge29" class="edge">
<title>15&#45;&gt;14</title>
<path fill="none" stroke="grey" stroke-width="2" d="M556.04,-436.88C543.2,-427.89 527.3,-416.76 513.41,-407.03"/>
<polygon fill="grey" stroke="grey" stroke-width="2" points="515.26,-404.06 505.06,-401.19 511.24,-409.79 515.26,-404.06"/>
</g>
<!-- 16 -->
<g id="node17" class="node">
<title>16</title>
<path fill="none" stroke="#d6d856" stroke-width="2" d="M638.5,-550C638.5,-550 522.5,-550 522.5,-550 516.5,-550 510.5,-544 510.5,-538 510.5,-538 510.5,-521 510.5,-521 510.5,-515 516.5,-509 522.5,-509 522.5,-509 638.5,-509 638.5,-509 644.5,-509 650.5,-515 650.5,-521 650.5,-521 650.5,-538 650.5,-538 650.5,-544 644.5,-550 638.5,-550"/>
<text text-anchor="middle" x="580.5" y="-538" font-family="sans" font-size="10.00">download_corpus</text>
<text text-anchor="middle" x="580.5" y="-527" font-family="sans" font-size="10.00">dataset: opus_GNOME/v1</text>
<text text-anchor="middle" x="580.5" y="-516" font-family="sans" font-size="10.00">kind: corpus</text>
</g>
<!-- 16&#45;&gt;15 -->
<g id="edge31" class="edge">
<title>16&#45;&gt;15</title>
<path fill="none" stroke="grey" stroke-width="2" d="M580.5,-508.69C580.5,-500.91 580.5,-491.84 580.5,-483.45"/>
<polygon fill="grey" stroke="grey" stroke-width="2" points="584,-483.32 580.5,-473.32 577,-483.32 584,-483.32"/>
</g>
<!-- 17&#45;&gt;8 -->
<g id="edge21" class="edge">
<title>17&#45;&gt;8</title>
<path fill="none" stroke="grey" stroke-width="2" d="M398.9,-364.82C407.08,-355.7 417.27,-344.33 426.29,-334.27"/>
<polygon fill="grey" stroke="grey" stroke-width="2" points="429.14,-336.34 433.21,-326.56 423.92,-331.67 429.14,-336.34"/>
</g>
<!-- 18 -->
<g id="node19" class="node">
<title>18</title>
<path fill="none" stroke="#78d856" stroke-width="2" d="M326.5,-473C326.5,-473 270.5,-473 270.5,-473 264.5,-473 258.5,-467 258.5,-461 258.5,-461 258.5,-449 258.5,-449 258.5,-443 264.5,-437 270.5,-437 270.5,-437 326.5,-437 326.5,-437 332.5,-437 338.5,-443 338.5,-449 338.5,-449 338.5,-461 338.5,-461 338.5,-467 332.5,-473 326.5,-473"/>
<text text-anchor="middle" x="298.5" y="-452.5" font-family="sans" font-size="10.00">clean_corpus</text>
</g>
<!-- 18&#45;&gt;17 -->
<g id="edge33" class="edge">
<title>18&#45;&gt;17</title>
<path fill="none" stroke="grey" stroke-width="2" d="M319.51,-436.7C330.22,-427.88 343.39,-417.03 355,-407.47"/>
<polygon fill="grey" stroke="grey" stroke-width="2" points="357.24,-410.16 362.73,-401.1 352.79,-404.76 357.24,-410.16"/>
</g>
<!-- 19 -->
<g id="node20" class="node">
<title>19</title>
<path fill="none" stroke="#d6d856" stroke-width="2" d="M395.5,-550C395.5,-550 163.5,-550 163.5,-550 157.5,-550 151.5,-544 151.5,-538 151.5,-538 151.5,-521 151.5,-521 151.5,-515 157.5,-509 163.5,-509 163.5,-509 395.5,-509 395.5,-509 401.5,-509 407.5,-515 407.5,-521 407.5,-521 407.5,-538 407.5,-538 407.5,-544 401.5,-550 395.5,-550"/>
<text text-anchor="middle" x="279.5" y="-538" font-family="sans" font-size="10.00">download_corpus</text>
<text text-anchor="middle" x="279.5" y="-527" font-family="sans" font-size="10.00">dataset: mtdata_Neulab&#45;tedtalks_train&#45;1&#45;eng&#45;rus</text>
<text text-anchor="middle" x="279.5" y="-516" font-family="sans" font-size="10.00">kind: corpus</text>
</g>
<!-- 19&#45;&gt;18 -->
<g id="edge35" class="edge">
<title>19&#45;&gt;18</title>
<path fill="none" stroke="grey" stroke-width="2" d="M284.69,-508.69C286.75,-500.82 289.16,-491.64 291.38,-483.17"/>
<polygon fill="grey" stroke="grey" stroke-width="2" points="294.81,-483.88 293.96,-473.32 288.04,-482.11 294.81,-483.88"/>
</g>
<!-- 28 -->
<g id="node29" class="node">
<title>28</title>
<path fill="none" stroke="#9fd856" stroke-width="2" d="M804,-326.5C804,-326.5 727,-326.5 727,-326.5 721,-326.5 715,-320.5 715,-314.5 715,-314.5 715,-302.5 715,-302.5 715,-296.5 721,-290.5 727,-290.5 727,-290.5 804,-290.5 804,-290.5 810,-290.5 816,-296.5 816,-302.5 816,-302.5 816,-314.5 816,-314.5 816,-320.5 810,-326.5 804,-326.5"/>
<text text-anchor="middle" x="765.5" y="-306" font-family="sans" font-size="10.00">collect_mono_trg</text>
</g>
<!-- 20&#45;&gt;28 -->
<g id="edge52" class="edge">
<title>20&#45;&gt;28</title>
<path fill="none" stroke="grey" stroke-width="2" d="M765.5,-364.82C765.5,-356.42 765.5,-346.12 765.5,-336.69"/>
<polygon fill="grey" stroke="grey" stroke-width="2" points="769,-336.56 765.5,-326.56 762,-336.56 769,-336.56"/>
</g>
<!-- 21&#45;&gt;7 -->
<g id="edge16" class="edge">
<title>21&#45;&gt;7</title>
<path fill="none" stroke="grey" stroke-width="2" d="M815.57,-436.63C827.13,-405.39 846.69,-338.34 824.5,-288 819.51,-276.69 810.79,-266.74 801.6,-258.62"/>
<polygon fill="grey" stroke="grey" stroke-width="2" points="803.78,-255.88 793.84,-252.23 799.33,-261.28 803.78,-255.88"/>
</g>
<!-- 21&#45;&gt;20 -->
<g id="edge36" class="edge">
<title>21&#45;&gt;20</title>
<path fill="none" stroke="grey" stroke-width="2" d="M797.87,-436.7C792.87,-428.56 786.81,-418.69 781.29,-409.7"/>
<polygon fill="grey" stroke="grey" stroke-width="2" points="784.22,-407.79 776.01,-401.1 778.26,-411.46 784.22,-407.79"/>
</g>
<!-- 22 -->
<g id="node23" class="node">
<title>22</title>
<path fill="none" stroke="#d87d56" stroke-width="2" d="M867.5,-547.5C867.5,-547.5 815.5,-547.5 815.5,-547.5 809.5,-547.5 803.5,-541.5 803.5,-535.5 803.5,-535.5 803.5,-523.5 803.5,-523.5 803.5,-517.5 809.5,-511.5 815.5,-511.5 815.5,-511.5 867.5,-511.5 867.5,-511.5 873.5,-511.5 879.5,-517.5 879.5,-523.5 879.5,-523.5 879.5,-535.5 879.5,-535.5 879.5,-541.5 873.5,-547.5 867.5,-547.5"/>
<text text-anchor="middle" x="841.5" y="-527" font-family="sans" font-size="10.00">clean_mono</text>
</g>
<!-- 22&#45;&gt;21 -->
<g id="edge38" class="edge">
<title>22&#45;&gt;21</title>
<path fill="none" stroke="grey" stroke-width="2" d="M833.68,-511.32C829.73,-502.65 824.86,-491.95 820.46,-482.28"/>
<polygon fill="grey" stroke="grey" stroke-width="2" points="823.59,-480.71 816.26,-473.06 817.22,-483.61 823.59,-480.71"/>
</g>
<!-- 23 -->
<g id="node24" class="node">
<title>23</title>
<path fill="none" stroke="#56d89a" stroke-width="2" d="M916,-627C916,-627 767,-627 767,-627 761,-627 755,-621 755,-615 755,-615 755,-598 755,-598 755,-592 761,-586 767,-586 767,-586 916,-586 916,-586 922,-586 928,-592 928,-598 928,-598 928,-615 928,-615 928,-621 922,-627 916,-627"/>
<text text-anchor="middle" x="841.5" y="-615" font-family="sans" font-size="10.00">download_mono</text>
<text text-anchor="middle" x="841.5" y="-604" font-family="sans" font-size="10.00">dataset: news&#45;crawl_news.2020</text>
<text text-anchor="middle" x="841.5" y="-593" font-family="sans" font-size="10.00">lang: en</text>
</g>
<!-- 23&#45;&gt;22 -->
<g id="edge40" class="edge">
<title>23&#45;&gt;22</title>
<path fill="none" stroke="grey" stroke-width="2" d="M841.5,-585.79C841.5,-577.31 841.5,-567.24 841.5,-558.04"/>
<polygon fill="grey" stroke="grey" stroke-width="2" points="845,-557.78 841.5,-547.78 838,-557.78 845,-557.78"/>
</g>
<!-- 24 -->
<g id="node25" class="node">
<title>24</title>
<path fill="none" stroke="#5663d8" stroke-width="2" d="M646.5,-326.5C646.5,-326.5 530.5,-326.5 530.5,-326.5 524.5,-326.5 518.5,-320.5 518.5,-314.5 518.5,-314.5 518.5,-302.5 518.5,-302.5 518.5,-296.5 524.5,-290.5 530.5,-290.5 530.5,-290.5 646.5,-290.5 646.5,-290.5 652.5,-290.5 658.5,-296.5 658.5,-302.5 658.5,-302.5 658.5,-314.5 658.5,-314.5 658.5,-320.5 652.5,-326.5 646.5,-326.5"/>
<text text-anchor="middle" x="588.5" y="-311.5" font-family="sans" font-size="10.00">marian</text>
<text text-anchor="middle" x="588.5" y="-300.5" font-family="sans" font-size="10.00">marian_type: marian&#45;dev</text>
</g>
<!-- 24&#45;&gt;1 -->
<g id="edge6" class="edge">
<title>24&#45;&gt;1</title>
<path fill="none" stroke="grey" stroke-width="2" d="M540.77,-290.4C523.67,-281.69 506.22,-269.22 496.5,-252 471.58,-207.86 502.94,-149.6 525.75,-116.63"/>
<polygon fill="grey" stroke="grey" stroke-width="2" points="528.64,-118.6 531.61,-108.43 522.95,-114.53 528.64,-118.6"/>
</g>
<!-- 24&#45;&gt;6 -->
<g id="edge13" class="edge">
<title>24&#45;&gt;6</title>
<path fill="none" stroke="grey" stroke-width="2" d="M592.53,-290.36C598.36,-265.59 609.19,-219.55 616.12,-190.13"/>
<polygon fill="grey" stroke="grey" stroke-width="2" points="619.59,-190.66 618.47,-180.12 612.77,-189.05 619.59,-190.66"/>
</g>
<!-- 24&#45;&gt;25 -->
<g id="edge41" class="edge">
<title>24&#45;&gt;25</title>
<path fill="none" stroke="grey" stroke-width="2" d="M577.6,-290.32C571.98,-281.47 565.03,-270.5 558.79,-260.67"/>
<polygon fill="grey" stroke="grey" stroke-width="2" points="561.64,-258.63 553.32,-252.06 555.73,-262.38 561.64,-258.63"/>
</g>
<!-- 24&#45;&gt;26 -->
<g id="edge46" class="edge">
<title>24&#45;&gt;26</title>
<path fill="none" stroke="grey" stroke-width="2" d="M603.85,-290.48C623.61,-267.38 657.11,-223.92 671.5,-180 678.03,-160.05 679.05,-136.26 678.56,-118.3"/>
<polygon fill="grey" stroke="grey" stroke-width="2" points="682.05,-118.05 678.11,-108.21 675.06,-118.36 682.05,-118.05"/>
</g>
<!-- 24&#45;&gt;27 -->
<g id="edge50" class="edge">
<title>24&#45;&gt;27</title>
<path fill="none" stroke="grey" stroke-width="2" d="M611.15,-290.34C625.23,-279.54 643.61,-265.19 659.5,-252 685.38,-230.52 714.07,-205.07 734.25,-186.89"/>
<polygon fill="grey" stroke="grey" stroke-width="2" points="736.73,-189.37 741.8,-180.07 732.03,-184.17 736.73,-189.37"/>
</g>
<!-- 25&#45;&gt;1 -->
<g id="edge7" class="edge">
<title>25&#45;&gt;1</title>
<path fill="none" stroke="grey" stroke-width="2" d="M541.01,-215.93C539.67,-198 538.09,-169.01 539.5,-144 539.98,-135.55 540.88,-126.38 541.84,-118.07"/>
<polygon fill="grey" stroke="grey" stroke-width="2" points="545.31,-118.5 543.06,-108.14 538.37,-117.64 545.31,-118.5"/>
</g>
<!-- 25&#45;&gt;6 -->
<g id="edge14" class="edge">
<title>25&#45;&gt;6</title>
<path fill="none" stroke="grey" stroke-width="2" d="M562.28,-215.7C572.25,-206.97 584.51,-196.24 595.36,-186.75"/>
<polygon fill="grey" stroke="grey" stroke-width="2" points="597.73,-189.32 602.95,-180.1 593.12,-184.06 597.73,-189.32"/>
</g>
<!-- 25&#45;&gt;26 -->
<g id="edge47" class="edge">
<title>25&#45;&gt;26</title>
<path fill="none" stroke="grey" stroke-width="2" d="M544.4,-215.68C547.36,-196.2 554.7,-164.61 572.5,-144 584.68,-129.89 601.53,-119.08 618.13,-111.02"/>
<polygon fill="grey" stroke="grey" stroke-width="2" points="619.66,-114.17 627.29,-106.82 616.74,-107.81 619.66,-114.17"/>
</g>
<!-- 25&#45;&gt;27 -->
<g id="edge51" class="edge">
<title>25&#45;&gt;27</title>
<path fill="none" stroke="grey" stroke-width="2" d="M579.98,-220.97C615.89,-209.44 670.35,-191.95 710.06,-179.2"/>
<polygon fill="grey" stroke="grey" stroke-width="2" points="711.36,-182.45 719.82,-176.06 709.22,-175.79 711.36,-182.45"/>
</g>
<!-- 26&#45;&gt;0 -->
<g id="edge2" class="edge">
<title>26&#45;&gt;0</title>
<path fill="none" stroke="grey" stroke-width="2" d="M658.46,-71.7C649.44,-63.05 638.38,-52.45 628.56,-43.03"/>
<polygon fill="grey" stroke="grey" stroke-width="2" points="630.98,-40.5 621.34,-36.1 626.13,-45.55 630.98,-40.5"/>
</g>
<!-- 27&#45;&gt;26 -->
<g id="edge44" class="edge">
<title>27&#45;&gt;26</title>
<path fill="none" stroke="grey" stroke-width="2" d="M739.74,-143.7C729.26,-134.97 716.39,-124.24 705,-114.75"/>
<polygon fill="grey" stroke="grey" stroke-width="2" points="706.95,-111.82 697.03,-108.1 702.47,-117.19 706.95,-111.82"/>
</g>
<!-- 28&#45;&gt;7 -->
<g id="edge18" class="edge">
<title>28&#45;&gt;7</title>
<path fill="none" stroke="grey" stroke-width="2" d="M765.74,-290.32C765.85,-281.92 765.99,-271.62 766.13,-262.19"/>
<polygon fill="grey" stroke="grey" stroke-width="2" points="769.63,-262.11 766.26,-252.06 762.63,-262.01 769.63,-262.11"/>
</g>
</g>
</svg>
