<?xml version="1.0" encoding="UTF-8" standalone="no"?>
<!DOCTYPE svg PUBLIC "-//W3C//DTD SVG 1.1//EN"
 "http://www.w3.org/Graphics/SVG/1.1/DTD/svg11.dtd">
<!-- Generated by graphviz version 2.43.0 (0)
 -->
<!-- Title: snakemake_dag Pages: 1 -->
<svg width="831pt" height="486pt"
 viewBox="0.00 0.00 831.00 486.00" xmlns="http://www.w3.org/2000/svg" xmlns:xlink="http://www.w3.org/1999/xlink">
<g id="graph0" class="graph" transform="scale(1 1) rotate(0) translate(4 482)">
<title>snakemake_dag</title>
<polygon fill="white" stroke="transparent" points="-4,4 -4,-482 827,-482 827,4 -4,4"/>
<!-- 0 -->
<g id="node1" class="node">
<title>0</title>
<path fill="none" stroke="#80d856" stroke-width="2" d="M618,-36C618,-36 539,-36 539,-36 533,-36 527,-30 527,-24 527,-24 527,-12 527,-12 527,-6 533,0 539,0 539,0 618,0 618,0 624,0 630,-6 630,-12 630,-12 630,-24 630,-24 630,-30 624,-36 618,-36"/>
<text text-anchor="middle" x="578.5" y="-15.5" font-family="sans" font-size="10.00">merge_translated</text>
</g>
<!-- 1 -->
<g id="node2" class="node">
<title>1</title>
<path fill="none" stroke="#8fd856" stroke-width="2" d="M519.5,-252C519.5,-252 457.5,-252 457.5,-252 451.5,-252 445.5,-246 445.5,-240 445.5,-240 445.5,-228 445.5,-228 445.5,-222 451.5,-216 457.5,-216 457.5,-216 519.5,-216 519.5,-216 525.5,-216 531.5,-222 531.5,-228 531.5,-228 531.5,-240 531.5,-240 531.5,-246 525.5,-252 519.5,-252"/>
<text text-anchor="middle" x="488.5" y="-231.5" font-family="sans" font-size="10.00">merge_corpus</text>
</g>
<!-- 1&#45;&gt;0 -->
<g id="edge1" class="edge">
<title>1&#45;&gt;0</title>
<path fill="none" stroke="grey" stroke-width="2" d="M499.21,-215.7C505.29,-205.52 512.79,-192.27 518.5,-180 539.87,-134.13 559.26,-78.35 569.92,-45.94"/>
<polygon fill="grey" stroke="grey" stroke-width="2" points="573.29,-46.88 573.06,-36.28 566.64,-44.71 573.29,-46.88"/>
</g>
<!-- 17 -->
<g id="node18" class="node">
<title>17</title>
<path fill="none" stroke="#d89c56" stroke-width="2" d="M498,-180C498,-180 447,-180 447,-180 441,-180 435,-174 435,-168 435,-168 435,-156 435,-156 435,-150 441,-144 447,-144 447,-144 498,-144 498,-144 504,-144 510,-150 510,-156 510,-156 510,-168 510,-168 510,-174 504,-180 498,-180"/>
<text text-anchor="middle" x="472.5" y="-159.5" font-family="sans" font-size="10.00">split_corpus</text>
</g>
<!-- 1&#45;&gt;17 -->
<g id="edge26" class="edge">
<title>1&#45;&gt;17</title>
<path fill="none" stroke="grey" stroke-width="2" d="M484.54,-215.7C482.78,-207.98 480.66,-198.71 478.7,-190.11"/>
<polygon fill="grey" stroke="grey" stroke-width="2" points="482.05,-189.07 476.41,-180.1 475.23,-190.63 482.05,-189.07"/>
</g>
<!-- 2 -->
<g id="node3" class="node">
<title>2</title>
<path fill="none" stroke="#97d856" stroke-width="2" d="M367.5,-324C367.5,-324 329.5,-324 329.5,-324 323.5,-324 317.5,-318 317.5,-312 317.5,-312 317.5,-300 317.5,-300 317.5,-294 323.5,-288 329.5,-288 329.5,-288 367.5,-288 367.5,-288 373.5,-288 379.5,-294 379.5,-300 379.5,-300 379.5,-312 379.5,-312 379.5,-318 373.5,-324 367.5,-324"/>
<text text-anchor="middle" x="348.5" y="-303.5" font-family="sans" font-size="10.00">bicleaner</text>
</g>
<!-- 2&#45;&gt;1 -->
<g id="edge6" class="edge">
<title>2&#45;&gt;1</title>
<path fill="none" stroke="grey" stroke-width="2" d="M379.57,-289.46C398.8,-279.85 423.77,-267.36 444.95,-256.77"/>
<polygon fill="grey" stroke="grey" stroke-width="2" points="446.7,-259.81 454.08,-252.21 443.57,-253.55 446.7,-259.81"/>
</g>
<!-- 3 -->
<g id="node4" class="node">
<title>3</title>
<path fill="none" stroke="#bed856" stroke-width="2" d="M483.5,-475.5C483.5,-475.5 453.5,-475.5 453.5,-475.5 447.5,-475.5 441.5,-469.5 441.5,-463.5 441.5,-463.5 441.5,-451.5 441.5,-451.5 441.5,-445.5 447.5,-439.5 453.5,-439.5 453.5,-439.5 483.5,-439.5 483.5,-439.5 489.5,-439.5 495.5,-445.5 495.5,-451.5 495.5,-451.5 495.5,-463.5 495.5,-463.5 495.5,-469.5 489.5,-475.5 483.5,-475.5"/>
<text text-anchor="middle" x="468.5" y="-455" font-family="sans" font-size="10.00">kenlm</text>
</g>
<!-- 3&#45;&gt;2 -->
<g id="edge10" class="edge">
<title>3&#45;&gt;2</title>
<path fill="none" stroke="grey" stroke-width="2" d="M441.28,-446.26C412.11,-434.72 368.62,-415.65 358.5,-401 345.13,-381.66 343.59,-354.53 344.83,-334.38"/>
<polygon fill="grey" stroke="grey" stroke-width="2" points="348.33,-334.55 345.72,-324.28 341.36,-333.94 348.33,-334.55"/>
</g>
<!-- 6 -->
<g id="node7" class="node">
<title>6</title>
<path fill="none" stroke="#c6d856" stroke-width="2" d="M445.5,-398.5C445.5,-398.5 379.5,-398.5 379.5,-398.5 373.5,-398.5 367.5,-392.5 367.5,-386.5 367.5,-386.5 367.5,-374.5 367.5,-374.5 367.5,-368.5 373.5,-362.5 379.5,-362.5 379.5,-362.5 445.5,-362.5 445.5,-362.5 451.5,-362.5 457.5,-368.5 457.5,-374.5 457.5,-374.5 457.5,-386.5 457.5,-386.5 457.5,-392.5 451.5,-398.5 445.5,-398.5"/>
<text text-anchor="middle" x="412.5" y="-378" font-family="sans" font-size="10.00">bicleaner_pack</text>
</g>
<!-- 3&#45;&gt;6 -->
<g id="edge14" class="edge">
<title>3&#45;&gt;6</title>
<path fill="none" stroke="grey" stroke-width="2" d="M455.79,-439.48C448.61,-429.86 439.5,-417.66 431.48,-406.92"/>
<polygon fill="grey" stroke="grey" stroke-width="2" points="434.14,-404.63 425.35,-398.71 428.53,-408.82 434.14,-404.63"/>
</g>
<!-- 7 -->
<g id="node8" class="node">
<title>7</title>
<path fill="none" stroke="#97d856" stroke-width="2" d="M533.5,-324C533.5,-324 495.5,-324 495.5,-324 489.5,-324 483.5,-318 483.5,-312 483.5,-312 483.5,-300 483.5,-300 483.5,-294 489.5,-288 495.5,-288 495.5,-288 533.5,-288 533.5,-288 539.5,-288 545.5,-294 545.5,-300 545.5,-300 545.5,-312 545.5,-312 545.5,-318 539.5,-324 533.5,-324"/>
<text text-anchor="middle" x="514.5" y="-303.5" font-family="sans" font-size="10.00">bicleaner</text>
</g>
<!-- 3&#45;&gt;7 -->
<g id="edge15" class="edge">
<title>3&#45;&gt;7</title>
<path fill="none" stroke="grey" stroke-width="2" d="M473.78,-439.35C481.71,-413.58 496.77,-364.63 506.18,-334.03"/>
<polygon fill="grey" stroke="grey" stroke-width="2" points="509.55,-335 509.14,-324.41 502.86,-332.94 509.55,-335"/>
</g>
<!-- 10 -->
<g id="node11" class="node">
<title>10</title>
<path fill="none" stroke="#97d856" stroke-width="2" d="M451.5,-324C451.5,-324 413.5,-324 413.5,-324 407.5,-324 401.5,-318 401.5,-312 401.5,-312 401.5,-300 401.5,-300 401.5,-294 407.5,-288 413.5,-288 413.5,-288 451.5,-288 451.5,-288 457.5,-288 463.5,-294 463.5,-300 463.5,-300 463.5,-312 463.5,-312 463.5,-318 457.5,-324 451.5,-324"/>
<text text-anchor="middle" x="432.5" y="-303.5" font-family="sans" font-size="10.00">bicleaner</text>
</g>
<!-- 3&#45;&gt;10 -->
<g id="edge19" class="edge">
<title>3&#45;&gt;10</title>
<path fill="none" stroke="grey" stroke-width="2" d="M470.9,-439.33C473.02,-419.68 474.65,-386.77 466.5,-360 463.6,-350.48 458.46,-341.02 453.04,-332.79"/>
<polygon fill="grey" stroke="grey" stroke-width="2" points="455.76,-330.57 447.15,-324.4 450.03,-334.59 455.76,-330.57"/>
</g>
<!-- 4 -->
<g id="node5" class="node">
<title>4</title>
<path fill="none" stroke="#5663d8" stroke-width="2" d="M148.5,-398.5C148.5,-398.5 92.5,-398.5 92.5,-398.5 86.5,-398.5 80.5,-392.5 80.5,-386.5 80.5,-386.5 80.5,-374.5 80.5,-374.5 80.5,-368.5 86.5,-362.5 92.5,-362.5 92.5,-362.5 148.5,-362.5 148.5,-362.5 154.5,-362.5 160.5,-368.5 160.5,-374.5 160.5,-374.5 160.5,-386.5 160.5,-386.5 160.5,-392.5 154.5,-398.5 148.5,-398.5"/>
<text text-anchor="middle" x="120.5" y="-378" font-family="sans" font-size="10.00">clean_corpus</text>
</g>
<!-- 4&#45;&gt;2 -->
<g id="edge11" class="edge">
<title>4&#45;&gt;2</title>
<path fill="none" stroke="grey" stroke-width="2" d="M160.74,-366.71C202.16,-353.53 266.35,-333.12 307.91,-319.91"/>
<polygon fill="grey" stroke="grey" stroke-width="2" points="308.97,-323.24 317.44,-316.88 306.85,-316.57 308.97,-323.24"/>
</g>
<!-- 5 -->
<g id="node6" class="node">
<title>5</title>
<path fill="none" stroke="#d88556" stroke-width="2" d="M121,-478C121,-478 12,-478 12,-478 6,-478 0,-472 0,-466 0,-466 0,-449 0,-449 0,-443 6,-437 12,-437 12,-437 121,-437 121,-437 127,-437 133,-443 133,-449 133,-449 133,-466 133,-466 133,-472 127,-478 121,-478"/>
<text text-anchor="middle" x="66.5" y="-466" font-family="sans" font-size="10.00">download_corpus</text>
<text text-anchor="middle" x="66.5" y="-455" font-family="sans" font-size="10.00">dataset: opus_ada83/v1</text>
<text text-anchor="middle" x="66.5" y="-444" font-family="sans" font-size="10.00">kind: corpus</text>
</g>
<!-- 5&#45;&gt;4 -->
<g id="edge13" class="edge">
<title>5&#45;&gt;4</title>
<path fill="none" stroke="grey" stroke-width="2" d="M80.69,-436.79C87.26,-427.66 95.15,-416.7 102.17,-406.95"/>
<polygon fill="grey" stroke="grey" stroke-width="2" points="105.06,-408.94 108.06,-398.78 99.38,-404.85 105.06,-408.94"/>
</g>
<!-- 6&#45;&gt;2 -->
<g id="edge12" class="edge">
<title>6&#45;&gt;2</title>
<path fill="none" stroke="grey" stroke-width="2" d="M397.33,-362.32C389.28,-353.2 379.25,-341.83 370.37,-331.77"/>
<polygon fill="grey" stroke="grey" stroke-width="2" points="372.8,-329.24 363.56,-324.06 367.55,-333.87 372.8,-329.24"/>
</g>
<!-- 6&#45;&gt;7 -->
<g id="edge17" class="edge">
<title>6&#45;&gt;7</title>
<path fill="none" stroke="grey" stroke-width="2" d="M436.67,-362.32C450.26,-352.66 467.41,-340.47 482.15,-330"/>
<polygon fill="grey" stroke="grey" stroke-width="2" points="484.38,-332.7 490.5,-324.06 480.32,-327 484.38,-332.7"/>
</g>
<!-- 6&#45;&gt;10 -->
<g id="edge21" class="edge">
<title>6&#45;&gt;10</title>
<path fill="none" stroke="grey" stroke-width="2" d="M417.24,-362.32C419.58,-353.83 422.46,-343.39 425.08,-333.88"/>
<polygon fill="grey" stroke="grey" stroke-width="2" points="428.51,-334.63 427.79,-324.06 421.76,-332.77 428.51,-334.63"/>
</g>
<!-- 7&#45;&gt;1 -->
<g id="edge7" class="edge">
<title>7&#45;&gt;1</title>
<path fill="none" stroke="grey" stroke-width="2" d="M508.07,-287.7C505.14,-279.81 501.61,-270.3 498.36,-261.55"/>
<polygon fill="grey" stroke="grey" stroke-width="2" points="501.62,-260.26 494.85,-252.1 495.05,-262.7 501.62,-260.26"/>
</g>
<!-- 8 -->
<g id="node9" class="node">
<title>8</title>
<path fill="none" stroke="#5663d8" stroke-width="2" d="M619.5,-398.5C619.5,-398.5 563.5,-398.5 563.5,-398.5 557.5,-398.5 551.5,-392.5 551.5,-386.5 551.5,-386.5 551.5,-374.5 551.5,-374.5 551.5,-368.5 557.5,-362.5 563.5,-362.5 563.5,-362.5 619.5,-362.5 619.5,-362.5 625.5,-362.5 631.5,-368.5 631.5,-374.5 631.5,-374.5 631.5,-386.5 631.5,-386.5 631.5,-392.5 625.5,-398.5 619.5,-398.5"/>
<text text-anchor="middle" x="591.5" y="-378" font-family="sans" font-size="10.00">clean_corpus</text>
</g>
<!-- 8&#45;&gt;7 -->
<g id="edge16" class="edge">
<title>8&#45;&gt;7</title>
<path fill="none" stroke="grey" stroke-width="2" d="M573.25,-362.32C563.38,-353.02 551.01,-341.38 540.18,-331.18"/>
<polygon fill="grey" stroke="grey" stroke-width="2" points="542.3,-328.37 532.62,-324.06 537.5,-333.46 542.3,-328.37"/>
</g>
<!-- 9 -->
<g id="node10" class="node">
<title>9</title>
<path fill="none" stroke="#d88556" stroke-width="2" d="M649.5,-478C649.5,-478 533.5,-478 533.5,-478 527.5,-478 521.5,-472 521.5,-466 521.5,-466 521.5,-449 521.5,-449 521.5,-443 527.5,-437 533.5,-437 533.5,-437 649.5,-437 649.5,-437 655.5,-437 661.5,-443 661.5,-449 661.5,-449 661.5,-466 661.5,-466 661.5,-472 655.5,-478 649.5,-478"/>
<text text-anchor="middle" x="591.5" y="-466" font-family="sans" font-size="10.00">download_corpus</text>
<text text-anchor="middle" x="591.5" y="-455" font-family="sans" font-size="10.00">dataset: opus_GNOME/v1</text>
<text text-anchor="middle" x="591.5" y="-444" font-family="sans" font-size="10.00">kind: corpus</text>
</g>
<!-- 9&#45;&gt;8 -->
<g id="edge18" class="edge">
<title>9&#45;&gt;8</title>
<path fill="none" stroke="grey" stroke-width="2" d="M591.5,-436.79C591.5,-428.31 591.5,-418.24 591.5,-409.04"/>
<polygon fill="grey" stroke="grey" stroke-width="2" points="595,-408.78 591.5,-398.78 588,-408.78 595,-408.78"/>
</g>
<!-- 10&#45;&gt;1 -->
<g id="edge8" class="edge">
<title>10&#45;&gt;1</title>
<path fill="none" stroke="grey" stroke-width="2" d="M446.34,-287.7C452.99,-279.39 461.08,-269.28 468.39,-260.14"/>
<polygon fill="grey" stroke="grey" stroke-width="2" points="471.3,-262.1 474.82,-252.1 465.84,-257.73 471.3,-262.1"/>
</g>
<!-- 11 -->
<g id="node12" class="node">
<title>11</title>
<path fill="none" stroke="#5663d8" stroke-width="2" d="M299.5,-398.5C299.5,-398.5 243.5,-398.5 243.5,-398.5 237.5,-398.5 231.5,-392.5 231.5,-386.5 231.5,-386.5 231.5,-374.5 231.5,-374.5 231.5,-368.5 237.5,-362.5 243.5,-362.5 243.5,-362.5 299.5,-362.5 299.5,-362.5 305.5,-362.5 311.5,-368.5 311.5,-374.5 311.5,-374.5 311.5,-386.5 311.5,-386.5 311.5,-392.5 305.5,-398.5 299.5,-398.5"/>
<text text-anchor="middle" x="271.5" y="-378" font-family="sans" font-size="10.00">clean_corpus</text>
</g>
<!-- 11&#45;&gt;10 -->
<g id="edge20" class="edge">
<title>11&#45;&gt;10</title>
<path fill="none" stroke="grey" stroke-width="2" d="M309.65,-362.32C334.47,-351.14 366.8,-336.59 392.06,-325.21"/>
<polygon fill="grey" stroke="grey" stroke-width="2" points="393.69,-328.32 401.37,-321.02 390.81,-321.93 393.69,-328.32"/>
</g>
<!-- 12 -->
<g id="node13" class="node">
<title>12</title>
<path fill="none" stroke="#d88556" stroke-width="2" d="M395.5,-478C395.5,-478 163.5,-478 163.5,-478 157.5,-478 151.5,-472 151.5,-466 151.5,-466 151.5,-449 151.5,-449 151.5,-443 157.5,-437 163.5,-437 163.5,-437 395.5,-437 395.5,-437 401.5,-437 407.5,-443 407.5,-449 407.5,-449 407.5,-466 407.5,-466 407.5,-472 401.5,-478 395.5,-478"/>
<text text-anchor="middle" x="279.5" y="-466" font-family="sans" font-size="10.00">download_corpus</text>
<text text-anchor="middle" x="279.5" y="-455" font-family="sans" font-size="10.00">dataset: mtdata_Neulab&#45;tedtalks_train&#45;1&#45;eng&#45;rus</text>
<text text-anchor="middle" x="279.5" y="-444" font-family="sans" font-size="10.00">kind: corpus</text>
</g>
<!-- 12&#45;&gt;11 -->
<g id="edge22" class="edge">
<title>12&#45;&gt;11</title>
<path fill="none" stroke="grey" stroke-width="2" d="M277.4,-436.79C276.48,-428.22 275.4,-418.02 274.41,-408.74"/>
<polygon fill="grey" stroke="grey" stroke-width="2" points="277.88,-408.35 273.34,-398.78 270.92,-409.09 277.88,-408.35"/>
</g>
<!-- 13 -->
<g id="node14" class="node">
<title>13</title>
<path fill="none" stroke="#d86656" stroke-width="2" d="M666.5,-324C666.5,-324 576.5,-324 576.5,-324 570.5,-324 564.5,-318 564.5,-312 564.5,-312 564.5,-300 564.5,-300 564.5,-294 570.5,-288 576.5,-288 576.5,-288 666.5,-288 666.5,-288 672.5,-288 678.5,-294 678.5,-300 678.5,-300 678.5,-312 678.5,-312 678.5,-318 672.5,-324 666.5,-324"/>
<text text-anchor="middle" x="621.5" y="-303.5" font-family="sans" font-size="10.00">compile_preprocess</text>
</g>
<!-- 13&#45;&gt;0 -->
<g id="edge3" class="edge">
<title>13&#45;&gt;0</title>
<path fill="none" stroke="grey" stroke-width="2" d="M618.94,-287.97C611.76,-240.19 591.37,-104.62 582.6,-46.27"/>
<polygon fill="grey" stroke="grey" stroke-width="2" points="586.05,-45.67 581.1,-36.31 579.13,-46.72 586.05,-45.67"/>
</g>
<!-- 13&#45;&gt;1 -->
<g id="edge9" class="edge">
<title>13&#45;&gt;1</title>
<path fill="none" stroke="grey" stroke-width="2" d="M588.96,-287.88C571.25,-278.55 549.15,-266.92 530.18,-256.94"/>
<polygon fill="grey" stroke="grey" stroke-width="2" points="531.64,-253.75 521.16,-252.19 528.38,-259.94 531.64,-253.75"/>
</g>
<!-- 14 -->
<g id="node15" class="node">
<title>14</title>
<path fill="none" stroke="#56d873" stroke-width="2" d="M749,-252C749,-252 692,-252 692,-252 686,-252 680,-246 680,-240 680,-240 680,-228 680,-228 680,-222 686,-216 692,-216 692,-216 749,-216 749,-216 755,-216 761,-222 761,-228 761,-228 761,-240 761,-240 761,-246 755,-252 749,-252"/>
<text text-anchor="middle" x="720.5" y="-231.5" font-family="sans" font-size="10.00">merge_mono</text>
</g>
<!-- 13&#45;&gt;14 -->
<g id="edge24" class="edge">
<title>13&#45;&gt;14</title>
<path fill="none" stroke="grey" stroke-width="2" d="M645.72,-287.88C658.42,-278.89 674.16,-267.76 687.92,-258.03"/>
<polygon fill="grey" stroke="grey" stroke-width="2" points="690.04,-260.82 696.19,-252.19 686,-255.11 690.04,-260.82"/>
</g>
<!-- 18 -->
<g id="node19" class="node">
<title>18</title>
<path fill="none" stroke="#78d856" stroke-width="2" d="M690.5,-180C690.5,-180 624.5,-180 624.5,-180 618.5,-180 612.5,-174 612.5,-168 612.5,-168 612.5,-156 612.5,-156 612.5,-150 618.5,-144 624.5,-144 624.5,-144 690.5,-144 690.5,-144 696.5,-144 702.5,-150 702.5,-156 702.5,-156 702.5,-168 702.5,-168 702.5,-174 696.5,-180 690.5,-180"/>
<text text-anchor="middle" x="657.5" y="-159.5" font-family="sans" font-size="10.00">split_mono_src</text>
</g>
<!-- 13&#45;&gt;18 -->
<g id="edge28" class="edge">
<title>13&#45;&gt;18</title>
<path fill="none" stroke="grey" stroke-width="2" d="M625.84,-287.87C632,-263.56 643.35,-218.82 650.65,-190.01"/>
<polygon fill="grey" stroke="grey" stroke-width="2" points="654.08,-190.74 653.14,-180.19 647.29,-189.02 654.08,-190.74"/>
</g>
<!-- 14&#45;&gt;0 -->
<g id="edge2" class="edge">
<title>14&#45;&gt;0</title>
<path fill="none" stroke="grey" stroke-width="2" d="M725.89,-215.83C734.69,-184.16 748.28,-115.8 717.5,-72 699.83,-46.86 668.57,-33.64 640.15,-26.69"/>
<polygon fill="grey" stroke="grey" stroke-width="2" points="640.77,-23.24 630.25,-24.48 639.25,-30.08 640.77,-23.24"/>
</g>
<!-- 14&#45;&gt;18 -->
<g id="edge27" class="edge">
<title>14&#45;&gt;18</title>
<path fill="none" stroke="grey" stroke-width="2" d="M704.93,-215.7C697.3,-207.22 687.98,-196.86 679.62,-187.58"/>
<polygon fill="grey" stroke="grey" stroke-width="2" points="682.19,-185.2 672.89,-180.1 676.98,-189.88 682.19,-185.2"/>
</g>
<!-- 15 -->
<g id="node16" class="node">
<title>15</title>
<path fill="none" stroke="#56d89a" stroke-width="2" d="M761.5,-324C761.5,-324 709.5,-324 709.5,-324 703.5,-324 697.5,-318 697.5,-312 697.5,-312 697.5,-300 697.5,-300 697.5,-294 703.5,-288 709.5,-288 709.5,-288 761.5,-288 761.5,-288 767.5,-288 773.5,-294 773.5,-300 773.5,-300 773.5,-312 773.5,-312 773.5,-318 767.5,-324 761.5,-324"/>
<text text-anchor="middle" x="735.5" y="-303.5" font-family="sans" font-size="10.00">clean_mono</text>
</g>
<!-- 15&#45;&gt;14 -->
<g id="edge23" class="edge">
<title>15&#45;&gt;14</title>
<path fill="none" stroke="grey" stroke-width="2" d="M731.79,-287.7C730.14,-279.98 728.15,-270.71 726.31,-262.11"/>
<polygon fill="grey" stroke="grey" stroke-width="2" points="729.68,-261.15 724.17,-252.1 722.84,-262.62 729.68,-261.15"/>
</g>
<!-- 16 -->
<g id="node17" class="node">
<title>16</title>
<path fill="none" stroke="#56d8b1" stroke-width="2" d="M811,-401C811,-401 662,-401 662,-401 656,-401 650,-395 650,-389 650,-389 650,-372 650,-372 650,-366 656,-360 662,-360 662,-360 811,-360 811,-360 817,-360 823,-366 823,-372 823,-372 823,-389 823,-389 823,-395 817,-401 811,-401"/>
<text text-anchor="middle" x="736.5" y="-389" font-family="sans" font-size="10.00">download_mono</text>
<text text-anchor="middle" x="736.5" y="-378" font-family="sans" font-size="10.00">dataset: news&#45;crawl_news.2020</text>
<text text-anchor="middle" x="736.5" y="-367" font-family="sans" font-size="10.00">lang: ru</text>
</g>
<!-- 16&#45;&gt;15 -->
<g id="edge25" class="edge">
<title>16&#45;&gt;15</title>
<path fill="none" stroke="grey" stroke-width="2" d="M736.23,-359.69C736.12,-351.91 735.99,-342.84 735.88,-334.45"/>
<polygon fill="grey" stroke="grey" stroke-width="2" points="739.38,-334.27 735.74,-324.32 732.38,-334.37 739.38,-334.27"/>
</g>
<!-- 19 -->
<g id="node20" class="node">
<title>19</title>
<path fill="none" stroke="#56a2d8" stroke-width="2" d="M500.5,-108C500.5,-108 438.5,-108 438.5,-108 432.5,-108 426.5,-102 426.5,-96 426.5,-96 426.5,-84 426.5,-84 426.5,-78 432.5,-72 438.5,-72 438.5,-72 500.5,-72 500.5,-72 506.5,-72 512.5,-78 512.5,-84 512.5,-84 512.5,-96 512.5,-96 512.5,-102 506.5,-108 500.5,-108"/>
<text text-anchor="middle" x="469.5" y="-87.5" font-family="sans" font-size="10.00">collect_corpus</text>
</g>
<!-- 17&#45;&gt;19 -->
<g id="edge29" class="edge">
<title>17&#45;&gt;19</title>
<path fill="none" stroke="grey" stroke-width="2" d="M471.76,-143.7C471.43,-135.98 471.03,-126.71 470.66,-118.11"/>
<polygon fill="grey" stroke="grey" stroke-width="2" points="474.16,-117.95 470.23,-108.1 467.16,-118.25 474.16,-117.95"/>
</g>
<!-- 20 -->
<g id="node21" class="node">
<title>20</title>
<path fill="none" stroke="#d8c356" stroke-width="2" d="M696,-108C696,-108 619,-108 619,-108 613,-108 607,-102 607,-96 607,-96 607,-84 607,-84 607,-78 613,-72 619,-72 619,-72 696,-72 696,-72 702,-72 708,-78 708,-84 708,-84 708,-96 708,-96 708,-102 702,-108 696,-108"/>
<text text-anchor="middle" x="657.5" y="-87.5" font-family="sans" font-size="10.00">collect_mono_src</text>
</g>
<!-- 18&#45;&gt;20 -->
<g id="edge30" class="edge">
<title>18&#45;&gt;20</title>
<path fill="none" stroke="grey" stroke-width="2" d="M657.5,-143.7C657.5,-135.98 657.5,-126.71 657.5,-118.11"/>
<polygon fill="grey" stroke="grey" stroke-width="2" points="661,-118.1 657.5,-108.1 654,-118.1 661,-118.1"/>
</g>
<!-- 19&#45;&gt;0 -->
<g id="edge4" class="edge">
<title>19&#45;&gt;0</title>
<path fill="none" stroke="grey" stroke-width="2" d="M496.16,-71.88C510.28,-62.81 527.81,-51.55 543.06,-41.76"/>
<polygon fill="grey" stroke="grey" stroke-width="2" points="545.21,-44.54 551.73,-36.19 541.43,-38.65 545.21,-44.54"/>
</g>
<!-- 20&#45;&gt;0 -->
<g id="edge5" class="edge">
<title>20&#45;&gt;0</title>
<path fill="none" stroke="grey" stroke-width="2" d="M637.97,-71.7C628.12,-62.97 616.01,-52.24 605.3,-42.75"/>
<polygon fill="grey" stroke="grey" stroke-width="2" points="607.61,-40.12 597.8,-36.1 602.97,-45.36 607.61,-40.12"/>
</g>
</g>
</svg>
