<?xml version="1.0" encoding="UTF-8" standalone="no"?>
<!DOCTYPE svg PUBLIC "-//W3C//DTD SVG 1.1//EN"
 "http://www.w3.org/Graphics/SVG/1.1/DTD/svg11.dtd">
<!-- Generated by graphviz version 2.43.0 (0)
 -->
<!-- Title: snakemake_dag Pages: 1 -->
<svg width="920pt" height="414pt"
 viewBox="0.00 0.00 920.00 414.00" xmlns="http://www.w3.org/2000/svg" xmlns:xlink="http://www.w3.org/1999/xlink">
<g id="graph0" class="graph" transform="scale(1 1) rotate(0) translate(4 410)">
<title>snakemake_dag</title>
<polygon fill="white" stroke="transparent" points="-4,4 -4,-410 916,-410 916,4 -4,4"/>
<!-- 0 -->
<g id="node1" class="node">
<title>0</title>
<path fill="none" stroke="#56d873" stroke-width="2" d="M712,-36C712,-36 627,-36 627,-36 621,-36 615,-30 615,-24 615,-24 615,-12 615,-12 615,-6 621,0 627,0 627,0 712,0 712,0 718,0 724,-6 724,-12 724,-12 724,-24 724,-24 724,-30 718,-36 712,-36"/>
<text text-anchor="middle" x="669.5" y="-15.5" font-family="sans" font-size="10.00">merge_augmented</text>
</g>
<!-- 1 -->
<g id="node2" class="node">
<title>1</title>
<path fill="none" stroke="#d85656" stroke-width="2" d="M362.5,-108C362.5,-108 300.5,-108 300.5,-108 294.5,-108 288.5,-102 288.5,-96 288.5,-96 288.5,-84 288.5,-84 288.5,-78 294.5,-72 300.5,-72 300.5,-72 362.5,-72 362.5,-72 368.5,-72 374.5,-78 374.5,-84 374.5,-84 374.5,-96 374.5,-96 374.5,-102 368.5,-108 362.5,-108"/>
<text text-anchor="middle" x="331.5" y="-87.5" font-family="sans" font-size="10.00">merge_corpus</text>
</g>
<!-- 1&#45;&gt;0 -->
<g id="edge1" class="edge">
<title>1&#45;&gt;0</title>
<path fill="none" stroke="grey" stroke-width="2" d="M374.65,-80.06C432.88,-68 537.11,-46.42 604.75,-32.41"/>
<polygon fill="grey" stroke="grey" stroke-width="2" points="605.79,-35.77 614.87,-30.31 604.37,-28.91 605.79,-35.77"/>
</g>
<!-- 2 -->
<g id="node3" class="node">
<title>2</title>
<path fill="none" stroke="#78d856" stroke-width="2" d="M175.5,-180C175.5,-180 137.5,-180 137.5,-180 131.5,-180 125.5,-174 125.5,-168 125.5,-168 125.5,-156 125.5,-156 125.5,-150 131.5,-144 137.5,-144 137.5,-144 175.5,-144 175.5,-144 181.5,-144 187.5,-150 187.5,-156 187.5,-156 187.5,-168 187.5,-168 187.5,-174 181.5,-180 175.5,-180"/>
<text text-anchor="middle" x="156.5" y="-159.5" font-family="sans" font-size="10.00">bicleaner</text>
</g>
<!-- 2&#45;&gt;1 -->
<g id="edge5" class="edge">
<title>2&#45;&gt;1</title>
<path fill="none" stroke="grey" stroke-width="2" d="M187.79,-148.49C213.25,-138.3 249.72,-123.71 279.55,-111.78"/>
<polygon fill="grey" stroke="grey" stroke-width="2" points="280.99,-114.97 288.98,-108.01 278.39,-108.47 280.99,-114.97"/>
</g>
<!-- 3 -->
<g id="node4" class="node">
<title>3</title>
<path fill="none" stroke="#a7d856" stroke-width="2" d="M193.5,-326.5C193.5,-326.5 163.5,-326.5 163.5,-326.5 157.5,-326.5 151.5,-320.5 151.5,-314.5 151.5,-314.5 151.5,-302.5 151.5,-302.5 151.5,-296.5 157.5,-290.5 163.5,-290.5 163.5,-290.5 193.5,-290.5 193.5,-290.5 199.5,-290.5 205.5,-296.5 205.5,-302.5 205.5,-302.5 205.5,-314.5 205.5,-314.5 205.5,-320.5 199.5,-326.5 193.5,-326.5"/>
<text text-anchor="middle" x="178.5" y="-306" font-family="sans" font-size="10.00">kenlm</text>
</g>
<!-- 3&#45;&gt;2 -->
<g id="edge9" class="edge">
<title>3&#45;&gt;2</title>
<path fill="none" stroke="grey" stroke-width="2" d="M173.38,-290.15C170.35,-279.28 166.7,-264.93 164.5,-252 161.01,-231.48 158.98,-208.03 157.84,-190.35"/>
<polygon fill="grey" stroke="grey" stroke-width="2" points="161.32,-189.94 157.24,-180.16 154.34,-190.35 161.32,-189.94"/>
</g>
<!-- 6 -->
<g id="node7" class="node">
<title>6</title>
<path fill="none" stroke="#56d8c9" stroke-width="2" d="M284.5,-252C284.5,-252 218.5,-252 218.5,-252 212.5,-252 206.5,-246 206.5,-240 206.5,-240 206.5,-228 206.5,-228 206.5,-222 212.5,-216 218.5,-216 218.5,-216 284.5,-216 284.5,-216 290.5,-216 296.5,-222 296.5,-228 296.5,-228 296.5,-240 296.5,-240 296.5,-246 290.5,-252 284.5,-252"/>
<text text-anchor="middle" x="251.5" y="-231.5" font-family="sans" font-size="10.00">bicleaner_pack</text>
</g>
<!-- 3&#45;&gt;6 -->
<g id="edge13" class="edge">
<title>3&#45;&gt;6</title>
<path fill="none" stroke="grey" stroke-width="2" d="M195.8,-290.32C205.16,-281.02 216.88,-269.38 227.16,-259.18"/>
<polygon fill="grey" stroke="grey" stroke-width="2" points="229.7,-261.59 234.32,-252.06 224.76,-256.62 229.7,-261.59"/>
</g>
<!-- 7 -->
<g id="node8" class="node">
<title>7</title>
<path fill="none" stroke="#78d856" stroke-width="2" d="M350.5,-180C350.5,-180 312.5,-180 312.5,-180 306.5,-180 300.5,-174 300.5,-168 300.5,-168 300.5,-156 300.5,-156 300.5,-150 306.5,-144 312.5,-144 312.5,-144 350.5,-144 350.5,-144 356.5,-144 362.5,-150 362.5,-156 362.5,-156 362.5,-168 362.5,-168 362.5,-174 356.5,-180 350.5,-180"/>
<text text-anchor="middle" x="331.5" y="-159.5" font-family="sans" font-size="10.00">bicleaner</text>
</g>
<!-- 3&#45;&gt;7 -->
<g id="edge14" class="edge">
<title>3&#45;&gt;7</title>
<path fill="none" stroke="grey" stroke-width="2" d="M205.84,-292.25C208.74,-290.77 211.67,-289.32 214.5,-288 253.91,-269.61 276.2,-284.14 305.5,-252 320.87,-235.14 327.19,-209.66 329.77,-190.28"/>
<polygon fill="grey" stroke="grey" stroke-width="2" points="333.26,-190.55 330.85,-180.23 326.3,-189.8 333.26,-190.55"/>
</g>
<!-- 10 -->
<g id="node11" class="node">
<title>10</title>
<path fill="none" stroke="#78d856" stroke-width="2" d="M270.5,-180C270.5,-180 232.5,-180 232.5,-180 226.5,-180 220.5,-174 220.5,-168 220.5,-168 220.5,-156 220.5,-156 220.5,-150 226.5,-144 232.5,-144 232.5,-144 270.5,-144 270.5,-144 276.5,-144 282.5,-150 282.5,-156 282.5,-156 282.5,-168 282.5,-168 282.5,-174 276.5,-180 270.5,-180"/>
<text text-anchor="middle" x="251.5" y="-159.5" font-family="sans" font-size="10.00">bicleaner</text>
</g>
<!-- 3&#45;&gt;10 -->
<g id="edge18" class="edge">
<title>3&#45;&gt;10</title>
<path fill="none" stroke="grey" stroke-width="2" d="M179.11,-290.29C180.44,-271.09 184.59,-239.64 197.5,-216 203.39,-205.21 212.19,-195.23 220.99,-186.9"/>
<polygon fill="grey" stroke="grey" stroke-width="2" points="223.54,-189.32 228.64,-180.03 218.86,-184.11 223.54,-189.32"/>
</g>
<!-- 4 -->
<g id="node5" class="node">
<title>4</title>
<path fill="none" stroke="#56d0d8" stroke-width="2" d="M97.5,-252C97.5,-252 41.5,-252 41.5,-252 35.5,-252 29.5,-246 29.5,-240 29.5,-240 29.5,-228 29.5,-228 29.5,-222 35.5,-216 41.5,-216 41.5,-216 97.5,-216 97.5,-216 103.5,-216 109.5,-222 109.5,-228 109.5,-228 109.5,-240 109.5,-240 109.5,-246 103.5,-252 97.5,-252"/>
<text text-anchor="middle" x="69.5" y="-231.5" font-family="sans" font-size="10.00">clean_corpus</text>
</g>
<!-- 4&#45;&gt;2 -->
<g id="edge10" class="edge">
<title>4&#45;&gt;2</title>
<path fill="none" stroke="grey" stroke-width="2" d="M91.01,-215.7C101.96,-206.88 115.45,-196.03 127.32,-186.47"/>
<polygon fill="grey" stroke="grey" stroke-width="2" points="129.64,-189.1 135.24,-180.1 125.26,-183.65 129.64,-189.1"/>
</g>
<!-- 5 -->
<g id="node6" class="node">
<title>5</title>
<path fill="none" stroke="#56d8d8" stroke-width="2" d="M121,-329C121,-329 12,-329 12,-329 6,-329 0,-323 0,-317 0,-317 0,-300 0,-300 0,-294 6,-288 12,-288 12,-288 121,-288 121,-288 127,-288 133,-294 133,-300 133,-300 133,-317 133,-317 133,-323 127,-329 121,-329"/>
<text text-anchor="middle" x="66.5" y="-317" font-family="sans" font-size="10.00">download_corpus</text>
<text text-anchor="middle" x="66.5" y="-306" font-family="sans" font-size="10.00">dataset: opus_ada83/v1</text>
<text text-anchor="middle" x="66.5" y="-295" font-family="sans" font-size="10.00">kind: corpus</text>
</g>
<!-- 5&#45;&gt;4 -->
<g id="edge12" class="edge">
<title>5&#45;&gt;4</title>
<path fill="none" stroke="grey" stroke-width="2" d="M67.32,-287.69C67.64,-279.91 68.02,-270.84 68.36,-262.45"/>
<polygon fill="grey" stroke="grey" stroke-width="2" points="71.87,-262.46 68.78,-252.32 64.87,-262.17 71.87,-262.46"/>
</g>
<!-- 6&#45;&gt;2 -->
<g id="edge11" class="edge">
<title>6&#45;&gt;2</title>
<path fill="none" stroke="grey" stroke-width="2" d="M228.02,-215.7C215.94,-206.8 201.05,-195.82 187.98,-186.2"/>
<polygon fill="grey" stroke="grey" stroke-width="2" points="189.84,-183.22 179.71,-180.1 185.69,-188.85 189.84,-183.22"/>
</g>
<!-- 6&#45;&gt;7 -->
<g id="edge16" class="edge">
<title>6&#45;&gt;7</title>
<path fill="none" stroke="grey" stroke-width="2" d="M271.28,-215.7C281.25,-206.97 293.51,-196.24 304.36,-186.75"/>
<polygon fill="grey" stroke="grey" stroke-width="2" points="306.73,-189.32 311.95,-180.1 302.12,-184.06 306.73,-189.32"/>
</g>
<!-- 6&#45;&gt;10 -->
<g id="edge20" class="edge">
<title>6&#45;&gt;10</title>
<path fill="none" stroke="grey" stroke-width="2" d="M251.5,-215.7C251.5,-207.98 251.5,-198.71 251.5,-190.11"/>
<polygon fill="grey" stroke="grey" stroke-width="2" points="255,-190.1 251.5,-180.1 248,-190.1 255,-190.1"/>
</g>
<!-- 7&#45;&gt;1 -->
<g id="edge6" class="edge">
<title>7&#45;&gt;1</title>
<path fill="none" stroke="grey" stroke-width="2" d="M331.5,-143.7C331.5,-135.98 331.5,-126.71 331.5,-118.11"/>
<polygon fill="grey" stroke="grey" stroke-width="2" points="335,-118.1 331.5,-108.1 328,-118.1 335,-118.1"/>
</g>
<!-- 8 -->
<g id="node9" class="node">
<title>8</title>
<path fill="none" stroke="#56d0d8" stroke-width="2" d="M533.5,-252C533.5,-252 477.5,-252 477.5,-252 471.5,-252 465.5,-246 465.5,-240 465.5,-240 465.5,-228 465.5,-228 465.5,-222 471.5,-216 477.5,-216 477.5,-216 533.5,-216 533.5,-216 539.5,-216 545.5,-222 545.5,-228 545.5,-228 545.5,-240 545.5,-240 545.5,-246 539.5,-252 533.5,-252"/>
<text text-anchor="middle" x="505.5" y="-231.5" font-family="sans" font-size="10.00">clean_corpus</text>
</g>
<!-- 8&#45;&gt;7 -->
<g id="edge15" class="edge">
<title>8&#45;&gt;7</title>
<path fill="none" stroke="grey" stroke-width="2" d="M465.14,-216.76C437.21,-205.53 400.18,-190.63 372.18,-179.37"/>
<polygon fill="grey" stroke="grey" stroke-width="2" points="373.27,-176.03 362.68,-175.54 370.65,-182.52 373.27,-176.03"/>
</g>
<!-- 9 -->
<g id="node10" class="node">
<title>9</title>
<path fill="none" stroke="#56d8d8" stroke-width="2" d="M625.5,-329C625.5,-329 509.5,-329 509.5,-329 503.5,-329 497.5,-323 497.5,-317 497.5,-317 497.5,-300 497.5,-300 497.5,-294 503.5,-288 509.5,-288 509.5,-288 625.5,-288 625.5,-288 631.5,-288 637.5,-294 637.5,-300 637.5,-300 637.5,-317 637.5,-317 637.5,-323 631.5,-329 625.5,-329"/>
<text text-anchor="middle" x="567.5" y="-317" font-family="sans" font-size="10.00">download_corpus</text>
<text text-anchor="middle" x="567.5" y="-306" font-family="sans" font-size="10.00">dataset: opus_GNOME/v1</text>
<text text-anchor="middle" x="567.5" y="-295" font-family="sans" font-size="10.00">kind: corpus</text>
</g>
<!-- 9&#45;&gt;8 -->
<g id="edge17" class="edge">
<title>9&#45;&gt;8</title>
<path fill="none" stroke="grey" stroke-width="2" d="M550.56,-287.69C543.24,-279.13 534.59,-269.02 526.84,-259.95"/>
<polygon fill="grey" stroke="grey" stroke-width="2" points="529.47,-257.64 520.31,-252.32 524.15,-262.19 529.47,-257.64"/>
</g>
<!-- 10&#45;&gt;1 -->
<g id="edge7" class="edge">
<title>10&#45;&gt;1</title>
<path fill="none" stroke="grey" stroke-width="2" d="M271.28,-143.7C281.25,-134.97 293.51,-124.24 304.36,-114.75"/>
<polygon fill="grey" stroke="grey" stroke-width="2" points="306.73,-117.32 311.95,-108.1 302.12,-112.06 306.73,-117.32"/>
</g>
<!-- 11 -->
<g id="node12" class="node">
<title>11</title>
<path fill="none" stroke="#56d0d8" stroke-width="2" d="M420.5,-252C420.5,-252 364.5,-252 364.5,-252 358.5,-252 352.5,-246 352.5,-240 352.5,-240 352.5,-228 352.5,-228 352.5,-222 358.5,-216 364.5,-216 364.5,-216 420.5,-216 420.5,-216 426.5,-216 432.5,-222 432.5,-228 432.5,-228 432.5,-240 432.5,-240 432.5,-246 426.5,-252 420.5,-252"/>
<text text-anchor="middle" x="392.5" y="-231.5" font-family="sans" font-size="10.00">clean_corpus</text>
</g>
<!-- 11&#45;&gt;10 -->
<g id="edge19" class="edge">
<title>11&#45;&gt;10</title>
<path fill="none" stroke="grey" stroke-width="2" d="M358.01,-215.88C337.98,-205.93 312.65,-193.36 291.72,-182.97"/>
<polygon fill="grey" stroke="grey" stroke-width="2" points="293.26,-179.83 282.75,-178.51 290.15,-186.1 293.26,-179.83"/>
</g>
<!-- 12 -->
<g id="node13" class="node">
<title>12</title>
<path fill="none" stroke="#56d8d8" stroke-width="2" d="M467.5,-329C467.5,-329 235.5,-329 235.5,-329 229.5,-329 223.5,-323 223.5,-317 223.5,-317 223.5,-300 223.5,-300 223.5,-294 229.5,-288 235.5,-288 235.5,-288 467.5,-288 467.5,-288 473.5,-288 479.5,-294 479.5,-300 479.5,-300 479.5,-317 479.5,-317 479.5,-323 473.5,-329 467.5,-329"/>
<text text-anchor="middle" x="351.5" y="-317" font-family="sans" font-size="10.00">download_corpus</text>
<text text-anchor="middle" x="351.5" y="-306" font-family="sans" font-size="10.00">dataset: mtdata_Neulab&#45;tedtalks_train&#45;1&#45;eng&#45;rus</text>
<text text-anchor="middle" x="351.5" y="-295" font-family="sans" font-size="10.00">kind: corpus</text>
</g>
<!-- 12&#45;&gt;11 -->
<g id="edge21" class="edge">
<title>12&#45;&gt;11</title>
<path fill="none" stroke="grey" stroke-width="2" d="M362.7,-287.69C367.35,-279.47 372.8,-269.83 377.77,-261.05"/>
<polygon fill="grey" stroke="grey" stroke-width="2" points="380.83,-262.75 382.71,-252.32 374.74,-259.3 380.83,-262.75"/>
</g>
<!-- 13 -->
<g id="node14" class="node">
<title>13</title>
<path fill="none" stroke="#d88556" stroke-width="2" d="M757.5,-326.5C757.5,-326.5 667.5,-326.5 667.5,-326.5 661.5,-326.5 655.5,-320.5 655.5,-314.5 655.5,-314.5 655.5,-302.5 655.5,-302.5 655.5,-296.5 661.5,-290.5 667.5,-290.5 667.5,-290.5 757.5,-290.5 757.5,-290.5 763.5,-290.5 769.5,-296.5 769.5,-302.5 769.5,-302.5 769.5,-314.5 769.5,-314.5 769.5,-320.5 763.5,-326.5 757.5,-326.5"/>
<text text-anchor="middle" x="712.5" y="-306" font-family="sans" font-size="10.00">compile_preprocess</text>
</g>
<!-- 13&#45;&gt;0 -->
<g id="edge3" class="edge">
<title>13&#45;&gt;0</title>
<path fill="none" stroke="grey" stroke-width="2" d="M703.66,-290.26C691.72,-266.22 670.65,-220.94 659.5,-180 651.01,-148.83 651.73,-140.23 649.5,-108 648.4,-92.04 646.63,-87.74 649.5,-72 651.11,-63.2 654.1,-53.95 657.29,-45.7"/>
<polygon fill="grey" stroke="grey" stroke-width="2" points="660.62,-46.79 661.19,-36.21 654.15,-44.12 660.62,-46.79"/>
</g>
<!-- 13&#45;&gt;1 -->
<g id="edge8" class="edge">
<title>13&#45;&gt;1</title>
<path fill="none" stroke="grey" stroke-width="2" d="M682.65,-290.26C663.7,-279.31 638.65,-264.84 616.5,-252 588.93,-236.03 582.18,-231.79 554.5,-216 490.48,-179.48 415.69,-137.74 371.03,-112.92"/>
<polygon fill="grey" stroke="grey" stroke-width="2" points="372.69,-109.84 362.24,-108.04 369.29,-115.96 372.69,-109.84"/>
</g>
<!-- 14 -->
<g id="node15" class="node">
<title>14</title>
<path fill="none" stroke="#56d882" stroke-width="2" d="M745,-180C745,-180 680,-180 680,-180 674,-180 668,-174 668,-168 668,-168 668,-156 668,-156 668,-150 674,-144 680,-144 680,-144 745,-144 745,-144 751,-144 757,-150 757,-156 757,-156 757,-168 757,-168 757,-174 751,-180 745,-180"/>
<text text-anchor="middle" x="712.5" y="-159.5" font-family="sans" font-size="10.00">split_mono_trg</text>
</g>
<!-- 13&#45;&gt;14 -->
<g id="edge23" class="edge">
<title>13&#45;&gt;14</title>
<path fill="none" stroke="grey" stroke-width="2" d="M712.5,-290.36C712.5,-265.59 712.5,-219.55 712.5,-190.13"/>
<polygon fill="grey" stroke="grey" stroke-width="2" points="716,-190.12 712.5,-180.12 709,-190.12 716,-190.12"/>
</g>
<!-- 15 -->
<g id="node16" class="node">
<title>15</title>
<path fill="none" stroke="#d87d56" stroke-width="2" d="M814,-252C814,-252 757,-252 757,-252 751,-252 745,-246 745,-240 745,-240 745,-228 745,-228 745,-222 751,-216 757,-216 757,-216 814,-216 814,-216 820,-216 826,-222 826,-228 826,-228 826,-240 826,-240 826,-246 820,-252 814,-252"/>
<text text-anchor="middle" x="785.5" y="-231.5" font-family="sans" font-size="10.00">merge_mono</text>
</g>
<!-- 13&#45;&gt;15 -->
<g id="edge25" class="edge">
<title>13&#45;&gt;15</title>
<path fill="none" stroke="grey" stroke-width="2" d="M729.8,-290.32C739.16,-281.02 750.88,-269.38 761.16,-259.18"/>
<polygon fill="grey" stroke="grey" stroke-width="2" points="763.7,-261.59 768.32,-252.06 758.76,-256.62 763.7,-261.59"/>
</g>
<!-- 18 -->
<g id="node19" class="node">
<title>18</title>
<path fill="none" stroke="#d89c56" stroke-width="2" d="M748,-108C748,-108 671,-108 671,-108 665,-108 659,-102 659,-96 659,-96 659,-84 659,-84 659,-78 665,-72 671,-72 671,-72 748,-72 748,-72 754,-72 760,-78 760,-84 760,-84 760,-96 760,-96 760,-102 754,-108 748,-108"/>
<text text-anchor="middle" x="709.5" y="-87.5" font-family="sans" font-size="10.00">collect_mono_trg</text>
</g>
<!-- 14&#45;&gt;18 -->
<g id="edge27" class="edge">
<title>14&#45;&gt;18</title>
<path fill="none" stroke="grey" stroke-width="2" d="M711.76,-143.7C711.43,-135.98 711.03,-126.71 710.66,-118.11"/>
<polygon fill="grey" stroke="grey" stroke-width="2" points="714.16,-117.95 710.23,-108.1 707.16,-118.25 714.16,-117.95"/>
</g>
<!-- 15&#45;&gt;0 -->
<g id="edge2" class="edge">
<title>15&#45;&gt;0</title>
<path fill="none" stroke="grey" stroke-width="2" d="M788.71,-215.75C793.59,-184.24 799.4,-116.54 769.5,-72 760.48,-58.56 746.9,-48.28 732.64,-40.52"/>
<polygon fill="grey" stroke="grey" stroke-width="2" points="734.21,-37.39 723.71,-36.01 731.05,-43.64 734.21,-37.39"/>
</g>
<!-- 15&#45;&gt;14 -->
<g id="edge22" class="edge">
<title>15&#45;&gt;14</title>
<path fill="none" stroke="grey" stroke-width="2" d="M767.46,-215.7C758.44,-207.05 747.38,-196.45 737.56,-187.03"/>
<polygon fill="grey" stroke="grey" stroke-width="2" points="739.98,-184.5 730.34,-180.1 735.13,-189.55 739.98,-184.5"/>
</g>
<!-- 16 -->
<g id="node17" class="node">
<title>16</title>
<path fill="none" stroke="#56d8c1" stroke-width="2" d="M851.5,-326.5C851.5,-326.5 799.5,-326.5 799.5,-326.5 793.5,-326.5 787.5,-320.5 787.5,-314.5 787.5,-314.5 787.5,-302.5 787.5,-302.5 787.5,-296.5 793.5,-290.5 799.5,-290.5 799.5,-290.5 851.5,-290.5 851.5,-290.5 857.5,-290.5 863.5,-296.5 863.5,-302.5 863.5,-302.5 863.5,-314.5 863.5,-314.5 863.5,-320.5 857.5,-326.5 851.5,-326.5"/>
<text text-anchor="middle" x="825.5" y="-306" font-family="sans" font-size="10.00">clean_mono</text>
</g>
<!-- 16&#45;&gt;15 -->
<g id="edge24" class="edge">
<title>16&#45;&gt;15</title>
<path fill="none" stroke="grey" stroke-width="2" d="M816.02,-290.32C811.19,-281.56 805.21,-270.73 799.83,-260.97"/>
<polygon fill="grey" stroke="grey" stroke-width="2" points="802.81,-259.12 794.91,-252.06 796.68,-262.5 802.81,-259.12"/>
</g>
<!-- 17 -->
<g id="node18" class="node">
<title>17</title>
<path fill="none" stroke="#d6d856" stroke-width="2" d="M900,-406C900,-406 751,-406 751,-406 745,-406 739,-400 739,-394 739,-394 739,-377 739,-377 739,-371 745,-365 751,-365 751,-365 900,-365 900,-365 906,-365 912,-371 912,-377 912,-377 912,-394 912,-394 912,-400 906,-406 900,-406"/>
<text text-anchor="middle" x="825.5" y="-394" font-family="sans" font-size="10.00">download_mono</text>
<text text-anchor="middle" x="825.5" y="-383" font-family="sans" font-size="10.00">dataset: news&#45;crawl_news.2020</text>
<text text-anchor="middle" x="825.5" y="-372" font-family="sans" font-size="10.00">lang: en</text>
</g>
<!-- 17&#45;&gt;16 -->
<g id="edge26" class="edge">
<title>17&#45;&gt;16</title>
<path fill="none" stroke="grey" stroke-width="2" d="M825.5,-364.79C825.5,-356.31 825.5,-346.24 825.5,-337.04"/>
<polygon fill="grey" stroke="grey" stroke-width="2" points="829,-336.78 825.5,-326.78 822,-336.78 829,-336.78"/>
</g>
<!-- 18&#45;&gt;0 -->
<g id="edge4" class="edge">
<title>18&#45;&gt;0</title>
<path fill="none" stroke="grey" stroke-width="2" d="M699.61,-71.7C695.01,-63.64 689.44,-53.89 684.35,-44.98"/>
<polygon fill="grey" stroke="grey" stroke-width="2" points="687.27,-43.05 679.27,-36.1 681.2,-46.52 687.27,-43.05"/>
</g>
</g>
</svg>
