<?xml version="1.0" encoding="UTF-8" standalone="no"?>
<!DOCTYPE svg PUBLIC "-//W3C//DTD SVG 1.1//EN"
 "http://www.w3.org/Graphics/SVG/1.1/DTD/svg11.dtd">
<!-- Generated by graphviz version 2.43.0 (0)
 -->
<!-- Title: snakemake_dag Pages: 1 -->
<svg width="1187pt" height="563pt"
 viewBox="0.00 0.00 1186.67 563.00" xmlns="http://www.w3.org/2000/svg" xmlns:xlink="http://www.w3.org/1999/xlink">
<g id="graph0" class="graph" transform="scale(1 1) rotate(0) translate(4 559)">
<title>snakemake_dag</title>
<polygon fill="white" stroke="transparent" points="-4,4 -4,-559 1182.67,-559 1182.67,4 -4,4"/>
<!-- 0 -->
<g id="node1" class="node">
<title>0</title>
<path fill="none" stroke="#bed856" stroke-width="2" d="M714,-36C714,-36 628,-36 628,-36 622,-36 616,-30 616,-24 616,-24 616,-12 616,-12 616,-6 622,0 628,0 628,0 714,0 714,0 720,0 726,-6 726,-12 726,-12 726,-24 726,-24 726,-30 720,-36 714,-36"/>
<text text-anchor="middle" x="671" y="-15.5" font-family="sans" font-size="10.00">train_teacher_done</text>
</g>
<!-- 1 -->
<g id="node2" class="node">
<title>1</title>
<path fill="none" stroke="#8fd856" stroke-width="2" d="M749.5,-108C749.5,-108 692.5,-108 692.5,-108 686.5,-108 680.5,-102 680.5,-96 680.5,-96 680.5,-84 680.5,-84 680.5,-78 686.5,-72 692.5,-72 692.5,-72 749.5,-72 749.5,-72 755.5,-72 761.5,-78 761.5,-84 761.5,-84 761.5,-96 761.5,-96 761.5,-102 755.5,-108 749.5,-108"/>
<text text-anchor="middle" x="721" y="-93" font-family="sans" font-size="10.00">train_teacher</text>
<text text-anchor="middle" x="721" y="-82" font-family="sans" font-size="10.00">ens: 0</text>
</g>
<!-- 1&#45;&gt;0 -->
<g id="edge1" class="edge">
<title>1&#45;&gt;0</title>
<path fill="none" stroke="grey" stroke-width="2" d="M708.64,-71.7C702.77,-63.47 695.63,-53.48 689.16,-44.42"/>
<polygon fill="grey" stroke="grey" stroke-width="2" points="691.88,-42.21 683.22,-36.1 686.18,-46.28 691.88,-42.21"/>
</g>
<!-- 2 -->
<g id="node3" class="node">
<title>2</title>
<path fill="none" stroke="#568ad8" stroke-width="2" d="M992,-180C992,-180 930,-180 930,-180 924,-180 918,-174 918,-168 918,-168 918,-156 918,-156 918,-150 924,-144 930,-144 930,-144 992,-144 992,-144 998,-144 1004,-150 1004,-156 1004,-156 1004,-168 1004,-168 1004,-174 998,-180 992,-180"/>
<text text-anchor="middle" x="961" y="-159.5" font-family="sans" font-size="10.00">merge_devset</text>
</g>
<!-- 2&#45;&gt;1 -->
<g id="edge3" class="edge">
<title>2&#45;&gt;1</title>
<path fill="none" stroke="grey" stroke-width="2" d="M917.82,-148.4C876.75,-136.43 814.98,-118.41 771.62,-105.76"/>
<polygon fill="grey" stroke="grey" stroke-width="2" points="772.42,-102.35 761.84,-102.91 770.46,-109.07 772.42,-102.35"/>
</g>
<!-- 25 -->
<g id="node26" class="node">
<title>25</title>
<path fill="none" stroke="#8fd856" stroke-width="2" d="M650.5,-108C650.5,-108 593.5,-108 593.5,-108 587.5,-108 581.5,-102 581.5,-96 581.5,-96 581.5,-84 581.5,-84 581.5,-78 587.5,-72 593.5,-72 593.5,-72 650.5,-72 650.5,-72 656.5,-72 662.5,-78 662.5,-84 662.5,-84 662.5,-96 662.5,-96 662.5,-102 656.5,-108 650.5,-108"/>
<text text-anchor="middle" x="622" y="-93" font-family="sans" font-size="10.00">train_teacher</text>
<text text-anchor="middle" x="622" y="-82" font-family="sans" font-size="10.00">ens: 1</text>
</g>
<!-- 2&#45;&gt;25 -->
<g id="edge38" class="edge">
<title>2&#45;&gt;25</title>
<path fill="none" stroke="grey" stroke-width="2" d="M917.8,-155.22C862.69,-147.38 764.38,-131.84 672.49,-108.21"/>
<polygon fill="grey" stroke="grey" stroke-width="2" points="673.32,-104.81 662.76,-105.67 671.55,-111.58 673.32,-104.81"/>
</g>
<!-- 3 -->
<g id="node4" class="node">
<title>3</title>
<path fill="none" stroke="#56a9d8" stroke-width="2" d="M1150,-257C1150,-257 1064,-257 1064,-257 1058,-257 1052,-251 1052,-245 1052,-245 1052,-228 1052,-228 1052,-222 1058,-216 1064,-216 1064,-216 1150,-216 1150,-216 1156,-216 1162,-222 1162,-228 1162,-228 1162,-245 1162,-245 1162,-251 1156,-257 1150,-257"/>
<text text-anchor="middle" x="1107" y="-245" font-family="sans" font-size="10.00">download_corpus</text>
<text text-anchor="middle" x="1107" y="-234" font-family="sans" font-size="10.00">dataset: flores_dev</text>
<text text-anchor="middle" x="1107" y="-223" font-family="sans" font-size="10.00">kind: devset</text>
</g>
<!-- 3&#45;&gt;2 -->
<g id="edge7" class="edge">
<title>3&#45;&gt;2</title>
<path fill="none" stroke="grey" stroke-width="2" d="M1067.49,-215.88C1048.1,-206.25 1024.68,-194.62 1004.75,-184.72"/>
<polygon fill="grey" stroke="grey" stroke-width="2" points="1006.08,-181.48 995.57,-180.17 1002.97,-187.75 1006.08,-181.48"/>
</g>
<!-- 4 -->
<g id="node5" class="node">
<title>4</title>
<path fill="none" stroke="#56a9d8" stroke-width="2" d="M1022,-257C1022,-257 900,-257 900,-257 894,-257 888,-251 888,-245 888,-245 888,-228 888,-228 888,-222 894,-216 900,-216 900,-216 1022,-216 1022,-216 1028,-216 1034,-222 1034,-228 1034,-228 1034,-245 1034,-245 1034,-251 1028,-257 1022,-257"/>
<text text-anchor="middle" x="961" y="-245" font-family="sans" font-size="10.00">download_corpus</text>
<text text-anchor="middle" x="961" y="-234" font-family="sans" font-size="10.00">dataset: sacrebleu_wmt19</text>
<text text-anchor="middle" x="961" y="-223" font-family="sans" font-size="10.00">kind: devset</text>
</g>
<!-- 4&#45;&gt;2 -->
<g id="edge8" class="edge">
<title>4&#45;&gt;2</title>
<path fill="none" stroke="grey" stroke-width="2" d="M961,-215.69C961,-207.91 961,-198.84 961,-190.45"/>
<polygon fill="grey" stroke="grey" stroke-width="2" points="964.5,-190.32 961,-180.32 957.5,-190.32 964.5,-190.32"/>
</g>
<!-- 5 -->
<g id="node6" class="node">
<title>5</title>
<path fill="none" stroke="#d89c56" stroke-width="2" d="M895,-475.5C895,-475.5 805,-475.5 805,-475.5 799,-475.5 793,-469.5 793,-463.5 793,-463.5 793,-451.5 793,-451.5 793,-445.5 799,-439.5 805,-439.5 805,-439.5 895,-439.5 895,-439.5 901,-439.5 907,-445.5 907,-451.5 907,-451.5 907,-463.5 907,-463.5 907,-469.5 901,-475.5 895,-475.5"/>
<text text-anchor="middle" x="850" y="-455" font-family="sans" font-size="10.00">compile_preprocess</text>
</g>
<!-- 5&#45;&gt;2 -->
<g id="edge9" class="edge">
<title>5&#45;&gt;2</title>
<path fill="none" stroke="grey" stroke-width="2" d="M907.04,-440.12C983.09,-414.86 1114.65,-358.37 1171,-257 1179.85,-241.07 1182.2,-230.38 1171,-216 1151.91,-191.5 1069.99,-176.55 1014.29,-169.02"/>
<polygon fill="grey" stroke="grey" stroke-width="2" points="1014.59,-165.53 1004.22,-167.7 1013.68,-172.47 1014.59,-165.53"/>
</g>
<!-- 6 -->
<g id="node7" class="node">
<title>6</title>
<path fill="none" stroke="#5692d8" stroke-width="2" d="M769.5,-180C769.5,-180 684.5,-180 684.5,-180 678.5,-180 672.5,-174 672.5,-168 672.5,-168 672.5,-156 672.5,-156 672.5,-150 678.5,-144 684.5,-144 684.5,-144 769.5,-144 769.5,-144 775.5,-144 781.5,-150 781.5,-156 781.5,-156 781.5,-168 781.5,-168 781.5,-174 775.5,-180 769.5,-180"/>
<text text-anchor="middle" x="727" y="-159.5" font-family="sans" font-size="10.00">merge_augmented</text>
</g>
<!-- 5&#45;&gt;6 -->
<g id="edge12" class="edge">
<title>5&#45;&gt;6</title>
<path fill="none" stroke="grey" stroke-width="2" d="M854.85,-439.24C865.64,-397.02 887.09,-286.81 840,-216 828.55,-198.79 809.95,-187.05 791.11,-179.09"/>
<polygon fill="grey" stroke="grey" stroke-width="2" points="792.16,-175.74 781.58,-175.37 789.62,-182.26 792.16,-175.74"/>
</g>
<!-- 7 -->
<g id="node8" class="node">
<title>7</title>
<path fill="none" stroke="#56d8b1" stroke-width="2" d="M662,-254.5C662,-254.5 600,-254.5 600,-254.5 594,-254.5 588,-248.5 588,-242.5 588,-242.5 588,-230.5 588,-230.5 588,-224.5 594,-218.5 600,-218.5 600,-218.5 662,-218.5 662,-218.5 668,-218.5 674,-224.5 674,-230.5 674,-230.5 674,-242.5 674,-242.5 674,-248.5 668,-254.5 662,-254.5"/>
<text text-anchor="middle" x="631" y="-234" font-family="sans" font-size="10.00">merge_corpus</text>
</g>
<!-- 5&#45;&gt;7 -->
<g id="edge17" class="edge">
<title>5&#45;&gt;7</title>
<path fill="none" stroke="grey" stroke-width="2" d="M797.26,-439.43C756.77,-425.94 706.53,-408.23 699,-401 660.09,-363.69 642.58,-300.78 635.41,-264.84"/>
<polygon fill="grey" stroke="grey" stroke-width="2" points="638.78,-263.8 633.5,-254.62 631.89,-265.09 638.78,-263.8"/>
</g>
<!-- 19 -->
<g id="node20" class="node">
<title>19</title>
<path fill="none" stroke="#d8d356" stroke-width="2" d="M813.5,-329C813.5,-329 748.5,-329 748.5,-329 742.5,-329 736.5,-323 736.5,-317 736.5,-317 736.5,-305 736.5,-305 736.5,-299 742.5,-293 748.5,-293 748.5,-293 813.5,-293 813.5,-293 819.5,-293 825.5,-299 825.5,-305 825.5,-305 825.5,-317 825.5,-317 825.5,-323 819.5,-329 813.5,-329"/>
<text text-anchor="middle" x="781" y="-308.5" font-family="sans" font-size="10.00">split_mono_trg</text>
</g>
<!-- 5&#45;&gt;19 -->
<g id="edge32" class="edge">
<title>5&#45;&gt;19</title>
<path fill="none" stroke="grey" stroke-width="2" d="M841.81,-439.36C829.88,-414.37 807.61,-367.74 793.59,-338.36"/>
<polygon fill="grey" stroke="grey" stroke-width="2" points="796.64,-336.64 789.18,-329.12 790.33,-339.65 796.64,-336.64"/>
</g>
<!-- 20 -->
<g id="node21" class="node">
<title>20</title>
<path fill="none" stroke="#567bd8" stroke-width="2" d="M777.5,-401C777.5,-401 720.5,-401 720.5,-401 714.5,-401 708.5,-395 708.5,-389 708.5,-389 708.5,-377 708.5,-377 708.5,-371 714.5,-365 720.5,-365 720.5,-365 777.5,-365 777.5,-365 783.5,-365 789.5,-371 789.5,-377 789.5,-377 789.5,-389 789.5,-389 789.5,-395 783.5,-401 777.5,-401"/>
<text text-anchor="middle" x="749" y="-380.5" font-family="sans" font-size="10.00">merge_mono</text>
</g>
<!-- 5&#45;&gt;20 -->
<g id="edge34" class="edge">
<title>5&#45;&gt;20</title>
<path fill="none" stroke="grey" stroke-width="2" d="M826.06,-439.32C812.61,-429.66 795.63,-417.47 781.04,-407"/>
<polygon fill="grey" stroke="grey" stroke-width="2" points="782.93,-404.05 772.76,-401.06 778.85,-409.73 782.93,-404.05"/>
</g>
<!-- 6&#45;&gt;1 -->
<g id="edge4" class="edge">
<title>6&#45;&gt;1</title>
<path fill="none" stroke="grey" stroke-width="2" d="M725.52,-143.7C724.86,-135.98 724.06,-126.71 723.32,-118.11"/>
<polygon fill="grey" stroke="grey" stroke-width="2" points="726.81,-117.77 722.47,-108.1 719.83,-118.37 726.81,-117.77"/>
</g>
<!-- 6&#45;&gt;25 -->
<g id="edge39" class="edge">
<title>6&#45;&gt;25</title>
<path fill="none" stroke="grey" stroke-width="2" d="M701.31,-143.88C687.71,-134.81 670.83,-123.55 656.14,-113.76"/>
<polygon fill="grey" stroke="grey" stroke-width="2" points="658.05,-110.82 647.78,-108.19 654.16,-116.65 658.05,-110.82"/>
</g>
<!-- 7&#45;&gt;6 -->
<g id="edge10" class="edge">
<title>7&#45;&gt;6</title>
<path fill="none" stroke="grey" stroke-width="2" d="M653.75,-218.32C666.42,-208.75 682.38,-196.7 696.16,-186.29"/>
<polygon fill="grey" stroke="grey" stroke-width="2" points="698.54,-188.88 704.41,-180.06 694.32,-183.29 698.54,-188.88"/>
</g>
<!-- 24 -->
<g id="node25" class="node">
<title>24</title>
<path fill="none" stroke="#d86656" stroke-width="2" d="M642,-180C642,-180 592,-180 592,-180 586,-180 580,-174 580,-168 580,-168 580,-156 580,-156 580,-150 586,-144 592,-144 592,-144 642,-144 642,-144 648,-144 654,-150 654,-156 654,-156 654,-168 654,-168 654,-174 648,-180 642,-180"/>
<text text-anchor="middle" x="617" y="-159.5" font-family="sans" font-size="10.00">train_vocab</text>
</g>
<!-- 7&#45;&gt;24 -->
<g id="edge37" class="edge">
<title>7&#45;&gt;24</title>
<path fill="none" stroke="grey" stroke-width="2" d="M627.68,-218.32C626.04,-209.83 624.03,-199.39 622.19,-189.88"/>
<polygon fill="grey" stroke="grey" stroke-width="2" points="625.63,-189.21 620.29,-180.06 618.75,-190.54 625.63,-189.21"/>
</g>
<!-- 8 -->
<g id="node9" class="node">
<title>8</title>
<path fill="none" stroke="#d89556" stroke-width="2" d="M561,-329C561,-329 523,-329 523,-329 517,-329 511,-323 511,-317 511,-317 511,-305 511,-305 511,-299 517,-293 523,-293 523,-293 561,-293 561,-293 567,-293 573,-299 573,-305 573,-305 573,-317 573,-317 573,-323 567,-329 561,-329"/>
<text text-anchor="middle" x="542" y="-308.5" font-family="sans" font-size="10.00">bicleaner</text>
</g>
<!-- 8&#45;&gt;7 -->
<g id="edge14" class="edge">
<title>8&#45;&gt;7</title>
<path fill="none" stroke="grey" stroke-width="2" d="M563.09,-292.82C574.73,-283.34 589.35,-271.43 602.05,-261.08"/>
<polygon fill="grey" stroke="grey" stroke-width="2" points="604.52,-263.59 610.06,-254.56 600.1,-258.16 604.52,-263.59"/>
</g>
<!-- 9 -->
<g id="node10" class="node">
<title>9</title>
<path fill="none" stroke="#5663d8" stroke-width="2" d="M477,-475.5C477,-475.5 447,-475.5 447,-475.5 441,-475.5 435,-469.5 435,-463.5 435,-463.5 435,-451.5 435,-451.5 435,-445.5 441,-439.5 447,-439.5 447,-439.5 477,-439.5 477,-439.5 483,-439.5 489,-445.5 489,-451.5 489,-451.5 489,-463.5 489,-463.5 489,-469.5 483,-475.5 477,-475.5"/>
<text text-anchor="middle" x="462" y="-455" font-family="sans" font-size="10.00">kenlm</text>
</g>
<!-- 9&#45;&gt;8 -->
<g id="edge18" class="edge">
<title>9&#45;&gt;8</title>
<path fill="none" stroke="grey" stroke-width="2" d="M483.76,-439.29C495.15,-429.23 508.47,-415.65 517,-401 528.14,-381.87 534.53,-357.52 538.06,-339.12"/>
<polygon fill="grey" stroke="grey" stroke-width="2" points="541.54,-339.52 539.82,-329.07 534.65,-338.31 541.54,-339.52"/>
</g>
<!-- 12 -->
<g id="node13" class="node">
<title>12</title>
<path fill="none" stroke="#59d856" stroke-width="2" d="M496,-401C496,-401 430,-401 430,-401 424,-401 418,-395 418,-389 418,-389 418,-377 418,-377 418,-371 424,-365 430,-365 430,-365 496,-365 496,-365 502,-365 508,-371 508,-377 508,-377 508,-389 508,-389 508,-395 502,-401 496,-401"/>
<text text-anchor="middle" x="463" y="-380.5" font-family="sans" font-size="10.00">bicleaner_pack</text>
</g>
<!-- 9&#45;&gt;12 -->
<g id="edge22" class="edge">
<title>9&#45;&gt;12</title>
<path fill="none" stroke="grey" stroke-width="2" d="M462.24,-439.32C462.35,-430.92 462.49,-420.62 462.63,-411.19"/>
<polygon fill="grey" stroke="grey" stroke-width="2" points="466.13,-411.11 462.76,-401.06 459.13,-411.01 466.13,-411.11"/>
</g>
<!-- 13 -->
<g id="node14" class="node">
<title>13</title>
<path fill="none" stroke="#d89556" stroke-width="2" d="M383,-329C383,-329 345,-329 345,-329 339,-329 333,-323 333,-317 333,-317 333,-305 333,-305 333,-299 339,-293 345,-293 345,-293 383,-293 383,-293 389,-293 395,-299 395,-305 395,-305 395,-317 395,-317 395,-323 389,-329 383,-329"/>
<text text-anchor="middle" x="364" y="-308.5" font-family="sans" font-size="10.00">bicleaner</text>
</g>
<!-- 9&#45;&gt;13 -->
<g id="edge23" class="edge">
<title>9&#45;&gt;13</title>
<path fill="none" stroke="grey" stroke-width="2" d="M438.52,-439.27C426.09,-429.21 411.3,-415.64 401,-401 387.59,-381.95 377.82,-357.3 371.7,-338.77"/>
<polygon fill="grey" stroke="grey" stroke-width="2" points="375.03,-337.67 368.68,-329.18 368.35,-339.77 375.03,-337.67"/>
</g>
<!-- 16 -->
<g id="node17" class="node">
<title>16</title>
<path fill="none" stroke="#d89556" stroke-width="2" d="M475,-329C475,-329 437,-329 437,-329 431,-329 425,-323 425,-317 425,-317 425,-305 425,-305 425,-299 431,-293 437,-293 437,-293 475,-293 475,-293 481,-293 487,-299 487,-305 487,-305 487,-317 487,-317 487,-323 481,-329 475,-329"/>
<text text-anchor="middle" x="456" y="-308.5" font-family="sans" font-size="10.00">bicleaner</text>
</g>
<!-- 9&#45;&gt;16 -->
<g id="edge27" class="edge">
<title>9&#45;&gt;16</title>
<path fill="none" stroke="grey" stroke-width="2" d="M438.88,-439.44C427.57,-429.62 415.1,-416.21 409,-401 403.05,-386.15 403.32,-379.96 409,-365 412.97,-354.54 420.05,-344.83 427.53,-336.65"/>
<polygon fill="grey" stroke="grey" stroke-width="2" points="430.23,-338.89 434.73,-329.3 425.23,-333.99 430.23,-338.89"/>
</g>
<!-- 10 -->
<g id="node11" class="node">
<title>10</title>
<path fill="none" stroke="#56c1d8" stroke-width="2" d="M632,-401C632,-401 576,-401 576,-401 570,-401 564,-395 564,-389 564,-389 564,-377 564,-377 564,-371 570,-365 576,-365 576,-365 632,-365 632,-365 638,-365 644,-371 644,-377 644,-377 644,-389 644,-389 644,-395 638,-401 632,-401"/>
<text text-anchor="middle" x="604" y="-380.5" font-family="sans" font-size="10.00">clean_corpus</text>
</g>
<!-- 10&#45;&gt;8 -->
<g id="edge19" class="edge">
<title>10&#45;&gt;8</title>
<path fill="none" stroke="grey" stroke-width="2" d="M588.67,-364.7C581.24,-356.3 572.18,-346.07 564.02,-336.86"/>
<polygon fill="grey" stroke="grey" stroke-width="2" points="566.4,-334.27 557.15,-329.1 561.16,-338.91 566.4,-334.27"/>
</g>
<!-- 11 -->
<g id="node12" class="node">
<title>11</title>
<path fill="none" stroke="#56a9d8" stroke-width="2" d="M658.5,-478C658.5,-478 549.5,-478 549.5,-478 543.5,-478 537.5,-472 537.5,-466 537.5,-466 537.5,-449 537.5,-449 537.5,-443 543.5,-437 549.5,-437 549.5,-437 658.5,-437 658.5,-437 664.5,-437 670.5,-443 670.5,-449 670.5,-449 670.5,-466 670.5,-466 670.5,-472 664.5,-478 658.5,-478"/>
<text text-anchor="middle" x="604" y="-466" font-family="sans" font-size="10.00">download_corpus</text>
<text text-anchor="middle" x="604" y="-455" font-family="sans" font-size="10.00">dataset: opus_ada83/v1</text>
<text text-anchor="middle" x="604" y="-444" font-family="sans" font-size="10.00">kind: corpus</text>
</g>
<!-- 11&#45;&gt;10 -->
<g id="edge21" class="edge">
<title>11&#45;&gt;10</title>
<path fill="none" stroke="grey" stroke-width="2" d="M604,-436.69C604,-428.91 604,-419.84 604,-411.45"/>
<polygon fill="grey" stroke="grey" stroke-width="2" points="607.5,-411.32 604,-401.32 600.5,-411.32 607.5,-411.32"/>
</g>
<!-- 12&#45;&gt;8 -->
<g id="edge20" class="edge">
<title>12&#45;&gt;8</title>
<path fill="none" stroke="grey" stroke-width="2" d="M482.53,-364.7C492.38,-355.97 504.49,-345.24 515.2,-335.75"/>
<polygon fill="grey" stroke="grey" stroke-width="2" points="517.53,-338.36 522.7,-329.1 512.89,-333.12 517.53,-338.36"/>
</g>
<!-- 12&#45;&gt;13 -->
<g id="edge25" class="edge">
<title>12&#45;&gt;13</title>
<path fill="none" stroke="grey" stroke-width="2" d="M438.78,-364.88C426.08,-355.89 410.34,-344.76 396.58,-335.03"/>
<polygon fill="grey" stroke="grey" stroke-width="2" points="398.5,-332.11 388.31,-329.19 394.46,-337.82 398.5,-332.11"/>
</g>
<!-- 12&#45;&gt;16 -->
<g id="edge29" class="edge">
<title>12&#45;&gt;16</title>
<path fill="none" stroke="grey" stroke-width="2" d="M461.27,-364.7C460.5,-356.98 459.57,-347.71 458.71,-339.11"/>
<polygon fill="grey" stroke="grey" stroke-width="2" points="462.19,-338.71 457.71,-329.1 455.22,-339.4 462.19,-338.71"/>
</g>
<!-- 13&#45;&gt;7 -->
<g id="edge15" class="edge">
<title>13&#45;&gt;7</title>
<path fill="none" stroke="grey" stroke-width="2" d="M395.2,-299.25C402.01,-297.05 409.22,-294.85 416,-293 484.49,-274.29 506.03,-277.72 577.77,-257.16"/>
<polygon fill="grey" stroke="grey" stroke-width="2" points="579.13,-260.41 587.74,-254.24 577.16,-253.69 579.13,-260.41"/>
</g>
<!-- 14 -->
<g id="node15" class="node">
<title>14</title>
<path fill="none" stroke="#56c1d8" stroke-width="2" d="M157,-401C157,-401 101,-401 101,-401 95,-401 89,-395 89,-389 89,-389 89,-377 89,-377 89,-371 95,-365 101,-365 101,-365 157,-365 157,-365 163,-365 169,-371 169,-377 169,-377 169,-389 169,-389 169,-395 163,-401 157,-401"/>
<text text-anchor="middle" x="129" y="-380.5" font-family="sans" font-size="10.00">clean_corpus</text>
</g>
<!-- 14&#45;&gt;13 -->
<g id="edge24" class="edge">
<title>14&#45;&gt;13</title>
<path fill="none" stroke="grey" stroke-width="2" d="M169.13,-370.05C212.06,-357.26 279.8,-337.08 323.04,-324.2"/>
<polygon fill="grey" stroke="grey" stroke-width="2" points="324.1,-327.54 332.68,-321.33 322.1,-320.83 324.1,-327.54"/>
</g>
<!-- 15 -->
<g id="node16" class="node">
<title>15</title>
<path fill="none" stroke="#56a9d8" stroke-width="2" d="M128,-478C128,-478 12,-478 12,-478 6,-478 0,-472 0,-466 0,-466 0,-449 0,-449 0,-443 6,-437 12,-437 12,-437 128,-437 128,-437 134,-437 140,-443 140,-449 140,-449 140,-466 140,-466 140,-472 134,-478 128,-478"/>
<text text-anchor="middle" x="70" y="-466" font-family="sans" font-size="10.00">download_corpus</text>
<text text-anchor="middle" x="70" y="-455" font-family="sans" font-size="10.00">dataset: opus_GNOME/v1</text>
<text text-anchor="middle" x="70" y="-444" font-family="sans" font-size="10.00">kind: corpus</text>
</g>
<!-- 15&#45;&gt;14 -->
<g id="edge26" class="edge">
<title>15&#45;&gt;14</title>
<path fill="none" stroke="grey" stroke-width="2" d="M86.12,-436.69C93.02,-428.21 101.15,-418.22 108.47,-409.23"/>
<polygon fill="grey" stroke="grey" stroke-width="2" points="111.31,-411.28 114.91,-401.32 105.88,-406.87 111.31,-411.28"/>
</g>
<!-- 16&#45;&gt;7 -->
<g id="edge16" class="edge">
<title>16&#45;&gt;7</title>
<path fill="none" stroke="grey" stroke-width="2" d="M487.29,-297.04C513.1,-286.34 550.24,-270.96 580.29,-258.51"/>
<polygon fill="grey" stroke="grey" stroke-width="2" points="581.88,-261.64 589.78,-254.58 579.2,-255.17 581.88,-261.64"/>
</g>
<!-- 17 -->
<g id="node18" class="node">
<title>17</title>
<path fill="none" stroke="#56c1d8" stroke-width="2" d="M312,-401C312,-401 256,-401 256,-401 250,-401 244,-395 244,-389 244,-389 244,-377 244,-377 244,-371 250,-365 256,-365 256,-365 312,-365 312,-365 318,-365 324,-371 324,-377 324,-377 324,-389 324,-389 324,-395 318,-401 312,-401"/>
<text text-anchor="middle" x="284" y="-380.5" font-family="sans" font-size="10.00">clean_corpus</text>
</g>
<!-- 17&#45;&gt;16 -->
<g id="edge28" class="edge">
<title>17&#45;&gt;16</title>
<path fill="none" stroke="grey" stroke-width="2" d="M324.33,-365.59C351.77,-354.42 387.96,-339.69 415.45,-328.5"/>
<polygon fill="grey" stroke="grey" stroke-width="2" points="416.84,-331.71 424.79,-324.7 414.2,-325.23 416.84,-331.71"/>
</g>
<!-- 18 -->
<g id="node19" class="node">
<title>18</title>
<path fill="none" stroke="#56a9d8" stroke-width="2" d="M402,-478C402,-478 170,-478 170,-478 164,-478 158,-472 158,-466 158,-466 158,-449 158,-449 158,-443 164,-437 170,-437 170,-437 402,-437 402,-437 408,-437 414,-443 414,-449 414,-449 414,-466 414,-466 414,-472 408,-478 402,-478"/>
<text text-anchor="middle" x="286" y="-466" font-family="sans" font-size="10.00">download_corpus</text>
<text text-anchor="middle" x="286" y="-455" font-family="sans" font-size="10.00">dataset: mtdata_Neulab&#45;tedtalks_train&#45;1&#45;eng&#45;rus</text>
<text text-anchor="middle" x="286" y="-444" font-family="sans" font-size="10.00">kind: corpus</text>
</g>
<!-- 18&#45;&gt;17 -->
<g id="edge30" class="edge">
<title>18&#45;&gt;17</title>
<path fill="none" stroke="grey" stroke-width="2" d="M285.45,-436.69C285.24,-428.91 284.99,-419.84 284.76,-411.45"/>
<polygon fill="grey" stroke="grey" stroke-width="2" points="288.25,-411.22 284.48,-401.32 281.25,-411.41 288.25,-411.22"/>
</g>
<!-- 26 -->
<g id="node27" class="node">
<title>26</title>
<path fill="none" stroke="#56d8c1" stroke-width="2" d="M819.5,-254.5C819.5,-254.5 742.5,-254.5 742.5,-254.5 736.5,-254.5 730.5,-248.5 730.5,-242.5 730.5,-242.5 730.5,-230.5 730.5,-230.5 730.5,-224.5 736.5,-218.5 742.5,-218.5 742.5,-218.5 819.5,-218.5 819.5,-218.5 825.5,-218.5 831.5,-224.5 831.5,-230.5 831.5,-230.5 831.5,-242.5 831.5,-242.5 831.5,-248.5 825.5,-254.5 819.5,-254.5"/>
<text text-anchor="middle" x="781" y="-234" font-family="sans" font-size="10.00">collect_mono_trg</text>
</g>
<!-- 19&#45;&gt;26 -->
<g id="edge42" class="edge">
<title>19&#45;&gt;26</title>
<path fill="none" stroke="grey" stroke-width="2" d="M781,-292.82C781,-284.42 781,-274.12 781,-264.69"/>
<polygon fill="grey" stroke="grey" stroke-width="2" points="784.5,-264.56 781,-254.56 777.5,-264.56 784.5,-264.56"/>
</g>
<!-- 20&#45;&gt;6 -->
<g id="edge11" class="edge">
<title>20&#45;&gt;6</title>
<path fill="none" stroke="grey" stroke-width="2" d="M740.26,-364.79C735.51,-354.64 730.01,-341.39 727,-329 715.45,-281.45 719.22,-223.94 723.07,-190.61"/>
<polygon fill="grey" stroke="grey" stroke-width="2" points="726.59,-190.64 724.36,-180.28 719.65,-189.77 726.59,-190.64"/>
</g>
<!-- 20&#45;&gt;19 -->
<g id="edge31" class="edge">
<title>20&#45;&gt;19</title>
<path fill="none" stroke="grey" stroke-width="2" d="M756.91,-364.7C760.55,-356.73 764.95,-347.1 768.99,-338.26"/>
<polygon fill="grey" stroke="grey" stroke-width="2" points="772.21,-339.65 773.18,-329.1 765.84,-336.74 772.21,-339.65"/>
</g>
<!-- 21 -->
<g id="node22" class="node">
<title>21</title>
<path fill="none" stroke="#d8c356" stroke-width="2" d="M763,-475.5C763,-475.5 711,-475.5 711,-475.5 705,-475.5 699,-469.5 699,-463.5 699,-463.5 699,-451.5 699,-451.5 699,-445.5 705,-439.5 711,-439.5 711,-439.5 763,-439.5 763,-439.5 769,-439.5 775,-445.5 775,-451.5 775,-451.5 775,-463.5 775,-463.5 775,-469.5 769,-475.5 763,-475.5"/>
<text text-anchor="middle" x="737" y="-455" font-family="sans" font-size="10.00">clean_mono</text>
</g>
<!-- 21&#45;&gt;20 -->
<g id="edge33" class="edge">
<title>21&#45;&gt;20</title>
<path fill="none" stroke="grey" stroke-width="2" d="M739.84,-439.32C741.23,-430.92 742.94,-420.62 744.5,-411.19"/>
<polygon fill="grey" stroke="grey" stroke-width="2" points="748,-411.5 746.18,-401.06 741.09,-410.35 748,-411.5"/>
</g>
<!-- 22 -->
<g id="node23" class="node">
<title>22</title>
<path fill="none" stroke="#d85656" stroke-width="2" d="M811.5,-555C811.5,-555 662.5,-555 662.5,-555 656.5,-555 650.5,-549 650.5,-543 650.5,-543 650.5,-526 650.5,-526 650.5,-520 656.5,-514 662.5,-514 662.5,-514 811.5,-514 811.5,-514 817.5,-514 823.5,-520 823.5,-526 823.5,-526 823.5,-543 823.5,-543 823.5,-549 817.5,-555 811.5,-555"/>
<text text-anchor="middle" x="737" y="-543" font-family="sans" font-size="10.00">download_mono</text>
<text text-anchor="middle" x="737" y="-532" font-family="sans" font-size="10.00">dataset: news&#45;crawl_news.2020</text>
<text text-anchor="middle" x="737" y="-521" font-family="sans" font-size="10.00">lang: en</text>
</g>
<!-- 22&#45;&gt;21 -->
<g id="edge35" class="edge">
<title>22&#45;&gt;21</title>
<path fill="none" stroke="grey" stroke-width="2" d="M737,-513.79C737,-505.31 737,-495.24 737,-486.04"/>
<polygon fill="grey" stroke="grey" stroke-width="2" points="740.5,-485.78 737,-475.78 733.5,-485.78 740.5,-485.78"/>
</g>
<!-- 23 -->
<g id="node24" class="node">
<title>23</title>
<path fill="none" stroke="#78d856" stroke-width="2" d="M558,-254.5C558,-254.5 442,-254.5 442,-254.5 436,-254.5 430,-248.5 430,-242.5 430,-242.5 430,-230.5 430,-230.5 430,-224.5 436,-218.5 442,-218.5 442,-218.5 558,-218.5 558,-218.5 564,-218.5 570,-224.5 570,-230.5 570,-230.5 570,-242.5 570,-242.5 570,-248.5 564,-254.5 558,-254.5"/>
<text text-anchor="middle" x="500" y="-239.5" font-family="sans" font-size="10.00">marian</text>
<text text-anchor="middle" x="500" y="-228.5" font-family="sans" font-size="10.00">marian_type: marian&#45;dev</text>
</g>
<!-- 23&#45;&gt;1 -->
<g id="edge5" class="edge">
<title>23&#45;&gt;1</title>
<path fill="none" stroke="grey" stroke-width="2" d="M511.72,-218.11C527.83,-194.62 556.49,-154.47 571,-144 573.18,-142.43 628.21,-123.16 670.99,-108.3"/>
<polygon fill="grey" stroke="grey" stroke-width="2" points="672.16,-111.6 680.46,-105.02 669.86,-104.99 672.16,-111.6"/>
</g>
<!-- 23&#45;&gt;24 -->
<g id="edge36" class="edge">
<title>23&#45;&gt;24</title>
<path fill="none" stroke="grey" stroke-width="2" d="M527.73,-218.32C543.61,-208.48 563.72,-196.01 580.83,-185.41"/>
<polygon fill="grey" stroke="grey" stroke-width="2" points="582.81,-188.3 589.47,-180.06 579.13,-182.35 582.81,-188.3"/>
</g>
<!-- 23&#45;&gt;25 -->
<g id="edge40" class="edge">
<title>23&#45;&gt;25</title>
<path fill="none" stroke="grey" stroke-width="2" d="M503.08,-218.28C507.35,-198.5 516.71,-165.96 535,-144 545.31,-131.63 559.29,-121.35 573.03,-113.24"/>
<polygon fill="grey" stroke="grey" stroke-width="2" points="574.96,-116.17 581.98,-108.23 571.54,-110.06 574.96,-116.17"/>
</g>
<!-- 24&#45;&gt;1 -->
<g id="edge6" class="edge">
<title>24&#45;&gt;1</title>
<path fill="none" stroke="grey" stroke-width="2" d="M642.44,-143.88C655.79,-134.89 672.32,-123.76 686.78,-114.03"/>
<polygon fill="grey" stroke="grey" stroke-width="2" points="689.12,-116.68 695.46,-108.19 685.21,-110.87 689.12,-116.68"/>
</g>
<!-- 24&#45;&gt;25 -->
<g id="edge41" class="edge">
<title>24&#45;&gt;25</title>
<path fill="none" stroke="grey" stroke-width="2" d="M618.24,-143.7C618.79,-135.98 619.45,-126.71 620.06,-118.11"/>
<polygon fill="grey" stroke="grey" stroke-width="2" points="623.56,-118.33 620.78,-108.1 616.57,-117.83 623.56,-118.33"/>
</g>
<!-- 25&#45;&gt;0 -->
<g id="edge2" class="edge">
<title>25&#45;&gt;0</title>
<path fill="none" stroke="grey" stroke-width="2" d="M634.11,-71.7C639.87,-63.47 646.86,-53.48 653.21,-44.42"/>
<polygon fill="grey" stroke="grey" stroke-width="2" points="656.16,-46.3 659.03,-36.1 650.42,-42.29 656.16,-46.3"/>
</g>
<!-- 26&#45;&gt;6 -->
<g id="edge13" class="edge">
<title>26&#45;&gt;6</title>
<path fill="none" stroke="grey" stroke-width="2" d="M768.2,-218.32C761.54,-209.38 753.28,-198.28 745.9,-188.37"/>
<polygon fill="grey" stroke="grey" stroke-width="2" points="748.49,-185.99 739.71,-180.06 742.87,-190.17 748.49,-185.99"/>
</g>
</g>
</svg>
